<svg width="48" height="44" viewBox="0 0 48 44" fill="none" xmlns="http://www.w3.org/2000/svg">
<path fill-rule="evenodd" clip-rule="evenodd" d="M30.5269 12.5609C29.005 11.8423 27.3778 11.32 25.6765 11.0226C25.4676 11.4039 25.2235 11.9166 25.0552 12.3246C23.2467 12.0501 21.4549 12.0501 19.6796 12.3246C19.5114 11.9166 19.2617 11.4039 19.0509 11.0226C17.3478 11.32 15.7187 11.8442 14.1969 12.5647C11.1272 17.2462 10.2951 21.8114 10.7112 26.3117C12.7471 27.8462 14.7202 28.7783 16.6599 29.3883C17.1389 28.723 17.566 28.0158 17.934 27.2705C17.2332 27.0018 16.5619 26.6701 15.9277 26.2851C16.096 26.1593 16.2605 26.0277 16.4196 25.8924C20.288 27.7185 24.4912 27.7185 28.3134 25.8924C28.4743 26.0277 28.6389 26.1593 28.8053 26.2851C28.1692 26.672 27.4961 27.0037 26.7953 27.2725C27.1632 28.0158 27.5886 28.7249 28.0693 29.3901C30.011 28.7802 31.9859 27.8481 34.0218 26.3117C34.51 21.0947 33.1878 16.5714 30.5269 12.5609ZM18.4605 23.5441C17.2993 23.5441 16.3469 22.4499 16.3469 21.1175C16.3469 19.7852 17.2789 18.6891 18.4605 18.6891C19.6422 18.6891 20.5945 19.7832 20.5741 21.1175C20.576 22.4499 19.6422 23.5441 18.4605 23.5441ZM24.1582 21.1175C24.1582 22.4499 25.1105 23.5441 26.2718 23.5441C27.4534 23.5441 28.3854 22.4499 28.3854 21.1175C28.4057 19.7832 27.4534 18.6891 26.2718 18.6891C25.0901 18.6891 24.1582 19.7852 24.1582 21.1175Z" fill="#5865F2"/>
<g filter="url(#filter0_bdiii_26_566)">
<rect x="4.73438" y="2.20624" width="35.2656" height="35.2656" rx="12" fill="#2E2E2E" fill-opacity="0.528834"/>
</g>
<g opacity="0.526327" filter="url(#filter1_f_26_566)">
<path fill-rule="evenodd" clip-rule="evenodd" d="M33.4663 15.4997C31.9445 14.7811 30.3172 14.2588 28.616 13.9614C28.407 14.3427 28.1629 14.8554 27.9946 15.2633C26.1862 14.9889 24.3943 14.9889 22.6191 15.2633C22.4508 14.8554 22.2012 14.3427 21.9904 13.9614C20.2873 14.2588 18.6582 14.783 17.1363 15.5035C14.0667 20.185 13.2346 24.7502 13.6506 29.2505C15.6866 30.785 17.6596 31.7171 19.5994 32.327C20.0783 31.6618 20.5055 30.9546 20.8735 30.2093C20.1726 29.9406 19.5014 29.6089 18.8671 29.2239C19.0354 29.098 19.2 28.9665 19.359 28.8312C23.2275 30.6573 27.4306 30.6573 31.2529 28.8312C31.4138 28.9665 31.5783 29.098 31.7447 29.2239C31.1086 29.6108 30.4355 29.9424 29.7347 30.2112C30.1027 30.9546 30.528 31.6637 31.0088 32.3289C32.9504 31.719 34.9253 30.7869 36.9613 29.2505C37.4495 24.0335 36.1273 19.5102 33.4663 15.4997ZM21.4002 26.4829C20.239 26.4829 19.2866 25.3887 19.2866 24.0563C19.2866 22.724 20.2186 21.6279 21.4002 21.6279C22.5819 21.6279 23.5342 22.722 23.5138 24.0563C23.5157 25.3887 22.5819 26.4829 21.4002 26.4829ZM27.0972 24.0563C27.0972 25.3887 28.0496 26.4829 29.2109 26.4829C30.3925 26.4829 31.3245 25.3887 31.3245 24.0563C31.3448 22.722 30.3925 21.6279 29.2109 21.6279C28.0292 21.6279 27.0972 22.724 27.0972 24.0563Z" fill="#5865F2"/>
</g>
<g filter="url(#filter2_d_26_566)">
<path fill-rule="evenodd" clip-rule="evenodd" d="M30.5269 12.5609C29.005 11.8423 27.3777 11.32 25.6765 11.0226C25.4676 11.4039 25.2235 11.9167 25.0552 12.3246C23.2467 12.0501 21.4548 12.0501 19.6796 12.3246C19.5114 11.9167 19.2617 11.4039 19.0509 11.0226C17.3479 11.32 15.7187 11.8442 14.1969 12.5647C11.1272 17.2462 10.2951 21.8114 10.7112 26.3117C12.7471 27.8462 14.7202 28.7783 16.6599 29.3883C17.1389 28.723 17.566 28.0158 17.934 27.2705C17.2332 27.0018 16.5619 26.6701 15.9277 26.2851C16.0959 26.1593 16.2605 26.0277 16.4196 25.8924C20.288 27.7185 24.4912 27.7185 28.3134 25.8924C28.4743 26.0277 28.6389 26.1593 28.8053 26.2851C28.1692 26.672 27.4961 27.0037 26.7953 27.2725C27.1632 28.0158 27.5885 28.7249 28.0693 29.3901C30.011 28.7802 31.9859 27.8481 34.0218 26.3117C34.51 21.0947 33.1878 16.5714 30.5269 12.5609ZM18.4605 23.5441C17.2993 23.5441 16.3469 22.45 16.3469 21.1176C16.3469 19.7852 17.2789 18.6891 18.4605 18.6891C19.6422 18.6891 20.5945 19.7833 20.5741 21.1176C20.576 22.45 19.6422 23.5441 18.4605 23.5441ZM24.1582 21.1176C24.1582 22.45 25.1105 23.5441 26.2718 23.5441C27.4534 23.5441 28.3854 22.45 28.3854 21.1176C28.4057 19.7833 27.4534 18.6891 26.2718 18.6891C25.0902 18.6891 24.1582 19.7852 24.1582 21.1176Z" fill="#5865F2"/>
</g>
<defs>
<filter id="filter0_bdiii_26_566" x="-6.13875" y="-8.66689" width="57.0119" height="57.0119" filterUnits="userSpaceOnUse" color-interpolation-filters="sRGB">
<feFlood flood-opacity="0" result="BackgroundImageFix"/>
<feGaussianBlur in="BackgroundImage" stdDeviation="5.43656"/>
<feComposite in2="SourceAlpha" operator="in" result="effect1_backgroundBlur_26_566"/>
<feColorMatrix in="SourceAlpha" type="matrix" values="0 0 0 0 0 0 0 0 0 0 0 0 0 0 0 0 0 0 127 0" result="hardAlpha"/>
<feOffset dy="2"/>
<feGaussianBlur stdDeviation="2"/>
<feColorMatrix type="matrix" values="0 0 0 0 0 0 0 0 0 0 0 0 0 0 0 0 0 0 0.531262 0"/>
<feBlend mode="normal" in2="effect1_backgroundBlur_26_566" result="effect2_dropShadow_26_566"/>
<feBlend mode="normal" in="SourceGraphic" in2="effect2_dropShadow_26_566" result="shape"/>
<feColorMatrix in="SourceAlpha" type="matrix" values="0 0 0 0 0 0 0 0 0 0 0 0 0 0 0 0 0 0 127 0" result="hardAlpha"/>
<feOffset dx="4" dy="4"/>
<feGaussianBlur stdDeviation="10"/>
<feComposite in2="hardAlpha" operator="arithmetic" k2="-1" k3="1"/>
<feColorMatrix type="matrix" values="0 0 0 0 1 0 0 0 0 1 0 0 0 0 1 0 0 0 0.04 0"/>
<feBlend mode="normal" in2="shape" result="effect3_innerShadow_26_566"/>
<feColorMatrix in="SourceAlpha" type="matrix" values="0 0 0 0 0 0 0 0 0 0 0 0 0 0 0 0 0 0 127 0" result="hardAlpha"/>
<feOffset dx="-4" dy="-4"/>
<feGaussianBlur stdDeviation="12"/>
<feComposite in2="hardAlpha" operator="arithmetic" k2="-1" k3="1"/>
<feColorMatrix type="matrix" values="0 0 0 0 0 0 0 0 0 0 0 0 0 0 0 0 0 0 0.32 0"/>
<feBlend mode="normal" in2="effect3_innerShadow_26_566" result="effect4_innerShadow_26_566"/>
<feColorMatrix in="SourceAlpha" type="matrix" values="0 0 0 0 0 0 0 0 0 0 0 0 0 0 0 0 0 0 127 0" result="hardAlpha"/>
<feOffset dx="1" dy="1"/>
<feGaussianBlur stdDeviation="4"/>
<feComposite in2="hardAlpha" operator="arithmetic" k2="-1" k3="1"/>
<feColorMatrix type="matrix" values="0 0 0 0 1 0 0 0 0 1 0 0 0 0 1 0 0 0 0.04 0"/>
<feBlend mode="normal" in2="effect4_innerShadow_26_566" result="effect5_innerShadow_26_566"/>
</filter>
<filter id="filter1_f_26_566" x="2.67765" y="3.0883" width="45.2565" height="40.1138" filterUnits="userSpaceOnUse" color-interpolation-filters="sRGB">
<feFlood flood-opacity="0" result="BackgroundImageFix"/>
<feBlend mode="normal" in="SourceGraphic" in2="BackgroundImageFix" result="shape"/>
<feGaussianBlur stdDeviation="5.43656" result="effect1_foregroundBlur_26_566"/>
</filter>
<filter id="filter2_d_26_566" x="6.61133" y="5.02264" width="31.5103" height="26.3675" filterUnits="userSpaceOnUse" color-interpolation-filters="sRGB">
<feFlood flood-opacity="0" result="BackgroundImageFix"/>
<feColorMatrix in="SourceAlpha" type="matrix" values="0 0 0 0 0 0 0 0 0 0 0 0 0 0 0 0 0 0 127 0" result="hardAlpha"/>
<feOffset dy="-2"/>
<feGaussianBlur stdDeviation="2"/>
<feColorMatrix type="matrix" values="0 0 0 0 0 0 0 0 0 0 0 0 0 0 0 0 0 0 0.53 0"/>
<feBlend mode="normal" in2="BackgroundImageFix" result="effect1_dropShadow_26_566"/>
<feBlend mode="normal" in="SourceGraphic" in2="effect1_dropShadow_26_566" result="shape"/>
</filter>
</defs>
</svg>
