<svg width="44" height="44" viewBox="0 0 44 44" fill="none" xmlns="http://www.w3.org/2000/svg">
<g filter="url(#filter0_bdiii_38_19)">
<rect x="4.73438" y="2.57404" width="35.2656" height="35.2656" rx="12" fill="#2E2E2E" fill-opacity="0.528834"/>
</g>
<g clip-path="url(#clip0_38_19)">
<g filter="url(#filter1_d_38_19)">
<path d="M22.4123 9.18634C28.8786 9.18634 34.1221 14.4244 34.1221 20.886C34.1221 26.0553 30.7669 30.4408 26.1142 31.9879C25.529 32.0961 25.3141 31.7341 25.3141 31.425C25.3141 31.1461 25.325 30.2244 25.33 29.2468C28.5878 29.9545 29.2752 27.8663 29.2752 27.8663C29.8078 26.514 30.5753 26.1545 30.5753 26.1545C31.6377 25.4283 30.4952 25.4432 30.4952 25.4432C29.3193 25.5258 28.7002 26.6489 28.7002 26.6489C27.6558 28.4375 25.9608 27.9204 25.2926 27.6215C25.1876 26.8653 24.884 26.3492 24.5492 26.0571C27.15 25.7611 29.8842 24.7579 29.8842 20.275C29.8842 18.9977 29.4268 17.954 28.6777 17.1346C28.7993 16.8399 29.2 15.65 28.5642 14.0384C28.5642 14.0384 27.5809 13.724 25.3432 15.2377C24.4092 14.9784 23.4075 14.8485 22.4123 14.8441C21.4172 14.8485 20.4147 14.9784 19.4789 15.2377C17.2438 13.724 16.2619 14.0384 16.2619 14.0384C15.6245 15.65 16.0255 16.8399 16.1471 17.1346C15.3963 17.954 14.942 18.9976 14.942 20.275C14.942 24.7686 17.6813 25.7581 20.2888 26.0477C19.8688 26.4108 19.4946 27.1228 19.4946 28.2143C19.4946 29.7797 19.5081 31.0396 19.5081 31.425C19.5081 31.7364 19.2974 32.1012 18.7037 31.9863C14.0536 30.4375 10.7027 26.0536 10.7027 20.886C10.7027 14.4244 15.9454 9.18634 22.4123 9.18634Z" fill="#B8B8B8"/>
<path d="M22.4123 9.18634C28.8786 9.18634 34.1221 14.4244 34.1221 20.886C34.1221 26.0553 30.7669 30.4408 26.1142 31.9879C25.529 32.0961 25.3141 31.7341 25.3141 31.425C25.3141 31.1461 25.325 30.2244 25.33 29.2468C28.5878 29.9545 29.2752 27.8663 29.2752 27.8663C29.8078 26.514 30.5753 26.1545 30.5753 26.1545C31.6377 25.4283 30.4952 25.4432 30.4952 25.4432C29.3193 25.5258 28.7002 26.6489 28.7002 26.6489C27.6558 28.4375 25.9608 27.9204 25.2926 27.6215C25.1876 26.8653 24.884 26.3492 24.5492 26.0571C27.15 25.7611 29.8842 24.7579 29.8842 20.275C29.8842 18.9977 29.4268 17.954 28.6777 17.1346C28.7993 16.8399 29.2 15.65 28.5642 14.0384C28.5642 14.0384 27.5809 13.724 25.3432 15.2377C24.4092 14.9784 23.4075 14.8485 22.4123 14.8441C21.4172 14.8485 20.4147 14.9784 19.4789 15.2377C17.2438 13.724 16.2619 14.0384 16.2619 14.0384C15.6245 15.65 16.0255 16.8399 16.1471 17.1346C15.3963 17.954 14.942 18.9976 14.942 20.275C14.942 24.7686 17.6813 25.7581 20.2888 26.0477C19.8688 26.4108 19.4946 27.1228 19.4946 28.2143C19.4946 29.7797 19.5081 31.0396 19.5081 31.425C19.5081 31.7364 19.2974 32.1012 18.7037 31.9863C14.0536 30.4375 10.7027 26.0536 10.7027 20.886C10.7027 14.4244 15.9454 9.18634 22.4123 9.18634Z" fill="#B8B8B8"/>
<path d="M22.4123 9.18634C28.8786 9.18634 34.1221 14.4244 34.1221 20.886C34.1221 26.0553 30.7669 30.4408 26.1142 31.9879C25.529 32.0961 25.3141 31.7341 25.3141 31.425C25.3141 31.1461 25.325 30.2244 25.33 29.2468C28.5878 29.9545 29.2752 27.8663 29.2752 27.8663C29.8078 26.514 30.5753 26.1545 30.5753 26.1545C31.6377 25.4283 30.4952 25.4432 30.4952 25.4432C29.3193 25.5258 28.7002 26.6489 28.7002 26.6489C27.6558 28.4375 25.9608 27.9204 25.2926 27.6215C25.1876 26.8653 24.884 26.3492 24.5492 26.0571C27.15 25.7611 29.8842 24.7579 29.8842 20.275C29.8842 18.9977 29.4268 17.954 28.6777 17.1346C28.7993 16.8399 29.2 15.65 28.5642 14.0384C28.5642 14.0384 27.5809 13.724 25.3432 15.2377C24.4092 14.9784 23.4075 14.8485 22.4123 14.8441C21.4172 14.8485 20.4147 14.9784 19.4789 15.2377C17.2438 13.724 16.2619 14.0384 16.2619 14.0384C15.6245 15.65 16.0255 16.8399 16.1471 17.1346C15.3963 17.954 14.942 18.9976 14.942 20.275C14.942 24.7686 17.6813 25.7581 20.2888 26.0477C19.8688 26.4108 19.4946 27.1228 19.4946 28.2143C19.4946 29.7797 19.5081 31.0396 19.5081 31.425C19.5081 31.7364 19.2974 32.1012 18.7037 31.9863C14.0536 30.4375 10.7027 26.0536 10.7027 20.886C10.7027 14.4244 15.9454 9.18634 22.4123 9.18634Z" fill="#E0E0E0"/>
<path d="M22.4123 9.18634C28.8786 9.18634 34.1221 14.4244 34.1221 20.886C34.1221 26.0553 30.7669 30.4408 26.1142 31.9879C25.529 32.0961 25.3141 31.7341 25.3141 31.425C25.3141 31.1461 25.325 30.2244 25.33 29.2468C28.5878 29.9545 29.2752 27.8663 29.2752 27.8663C29.8078 26.514 30.5753 26.1545 30.5753 26.1545C31.6377 25.4283 30.4952 25.4432 30.4952 25.4432C29.3193 25.5258 28.7002 26.6489 28.7002 26.6489C27.6558 28.4375 25.9608 27.9204 25.2926 27.6215C25.1876 26.8653 24.884 26.3492 24.5492 26.0571C27.15 25.7611 29.8842 24.7579 29.8842 20.275C29.8842 18.9977 29.4268 17.954 28.6777 17.1346C28.7993 16.8399 29.2 15.65 28.5642 14.0384C28.5642 14.0384 27.5809 13.724 25.3432 15.2377C24.4092 14.9784 23.4075 14.8485 22.4123 14.8441C21.4172 14.8485 20.4147 14.9784 19.4789 15.2377C17.2438 13.724 16.2619 14.0384 16.2619 14.0384C15.6245 15.65 16.0255 16.8399 16.1471 17.1346C15.3963 17.954 14.942 18.9976 14.942 20.275C14.942 24.7686 17.6813 25.7581 20.2888 26.0477C19.8688 26.4108 19.4946 27.1228 19.4946 28.2143C19.4946 29.7797 19.5081 31.0396 19.5081 31.425C19.5081 31.7364 19.2974 32.1012 18.7037 31.9863C14.0536 30.4375 10.7027 26.0536 10.7027 20.886C10.7027 14.4244 15.9454 9.18634 22.4123 9.18634Z" fill="#F5F5F5"/>
</g>
<path d="M29.7362 25.8528C29.7619 25.9109 29.8535 25.9283 29.9368 25.8885C30.0218 25.8503 30.0695 25.771 30.042 25.7127C30.0167 25.6529 29.9251 25.6362 29.8403 25.6763C29.7552 25.7144 29.7067 25.7944 29.7362 25.8528V25.8528ZM29.1602 26.3663C29.216 26.418 29.3252 26.394 29.3993 26.3122C29.4759 26.2307 29.4902 26.1217 29.4336 26.0691C29.376 26.0174 29.2701 26.0415 29.1933 26.1232C29.1167 26.2057 29.1019 26.3141 29.1603 26.3664L29.1602 26.3663ZM28.765 27.0233C28.8368 27.0731 28.9542 27.0264 29.0266 26.9223C29.0984 26.8184 29.0984 26.6936 29.0251 26.6436C28.9523 26.5936 28.8368 26.6385 28.7633 26.7418C28.6917 26.8476 28.6917 26.9723 28.7651 27.0234L28.765 27.0233ZM28.0968 27.7842C28.161 27.8549 28.2976 27.836 28.3977 27.7394C28.5 27.6451 28.5286 27.5112 28.4642 27.4405C28.3993 27.3697 28.2618 27.3896 28.161 27.4853C28.0593 27.5794 28.0283 27.7143 28.0967 27.7842H28.0968ZM27.2331 28.0411C27.2613 28.1327 27.393 28.1744 27.5256 28.1355C27.6581 28.0954 27.7448 27.988 27.718 27.8954C27.6905 27.8032 27.5582 27.7598 27.4246 27.8015C27.2924 27.8414 27.2055 27.9479 27.2331 28.0411H27.2331ZM26.2501 28.1501C26.2468 28.2466 26.3593 28.3266 26.4985 28.3284C26.6386 28.3314 26.7518 28.2533 26.7533 28.1584C26.7533 28.061 26.6434 27.9817 26.5034 27.9794C26.3642 27.9766 26.2501 28.0542 26.2501 28.1501V28.1501ZM25.2845 28.1131C25.2678 28.2072 25.3646 28.3039 25.5028 28.3296C25.6388 28.3544 25.7646 28.2963 25.7819 28.203C25.7988 28.1065 25.7002 28.0099 25.5645 27.9848C25.4261 27.9608 25.3022 28.0174 25.2845 28.1131" fill="white"/>
</g>
<defs>
<filter id="filter0_bdiii_38_19" x="-6.13875" y="-8.29909" width="57.0119" height="57.0119" filterUnits="userSpaceOnUse" color-interpolation-filters="sRGB">
<feFlood flood-opacity="0" result="BackgroundImageFix"/>
<feGaussianBlur in="BackgroundImage" stdDeviation="5.43656"/>
<feComposite in2="SourceAlpha" operator="in" result="effect1_backgroundBlur_38_19"/>
<feColorMatrix in="SourceAlpha" type="matrix" values="0 0 0 0 0 0 0 0 0 0 0 0 0 0 0 0 0 0 127 0" result="hardAlpha"/>
<feOffset dy="2"/>
<feGaussianBlur stdDeviation="2"/>
<feColorMatrix type="matrix" values="0 0 0 0 0 0 0 0 0 0 0 0 0 0 0 0 0 0 0.531262 0"/>
<feBlend mode="normal" in2="effect1_backgroundBlur_38_19" result="effect2_dropShadow_38_19"/>
<feBlend mode="normal" in="SourceGraphic" in2="effect2_dropShadow_38_19" result="shape"/>
<feColorMatrix in="SourceAlpha" type="matrix" values="0 0 0 0 0 0 0 0 0 0 0 0 0 0 0 0 0 0 127 0" result="hardAlpha"/>
<feOffset dx="4" dy="4"/>
<feGaussianBlur stdDeviation="10"/>
<feComposite in2="hardAlpha" operator="arithmetic" k2="-1" k3="1"/>
<feColorMatrix type="matrix" values="0 0 0 0 1 0 0 0 0 1 0 0 0 0 1 0 0 0 0.04 0"/>
<feBlend mode="normal" in2="shape" result="effect3_innerShadow_38_19"/>
<feColorMatrix in="SourceAlpha" type="matrix" values="0 0 0 0 0 0 0 0 0 0 0 0 0 0 0 0 0 0 127 0" result="hardAlpha"/>
<feOffset dx="-4" dy="-4"/>
<feGaussianBlur stdDeviation="12"/>
<feComposite in2="hardAlpha" operator="arithmetic" k2="-1" k3="1"/>
<feColorMatrix type="matrix" values="0 0 0 0 0 0 0 0 0 0 0 0 0 0 0 0 0 0 0.32 0"/>
<feBlend mode="normal" in2="effect3_innerShadow_38_19" result="effect4_innerShadow_38_19"/>
<feColorMatrix in="SourceAlpha" type="matrix" values="0 0 0 0 0 0 0 0 0 0 0 0 0 0 0 0 0 0 127 0" result="hardAlpha"/>
<feOffset dx="1" dy="1"/>
<feGaussianBlur stdDeviation="4"/>
<feComposite in2="hardAlpha" operator="arithmetic" k2="-1" k3="1"/>
<feColorMatrix type="matrix" values="0 0 0 0 1 0 0 0 0 1 0 0 0 0 1 0 0 0 0.04 0"/>
<feBlend mode="normal" in2="effect4_innerShadow_38_19" result="effect5_innerShadow_38_19"/>
</filter>
<filter id="filter1_d_38_19" x="6.70264" y="3.18634" width="31.4194" height="30.8216" filterUnits="userSpaceOnUse" color-interpolation-filters="sRGB">
<feFlood flood-opacity="0" result="BackgroundImageFix"/>
<feColorMatrix in="SourceAlpha" type="matrix" values="0 0 0 0 0 0 0 0 0 0 0 0 0 0 0 0 0 0 127 0" result="hardAlpha"/>
<feOffset dy="-2"/>
<feGaussianBlur stdDeviation="2"/>
<feComposite in2="hardAlpha" operator="out"/>
<feColorMatrix type="matrix" values="0 0 0 0 0 0 0 0 0 0 0 0 0 0 0 0 0 0 0.53 0"/>
<feBlend mode="normal" in2="BackgroundImageFix" result="effect1_dropShadow_38_19"/>
<feBlend mode="normal" in="SourceGraphic" in2="effect1_dropShadow_38_19" result="shape"/>
</filter>
<clipPath id="clip0_38_19">
<rect width="23.5104" height="22.8512" fill="white" transform="matrix(-1 0 0 1 34.1221 9.18634)"/>
</clipPath>
</defs>
</svg>
