<svg width="48" height="47" viewBox="0 0 48 47" fill="none" xmlns="http://www.w3.org/2000/svg">
<path d="M33.3862 20.7761C33.3862 20.0023 33.3183 19.2676 33.202 18.5524H22.2456V22.9704H28.5189C28.2377 24.4202 27.4135 25.6447 26.1918 26.4774V29.4162H29.9345C32.1257 27.3688 33.3862 24.3517 33.3862 20.7761Z" fill="#4285F4"/>
<path d="M22.2471 32.2668C25.3886 32.2668 28.0162 31.2089 29.936 29.4162L26.1934 26.4774C25.1462 27.1827 23.8179 27.6137 22.2471 27.6137C19.2123 27.6137 16.6429 25.5468 15.7218 22.7549H11.8628V25.7819C13.7729 29.6219 17.6997 32.2668 22.2471 32.2668Z" fill="#34A853"/>
<path d="M15.7211 22.7549C15.4787 22.0496 15.3526 21.2953 15.3526 20.5116C15.3526 19.728 15.4884 18.9737 15.7211 18.2684V15.2414H11.8621C11.067 16.8283 10.6113 18.6112 10.6113 20.5116C10.6113 22.4121 11.067 24.1949 11.8621 25.7819L15.7211 22.7549Z" fill="#FBBC05"/>
<path d="M22.2471 13.4095C23.9633 13.4095 25.4952 14.0071 26.7072 15.1728L30.0232 11.8226C28.0162 9.92217 25.3886 8.75644 22.2471 8.75644C17.6997 8.75644 13.7729 11.4014 11.8628 15.2414L15.7218 18.2684C16.6429 15.4765 19.2123 13.4095 22.2471 13.4095Z" fill="#EA4335"/>
<g filter="url(#filter0_bdiii_26_580)">
<rect x="4.73438" y="2.87885" width="35.2656" height="35.2656" rx="12" fill="#2E2E2E" fill-opacity="0.528834"/>
</g>
<g opacity="0.528898" filter="url(#filter1_f_26_580)">
<path d="M36.3262 23.7149C36.3262 22.9411 36.2583 22.2064 36.1419 21.4912H25.1855V25.9092H31.4588C31.1776 27.3591 30.3535 28.5836 29.1318 29.4162V32.355H32.8744C35.0657 30.3077 36.3262 27.2905 36.3262 23.7149Z" fill="#4285F4"/>
</g>
<g opacity="0.528898" filter="url(#filter2_f_26_580)">
<path d="M25.1861 35.2057C28.3276 35.2057 30.9552 34.1477 32.8749 32.355L29.1323 29.4162C28.0852 30.1215 26.7568 30.5525 25.1861 30.5525C22.1513 30.5525 19.5818 28.4856 18.6607 25.6937H14.8018V28.7207C16.7119 32.5607 20.6387 35.2057 25.1861 35.2057Z" fill="#34A853"/>
</g>
<g opacity="0.528898" filter="url(#filter3_f_26_580)">
<path d="M18.6605 25.6937C18.4181 24.9884 18.2921 24.2341 18.2921 23.4505C18.2921 22.6668 18.4278 21.9125 18.6605 21.2072V18.1802H14.8016C14.0065 19.7672 13.5508 21.55 13.5508 23.4505C13.5508 25.3509 14.0065 27.1337 14.8016 28.7207L18.6605 25.6937Z" fill="#FBBC05"/>
</g>
<g opacity="0.528898" filter="url(#filter4_f_26_580)">
<path d="M25.1861 16.3483C26.9023 16.3483 28.4342 16.9459 29.6462 18.1116L32.9622 14.7614C30.9552 12.861 28.3276 11.6952 25.1861 11.6952C20.6387 11.6952 16.7119 14.3402 14.8018 18.1802L18.6607 21.2072C19.5818 18.4153 22.1513 16.3483 25.1861 16.3483Z" fill="#EA4335"/>
</g>
<g filter="url(#filter5_d_26_580)">
<path d="M33.3862 20.7761C33.3862 20.0023 33.3183 19.2676 33.202 18.5524H22.2456V22.9704H28.5189C28.2377 24.4202 27.4135 25.6447 26.1918 26.4774V29.4162H29.9345C32.1257 27.3688 33.3862 24.3517 33.3862 20.7761Z" fill="#4285F4"/>
<path d="M22.2471 32.2668C25.3886 32.2668 28.0162 31.2089 29.936 29.4162L26.1934 26.4774C25.1462 27.1827 23.8179 27.6137 22.2471 27.6137C19.2123 27.6137 16.6429 25.5468 15.7218 22.7549H11.8628V25.7819C13.7729 29.6219 17.6997 32.2668 22.2471 32.2668Z" fill="#34A853"/>
<path d="M15.7211 22.7549C15.4787 22.0496 15.3526 21.2953 15.3526 20.5116C15.3526 19.728 15.4884 18.9737 15.7211 18.2684V15.2414H11.8621C11.067 16.8283 10.6113 18.6112 10.6113 20.5116C10.6113 22.4121 11.067 24.1949 11.8621 25.7819L15.7211 22.7549Z" fill="#FBBC05"/>
<path d="M22.2471 13.4095C23.9633 13.4095 25.4952 14.0071 26.7072 15.1728L30.0232 11.8226C28.0162 9.92217 25.3886 8.75644 22.2471 8.75644C17.6997 8.75644 13.7729 11.4014 11.8628 15.2414L15.7218 18.2684C16.6429 15.4765 19.2123 13.4095 22.2471 13.4095Z" fill="#EA4335"/>
</g>
<defs>
<filter id="filter0_bdiii_26_580" x="-6.13875" y="-7.99428" width="57.0119" height="57.0119" filterUnits="userSpaceOnUse" color-interpolation-filters="sRGB">
<feFlood flood-opacity="0" result="BackgroundImageFix"/>
<feGaussianBlur in="BackgroundImage" stdDeviation="5.43656"/>
<feComposite in2="SourceAlpha" operator="in" result="effect1_backgroundBlur_26_580"/>
<feColorMatrix in="SourceAlpha" type="matrix" values="0 0 0 0 0 0 0 0 0 0 0 0 0 0 0 0 0 0 127 0" result="hardAlpha"/>
<feOffset dy="2"/>
<feGaussianBlur stdDeviation="2"/>
<feColorMatrix type="matrix" values="0 0 0 0 0 0 0 0 0 0 0 0 0 0 0 0 0 0 0.531262 0"/>
<feBlend mode="normal" in2="effect1_backgroundBlur_26_580" result="effect2_dropShadow_26_580"/>
<feBlend mode="normal" in="SourceGraphic" in2="effect2_dropShadow_26_580" result="shape"/>
<feColorMatrix in="SourceAlpha" type="matrix" values="0 0 0 0 0 0 0 0 0 0 0 0 0 0 0 0 0 0 127 0" result="hardAlpha"/>
<feOffset dx="4" dy="4"/>
<feGaussianBlur stdDeviation="10"/>
<feComposite in2="hardAlpha" operator="arithmetic" k2="-1" k3="1"/>
<feColorMatrix type="matrix" values="0 0 0 0 1 0 0 0 0 1 0 0 0 0 1 0 0 0 0.04 0"/>
<feBlend mode="normal" in2="shape" result="effect3_innerShadow_26_580"/>
<feColorMatrix in="SourceAlpha" type="matrix" values="0 0 0 0 0 0 0 0 0 0 0 0 0 0 0 0 0 0 127 0" result="hardAlpha"/>
<feOffset dx="-4" dy="-4"/>
<feGaussianBlur stdDeviation="12"/>
<feComposite in2="hardAlpha" operator="arithmetic" k2="-1" k3="1"/>
<feColorMatrix type="matrix" values="0 0 0 0 0 0 0 0 0 0 0 0 0 0 0 0 0 0 0.32 0"/>
<feBlend mode="normal" in2="effect3_innerShadow_26_580" result="effect4_innerShadow_26_580"/>
<feColorMatrix in="SourceAlpha" type="matrix" values="0 0 0 0 0 0 0 0 0 0 0 0 0 0 0 0 0 0 127 0" result="hardAlpha"/>
<feOffset dx="1" dy="1"/>
<feGaussianBlur stdDeviation="4"/>
<feComposite in2="hardAlpha" operator="arithmetic" k2="-1" k3="1"/>
<feColorMatrix type="matrix" values="0 0 0 0 1 0 0 0 0 1 0 0 0 0 1 0 0 0 0.04 0"/>
<feBlend mode="normal" in2="effect4_innerShadow_26_580" result="effect5_innerShadow_26_580"/>
</filter>
<filter id="filter1_f_26_580" x="14.3124" y="10.6181" width="32.8869" height="32.61" filterUnits="userSpaceOnUse" color-interpolation-filters="sRGB">
<feFlood flood-opacity="0" result="BackgroundImageFix"/>
<feBlend mode="normal" in="SourceGraphic" in2="BackgroundImageFix" result="shape"/>
<feGaussianBlur stdDeviation="5.43656" result="effect1_foregroundBlur_26_580"/>
</filter>
<filter id="filter2_f_26_580" x="3.92863" y="14.8206" width="39.8195" height="31.2582" filterUnits="userSpaceOnUse" color-interpolation-filters="sRGB">
<feFlood flood-opacity="0" result="BackgroundImageFix"/>
<feBlend mode="normal" in="SourceGraphic" in2="BackgroundImageFix" result="shape"/>
<feGaussianBlur stdDeviation="5.43656" result="effect1_foregroundBlur_26_580"/>
</filter>
<filter id="filter3_f_26_580" x="2.67765" y="7.30708" width="26.8561" height="32.2868" filterUnits="userSpaceOnUse" color-interpolation-filters="sRGB">
<feFlood flood-opacity="0" result="BackgroundImageFix"/>
<feBlend mode="normal" in="SourceGraphic" in2="BackgroundImageFix" result="shape"/>
<feGaussianBlur stdDeviation="5.43656" result="effect1_foregroundBlur_26_580"/>
</filter>
<filter id="filter4_f_26_580" x="3.92863" y="0.822121" width="39.9069" height="31.2582" filterUnits="userSpaceOnUse" color-interpolation-filters="sRGB">
<feFlood flood-opacity="0" result="BackgroundImageFix"/>
<feBlend mode="normal" in="SourceGraphic" in2="BackgroundImageFix" result="shape"/>
<feGaussianBlur stdDeviation="5.43656" result="effect1_foregroundBlur_26_580"/>
</filter>
<filter id="filter5_d_26_580" x="6.61133" y="2.75644" width="30.7749" height="31.5104" filterUnits="userSpaceOnUse" color-interpolation-filters="sRGB">
<feFlood flood-opacity="0" result="BackgroundImageFix"/>
<feColorMatrix in="SourceAlpha" type="matrix" values="0 0 0 0 0 0 0 0 0 0 0 0 0 0 0 0 0 0 127 0" result="hardAlpha"/>
<feOffset dy="-2"/>
<feGaussianBlur stdDeviation="2"/>
<feColorMatrix type="matrix" values="0 0 0 0 0 0 0 0 0 0 0 0 0 0 0 0 0 0 0.53 0"/>
<feBlend mode="normal" in2="BackgroundImageFix" result="effect1_dropShadow_26_580"/>
<feBlend mode="normal" in="SourceGraphic" in2="effect1_dropShadow_26_580" result="shape"/>
</filter>
</defs>
</svg>
