<svg width="48" height="47" viewBox="0 0 48 47" fill="none" xmlns="http://www.w3.org/2000/svg">
<path fill-rule="evenodd" clip-rule="evenodd" d="M21.6322 8.87759C18.4396 8.87759 18.0393 8.89113 16.7855 8.94833C15.5343 9.0054 14.6798 9.20414 13.9321 9.49475C13.159 9.79512 12.5035 10.1971 11.8499 10.8506C11.1964 11.5041 10.7945 12.1597 10.4941 12.9327C10.2035 13.6804 10.0048 14.5349 9.94769 15.7861C9.89049 17.04 9.87695 17.4403 9.87695 20.6328C9.87695 23.8253 9.89049 24.2256 9.94769 25.4795C10.0048 26.7307 10.2035 27.5852 10.4941 28.3329C10.7945 29.1059 11.1964 29.7615 11.8499 30.415C12.5035 31.0685 13.159 31.4705 13.9321 31.7709C14.6798 32.0615 15.5343 32.2602 16.7855 32.3173C18.0393 32.3745 18.4396 32.388 21.6322 32.388C24.8247 32.388 25.225 32.3745 26.4788 32.3173C27.73 32.2602 28.5845 32.0615 29.3323 31.7709C30.1053 31.4705 30.7608 31.0685 31.4144 30.415C32.0679 29.7615 32.4698 29.1059 32.7702 28.3329C33.0608 27.5852 33.2595 26.7307 33.3166 25.4795C33.3738 24.2256 33.3874 23.8253 33.3874 20.6328C33.3874 17.4403 33.3738 17.04 33.3166 15.7861C33.2595 14.5349 33.0608 13.6804 32.7702 12.9327C32.4698 12.1597 32.0679 11.5041 31.4144 10.8506C30.7608 10.1971 30.1053 9.79512 29.3323 9.49475C28.5845 9.20414 27.73 9.0054 26.4788 8.94833C25.225 8.89113 24.8247 8.87759 21.6322 8.87759ZM21.6317 10.9956C24.7704 10.9956 25.1422 11.0076 26.3818 11.0642C27.5279 11.1165 28.1503 11.308 28.5645 11.4689C29.1132 11.6822 29.5048 11.9369 29.9162 12.3483C30.3275 12.7596 30.5823 13.1512 30.7955 13.6999C30.9565 14.1141 31.148 14.7366 31.2003 15.8827C31.2568 17.1222 31.2688 17.494 31.2688 20.6328C31.2688 23.7716 31.2568 24.1434 31.2003 25.3829C31.148 26.529 30.9565 27.1515 30.7955 27.5657C30.5823 28.1144 30.3275 28.506 29.9162 28.9173C29.5048 29.3287 29.1132 29.5834 28.5645 29.7967C28.1503 29.9576 27.5279 30.1491 26.3818 30.2014C25.1424 30.258 24.7707 30.2699 21.6317 30.2699C18.4927 30.2699 18.1209 30.258 16.8815 30.2014C15.7354 30.1491 15.113 29.9576 14.6988 29.7967C14.1501 29.5834 13.7585 29.3287 13.3472 28.9173C12.9358 28.506 12.681 28.1144 12.4678 27.5657C12.3068 27.1515 12.1153 26.529 12.0631 25.3829C12.0065 24.1434 11.9945 23.7716 11.9945 20.6328C11.9945 17.494 12.0065 17.1222 12.0631 15.8827C12.1153 14.7366 12.3068 14.1141 12.4678 13.6999C12.681 13.1512 12.9358 12.7596 13.3472 12.3483C13.7585 11.9369 14.1501 11.6822 14.6988 11.4689C15.113 11.308 15.7354 11.1165 16.8815 11.0642C18.1211 11.0076 18.4929 10.9956 21.6317 10.9956V10.9956Z" fill="url(#paint0_linear_26_616)"/>
<path fill-rule="evenodd" clip-rule="evenodd" d="M21.6314 24.5512C19.4673 24.5512 17.713 22.7969 17.713 20.6328C17.713 18.4687 19.4673 16.7144 21.6314 16.7144C23.7955 16.7144 25.5498 18.4687 25.5498 20.6328C25.5498 22.7969 23.7955 24.5512 21.6314 24.5512ZM21.6317 14.5963C18.2978 14.5963 15.5952 17.2989 15.5952 20.6328C15.5952 23.9667 18.2978 26.6692 21.6317 26.6692C24.9655 26.6692 27.6681 23.9667 27.6681 20.6328C27.6681 17.2989 24.9655 14.5963 21.6317 14.5963V14.5963Z" fill="url(#paint1_linear_26_616)"/>
<path fill-rule="evenodd" clip-rule="evenodd" d="M29.3178 14.3579C29.3178 15.1369 28.6863 15.7685 27.9072 15.7685C27.1282 15.7685 26.4966 15.1369 26.4966 14.3579C26.4966 13.5788 27.1282 12.9472 27.9072 12.9472C28.6863 12.9472 29.3178 13.5788 29.3178 14.3579" fill="url(#paint2_linear_26_616)"/>
<g filter="url(#filter0_bdiii_26_616)">
<rect x="4" y="3" width="35.2656" height="35.2656" rx="12" fill="#2E2E2E" fill-opacity="0.528834"/>
</g>
<g opacity="0.529578" filter="url(#filter1_f_26_616)">
<path fill-rule="evenodd" clip-rule="evenodd" d="M24.5716 11.8164C21.3791 11.8164 20.9788 11.8299 19.725 11.8871C18.4737 11.9442 17.6192 12.1429 16.8715 12.4336C16.0985 12.7339 15.4429 13.1359 14.7894 13.7894C14.1359 14.4429 13.7339 15.0985 13.4336 15.8715C13.1429 16.6192 12.9442 17.4737 12.8871 18.725C12.8299 19.9788 12.8164 20.3791 12.8164 23.5716C12.8164 26.7641 12.8299 27.1644 12.8871 28.4183C12.9442 29.6695 13.1429 30.524 13.4336 31.2717C13.7339 32.0447 14.1359 32.7003 14.7894 33.3538C15.4429 34.0073 16.0985 34.4093 16.8715 34.7097C17.6192 35.0003 18.4737 35.199 19.725 35.2561C20.9788 35.3133 21.3791 35.3268 24.5716 35.3268C27.7641 35.3268 28.1644 35.3133 29.4183 35.2561C30.6695 35.199 31.524 35.0003 32.2717 34.7097C33.0447 34.4093 33.7003 34.0073 34.3538 33.3538C35.0073 32.7003 35.4093 32.0447 35.7097 31.2717C36.0003 30.524 36.199 29.6695 36.2561 28.4183C36.3133 27.1644 36.3268 26.7641 36.3268 23.5716C36.3268 20.3791 36.3133 19.9788 36.2561 18.725C36.199 17.4737 36.0003 16.6192 35.7097 15.8715C35.4093 15.0985 35.0073 14.4429 34.3538 13.7894C33.7003 13.1359 33.0447 12.7339 32.2717 12.4336C31.524 12.1429 30.6695 11.9442 29.4183 11.8871C28.1644 11.8299 27.7641 11.8164 24.5716 11.8164ZM24.5714 13.9345C27.7101 13.9345 28.0819 13.9465 29.3215 14.003C30.4676 14.0553 31.09 14.2468 31.5042 14.4078C32.0529 14.621 32.4445 14.8757 32.8559 15.2871C33.2672 15.6984 33.522 16.09 33.7352 16.6387C33.8962 17.053 34.0877 17.6754 34.14 18.8215C34.1965 20.061 34.2085 20.4328 34.2085 23.5716C34.2085 26.7104 34.1965 27.0822 34.14 28.3217C34.0877 29.4678 33.8962 30.0903 33.7352 30.5045C33.522 31.0532 33.2672 31.4448 32.8559 31.8561C32.4445 32.2675 32.0529 32.5222 31.5042 32.7355C31.09 32.8965 30.4676 33.088 29.3215 33.1402C28.0821 33.1968 27.7104 33.2088 24.5714 33.2088C21.4324 33.2088 21.0607 33.1968 19.8213 33.1402C18.6751 33.088 18.0527 32.8965 17.6385 32.7355C17.0898 32.5222 16.6982 32.2675 16.2869 31.8561C15.8755 31.4448 15.6208 31.0532 15.4075 30.5045C15.2465 30.0903 15.055 29.4678 15.0028 28.3217C14.9462 27.0822 14.9342 26.7104 14.9342 23.5716C14.9342 20.4328 14.9462 20.061 15.0028 18.8215C15.055 17.6754 15.2465 17.053 15.4075 16.6387C15.6208 16.09 15.8755 15.6984 16.2869 15.2871C16.6982 14.8757 17.0898 14.621 17.6385 14.4078C18.0527 14.2468 18.6751 14.0553 19.8213 14.003C21.0608 13.9465 21.4326 13.9345 24.5714 13.9345V13.9345Z" fill="url(#paint3_linear_26_616)"/>
</g>
<g opacity="0.529578" filter="url(#filter2_f_26_616)">
<path fill-rule="evenodd" clip-rule="evenodd" d="M24.5711 27.49C22.407 27.49 20.6527 25.7357 20.6527 23.5716C20.6527 21.4075 22.407 19.6532 24.5711 19.6532C26.7352 19.6532 28.4895 21.4075 28.4895 23.5716C28.4895 25.7357 26.7352 27.49 24.5711 27.49ZM24.5716 17.5352C21.2377 17.5352 18.5352 20.2377 18.5352 23.5716C18.5352 26.9055 21.2377 29.6081 24.5716 29.6081C27.9055 29.6081 30.6081 26.9055 30.6081 23.5716C30.6081 20.2377 27.9055 17.5352 24.5716 17.5352V17.5352Z" fill="url(#paint4_linear_26_616)"/>
</g>
<g opacity="0.529578" filter="url(#filter3_f_26_616)">
<path fill-rule="evenodd" clip-rule="evenodd" d="M32.2573 17.2967C32.2573 18.0758 31.6257 18.7073 30.8466 18.7073C30.0676 18.7073 29.436 18.0758 29.436 17.2967C29.436 16.5176 30.0676 15.886 30.8466 15.886C31.6257 15.886 32.2573 16.5176 32.2573 17.2967" fill="url(#paint5_linear_26_616)"/>
</g>
<g filter="url(#filter4_d_26_616)">
<path fill-rule="evenodd" clip-rule="evenodd" d="M21.6322 8.87759C18.4396 8.87759 18.0393 8.89113 16.7855 8.94833C15.5343 9.0054 14.6798 9.20414 13.9321 9.49475C13.159 9.79512 12.5035 10.1971 11.8499 10.8506C11.1964 11.5041 10.7945 12.1597 10.4941 12.9327C10.2035 13.6804 10.0048 14.5349 9.94769 15.7861C9.89049 17.04 9.87695 17.4403 9.87695 20.6328C9.87695 23.8253 9.89049 24.2256 9.94769 25.4795C10.0048 26.7307 10.2035 27.5852 10.4941 28.3329C10.7945 29.1059 11.1964 29.7615 11.8499 30.415C12.5035 31.0685 13.159 31.4705 13.9321 31.7709C14.6798 32.0615 15.5343 32.2602 16.7855 32.3173C18.0393 32.3745 18.4396 32.388 21.6322 32.388C24.8247 32.388 25.225 32.3745 26.4788 32.3173C27.73 32.2602 28.5845 32.0615 29.3323 31.7709C30.1053 31.4705 30.7608 31.0685 31.4144 30.415C32.0679 29.7615 32.4698 29.1059 32.7702 28.3329C33.0608 27.5852 33.2595 26.7307 33.3166 25.4795C33.3738 24.2256 33.3874 23.8253 33.3874 20.6328C33.3874 17.4403 33.3738 17.04 33.3166 15.7861C33.2595 14.5349 33.0608 13.6804 32.7702 12.9327C32.4698 12.1597 32.0679 11.5041 31.4144 10.8506C30.7608 10.1971 30.1053 9.79512 29.3323 9.49475C28.5845 9.20414 27.73 9.0054 26.4788 8.94833C25.225 8.89113 24.8247 8.87759 21.6322 8.87759ZM21.6317 10.9956C24.7704 10.9956 25.1422 11.0076 26.3818 11.0642C27.5279 11.1165 28.1503 11.308 28.5645 11.4689C29.1132 11.6822 29.5048 11.9369 29.9162 12.3483C30.3275 12.7596 30.5823 13.1512 30.7955 13.6999C30.9565 14.1141 31.148 14.7366 31.2003 15.8827C31.2568 17.1222 31.2688 17.494 31.2688 20.6328C31.2688 23.7716 31.2568 24.1434 31.2003 25.3829C31.148 26.529 30.9565 27.1515 30.7955 27.5657C30.5823 28.1144 30.3275 28.506 29.9162 28.9173C29.5048 29.3287 29.1132 29.5834 28.5645 29.7967C28.1503 29.9576 27.5279 30.1491 26.3818 30.2014C25.1424 30.258 24.7707 30.2699 21.6317 30.2699C18.4927 30.2699 18.1209 30.258 16.8815 30.2014C15.7354 30.1491 15.113 29.9576 14.6988 29.7967C14.1501 29.5834 13.7585 29.3287 13.3472 28.9173C12.9358 28.506 12.681 28.1144 12.4678 27.5657C12.3068 27.1515 12.1153 26.529 12.0631 25.3829C12.0065 24.1434 11.9945 23.7716 11.9945 20.6328C11.9945 17.494 12.0065 17.1222 12.0631 15.8827C12.1153 14.7366 12.3068 14.1141 12.4678 13.6999C12.681 13.1512 12.9358 12.7596 13.3472 12.3483C13.7585 11.9369 14.1501 11.6822 14.6988 11.4689C15.113 11.308 15.7354 11.1165 16.8815 11.0642C18.1211 11.0076 18.4929 10.9956 21.6317 10.9956V10.9956Z" fill="url(#paint6_linear_26_616)"/>
</g>
<g filter="url(#filter5_d_26_616)">
<path fill-rule="evenodd" clip-rule="evenodd" d="M21.6314 24.5512C19.4673 24.5512 17.713 22.7969 17.713 20.6328C17.713 18.4687 19.4673 16.7144 21.6314 16.7144C23.7955 16.7144 25.5498 18.4687 25.5498 20.6328C25.5498 22.7969 23.7955 24.5512 21.6314 24.5512ZM21.6317 14.5963C18.2978 14.5963 15.5952 17.2989 15.5952 20.6328C15.5952 23.9667 18.2978 26.6692 21.6317 26.6692C24.9655 26.6692 27.6681 23.9667 27.6681 20.6328C27.6681 17.2989 24.9655 14.5963 21.6317 14.5963V14.5963Z" fill="url(#paint7_linear_26_616)"/>
</g>
<g filter="url(#filter6_d_26_616)">
<path fill-rule="evenodd" clip-rule="evenodd" d="M29.3178 14.3579C29.3178 15.1369 28.6863 15.7685 27.9072 15.7685C27.1282 15.7685 26.4966 15.1369 26.4966 14.3579C26.4966 13.5788 27.1282 12.9472 27.9072 12.9472C28.6863 12.9472 29.3178 13.5788 29.3178 14.3579" fill="url(#paint8_linear_26_616)"/>
</g>
<defs>
<filter id="filter0_bdiii_26_616" x="-6.87313" y="-7.87313" width="57.0119" height="57.0119" filterUnits="userSpaceOnUse" color-interpolation-filters="sRGB">
<feFlood flood-opacity="0" result="BackgroundImageFix"/>
<feGaussianBlur in="BackgroundImage" stdDeviation="5.43656"/>
<feComposite in2="SourceAlpha" operator="in" result="effect1_backgroundBlur_26_616"/>
<feColorMatrix in="SourceAlpha" type="matrix" values="0 0 0 0 0 0 0 0 0 0 0 0 0 0 0 0 0 0 127 0" result="hardAlpha"/>
<feOffset dy="2"/>
<feGaussianBlur stdDeviation="2"/>
<feColorMatrix type="matrix" values="0 0 0 0 0 0 0 0 0 0 0 0 0 0 0 0 0 0 0.531262 0"/>
<feBlend mode="normal" in2="effect1_backgroundBlur_26_616" result="effect2_dropShadow_26_616"/>
<feBlend mode="normal" in="SourceGraphic" in2="effect2_dropShadow_26_616" result="shape"/>
<feColorMatrix in="SourceAlpha" type="matrix" values="0 0 0 0 0 0 0 0 0 0 0 0 0 0 0 0 0 0 127 0" result="hardAlpha"/>
<feOffset dx="4" dy="4"/>
<feGaussianBlur stdDeviation="10"/>
<feComposite in2="hardAlpha" operator="arithmetic" k2="-1" k3="1"/>
<feColorMatrix type="matrix" values="0 0 0 0 1 0 0 0 0 1 0 0 0 0 1 0 0 0 0.04 0"/>
<feBlend mode="normal" in2="shape" result="effect3_innerShadow_26_616"/>
<feColorMatrix in="SourceAlpha" type="matrix" values="0 0 0 0 0 0 0 0 0 0 0 0 0 0 0 0 0 0 127 0" result="hardAlpha"/>
<feOffset dx="-4" dy="-4"/>
<feGaussianBlur stdDeviation="12"/>
<feComposite in2="hardAlpha" operator="arithmetic" k2="-1" k3="1"/>
<feColorMatrix type="matrix" values="0 0 0 0 0 0 0 0 0 0 0 0 0 0 0 0 0 0 0.32 0"/>
<feBlend mode="normal" in2="effect3_innerShadow_26_616" result="effect4_innerShadow_26_616"/>
<feColorMatrix in="SourceAlpha" type="matrix" values="0 0 0 0 0 0 0 0 0 0 0 0 0 0 0 0 0 0 127 0" result="hardAlpha"/>
<feOffset dx="1" dy="1"/>
<feGaussianBlur stdDeviation="4"/>
<feComposite in2="hardAlpha" operator="arithmetic" k2="-1" k3="1"/>
<feColorMatrix type="matrix" values="0 0 0 0 1 0 0 0 0 1 0 0 0 0 1 0 0 0 0.04 0"/>
<feBlend mode="normal" in2="effect4_innerShadow_26_616" result="effect5_innerShadow_26_616"/>
</filter>
<filter id="filter1_f_26_616" x="1.94328" y="0.943279" width="45.2565" height="45.2567" filterUnits="userSpaceOnUse" color-interpolation-filters="sRGB">
<feFlood flood-opacity="0" result="BackgroundImageFix"/>
<feBlend mode="normal" in="SourceGraphic" in2="BackgroundImageFix" result="shape"/>
<feGaussianBlur stdDeviation="5.43656" result="effect1_foregroundBlur_26_616"/>
</filter>
<filter id="filter2_f_26_616" x="7.66203" y="6.66203" width="33.819" height="33.8192" filterUnits="userSpaceOnUse" color-interpolation-filters="sRGB">
<feFlood flood-opacity="0" result="BackgroundImageFix"/>
<feBlend mode="normal" in="SourceGraphic" in2="BackgroundImageFix" result="shape"/>
<feGaussianBlur stdDeviation="5.43656" result="effect1_foregroundBlur_26_616"/>
</filter>
<filter id="filter3_f_26_616" x="18.5629" y="5.01291" width="24.5675" height="24.5675" filterUnits="userSpaceOnUse" color-interpolation-filters="sRGB">
<feFlood flood-opacity="0" result="BackgroundImageFix"/>
<feBlend mode="normal" in="SourceGraphic" in2="BackgroundImageFix" result="shape"/>
<feGaussianBlur stdDeviation="5.43656" result="effect1_foregroundBlur_26_616"/>
</filter>
<filter id="filter4_d_26_616" x="5.87695" y="2.87759" width="31.5103" height="31.5104" filterUnits="userSpaceOnUse" color-interpolation-filters="sRGB">
<feFlood flood-opacity="0" result="BackgroundImageFix"/>
<feColorMatrix in="SourceAlpha" type="matrix" values="0 0 0 0 0 0 0 0 0 0 0 0 0 0 0 0 0 0 127 0" result="hardAlpha"/>
<feOffset dy="-2"/>
<feGaussianBlur stdDeviation="2"/>
<feColorMatrix type="matrix" values="0 0 0 0 0 0 0 0 0 0 0 0 0 0 0 0 0 0 0.53 0"/>
<feBlend mode="normal" in2="BackgroundImageFix" result="effect1_dropShadow_26_616"/>
<feBlend mode="normal" in="SourceGraphic" in2="effect1_dropShadow_26_616" result="shape"/>
</filter>
<filter id="filter5_d_26_616" x="11.5952" y="8.59634" width="20.0728" height="20.0729" filterUnits="userSpaceOnUse" color-interpolation-filters="sRGB">
<feFlood flood-opacity="0" result="BackgroundImageFix"/>
<feColorMatrix in="SourceAlpha" type="matrix" values="0 0 0 0 0 0 0 0 0 0 0 0 0 0 0 0 0 0 127 0" result="hardAlpha"/>
<feOffset dy="-2"/>
<feGaussianBlur stdDeviation="2"/>
<feColorMatrix type="matrix" values="0 0 0 0 0 0 0 0 0 0 0 0 0 0 0 0 0 0 0.53 0"/>
<feBlend mode="normal" in2="BackgroundImageFix" result="effect1_dropShadow_26_616"/>
<feBlend mode="normal" in="SourceGraphic" in2="effect1_dropShadow_26_616" result="shape"/>
</filter>
<filter id="filter6_d_26_616" x="22.4966" y="6.94722" width="10.8213" height="10.8213" filterUnits="userSpaceOnUse" color-interpolation-filters="sRGB">
<feFlood flood-opacity="0" result="BackgroundImageFix"/>
<feColorMatrix in="SourceAlpha" type="matrix" values="0 0 0 0 0 0 0 0 0 0 0 0 0 0 0 0 0 0 127 0" result="hardAlpha"/>
<feOffset dy="-2"/>
<feGaussianBlur stdDeviation="2"/>
<feColorMatrix type="matrix" values="0 0 0 0 0 0 0 0 0 0 0 0 0 0 0 0 0 0 0.53 0"/>
<feBlend mode="normal" in2="BackgroundImageFix" result="effect1_dropShadow_26_616"/>
<feBlend mode="normal" in="SourceGraphic" in2="effect1_dropShadow_26_616" result="shape"/>
</filter>
<linearGradient id="paint0_linear_26_616" x1="21.6322" y1="44.1432" x2="45.1426" y2="20.6328" gradientUnits="userSpaceOnUse">
<stop stop-color="#FFD522"/>
<stop offset="0.497382" stop-color="#F1000B"/>
<stop offset="1" stop-color="#B900B3"/>
</linearGradient>
<linearGradient id="paint1_linear_26_616" x1="21.6317" y1="32.7057" x2="33.7046" y2="20.6328" gradientUnits="userSpaceOnUse">
<stop stop-color="#FFD522"/>
<stop offset="0.497382" stop-color="#F1000B"/>
<stop offset="1" stop-color="#B900B3"/>
</linearGradient>
<linearGradient id="paint2_linear_26_616" x1="27.9072" y1="17.1791" x2="30.7285" y2="14.3578" gradientUnits="userSpaceOnUse">
<stop stop-color="#FFD522"/>
<stop offset="0.497382" stop-color="#F1000B"/>
<stop offset="1" stop-color="#B900B3"/>
</linearGradient>
<linearGradient id="paint3_linear_26_616" x1="24.5716" y1="47.082" x2="48.082" y2="23.5716" gradientUnits="userSpaceOnUse">
<stop stop-color="#FFD522"/>
<stop offset="0.497382" stop-color="#F1000B"/>
<stop offset="1" stop-color="#B900B3"/>
</linearGradient>
<linearGradient id="paint4_linear_26_616" x1="24.5716" y1="35.6445" x2="36.6445" y2="23.5716" gradientUnits="userSpaceOnUse">
<stop stop-color="#FFD522"/>
<stop offset="0.497382" stop-color="#F1000B"/>
<stop offset="1" stop-color="#B900B3"/>
</linearGradient>
<linearGradient id="paint5_linear_26_616" x1="30.8467" y1="20.1179" x2="33.6679" y2="17.2967" gradientUnits="userSpaceOnUse">
<stop stop-color="#FFD522"/>
<stop offset="0.497382" stop-color="#F1000B"/>
<stop offset="1" stop-color="#B900B3"/>
</linearGradient>
<linearGradient id="paint6_linear_26_616" x1="21.6322" y1="44.1432" x2="45.1426" y2="20.6328" gradientUnits="userSpaceOnUse">
<stop stop-color="#FFD522"/>
<stop offset="0.497382" stop-color="#F1000B"/>
<stop offset="1" stop-color="#B900B3"/>
</linearGradient>
<linearGradient id="paint7_linear_26_616" x1="21.6317" y1="32.7057" x2="33.7046" y2="20.6328" gradientUnits="userSpaceOnUse">
<stop stop-color="#FFD522"/>
<stop offset="0.497382" stop-color="#F1000B"/>
<stop offset="1" stop-color="#B900B3"/>
</linearGradient>
<linearGradient id="paint8_linear_26_616" x1="27.9072" y1="17.1791" x2="30.7285" y2="14.3578" gradientUnits="userSpaceOnUse">
<stop stop-color="#FFD522"/>
<stop offset="0.497382" stop-color="#F1000B"/>
<stop offset="1" stop-color="#B900B3"/>
</linearGradient>
</defs>
</svg>
