<svg width="68" height="68" viewBox="0 0 68 68" fill="none" xmlns="http://www.w3.org/2000/svg">
<path fill-rule="evenodd" clip-rule="evenodd" d="M19.9832 36.1852C20.3013 36.8974 20.4215 37.694 20.2146 38.4462V38.4462C19.6203 40.6064 21.5876 42.5998 23.7555 42.034L23.9312 41.9881C24.6713 41.795 25.4507 41.9063 26.1566 42.2008C27.5845 42.7965 29.1208 43.1056 30.6768 43.1057H30.6819C37.1333 43.1057 42.385 37.8787 42.3877 31.4556C42.389 28.3639 41.1562 25.3985 38.9608 23.2119C36.7653 21.0253 33.7871 19.7968 30.6816 19.7968C24.229 19.7968 18.9782 25.0227 18.9756 31.4462C18.9736 33.0832 19.3187 34.6976 19.9832 36.1852ZM25.726 39.788V39.788C25.4985 39.6537 25.2268 39.6158 24.9712 39.6825L24.545 39.7937C23.2754 40.1251 22.1233 38.9577 22.4713 37.6926L22.5562 37.3842C22.6294 37.118 22.5871 36.8333 22.4395 36.6V36.6C21.4651 35.0565 20.9495 33.2699 20.9522 31.4469C20.9543 26.108 25.3187 21.7645 30.6855 21.7645C36.059 21.7667 40.4133 26.1051 40.4112 31.4546C40.4089 36.7939 36.0444 41.1379 30.6819 41.1379H30.678C28.9356 41.138 27.2253 40.6718 25.726 39.788Z" fill="url(#paint0_linear_26_549)"/>
<path d="M27.7561 26.5761C27.5372 26.0912 27.3063 26.0815 27.0979 26.0732C26.9274 26.0659 26.7323 26.0664 26.5374 26.0664C26.2377 26.0742 25.9549 26.2062 25.7572 26.4307C25.4891 26.7221 24.7334 27.4265 24.7334 28.8591C24.7334 30.2917 25.7816 31.6762 25.9278 31.8708C26.0739 32.0654 27.9512 35.0988 30.9242 36.266C33.3949 37.2359 33.8977 37.043 34.434 36.9945C34.9703 36.946 36.1644 36.2904 36.4082 35.6103C36.652 34.9301 36.652 34.3475 36.5788 34.2259C36.5057 34.1043 36.3107 34.0318 36.0181 33.8862C35.7256 33.7405 34.2877 33.036 34.0196 32.9389C33.7514 32.8418 33.5564 32.7933 33.3614 33.0848C33.1663 33.3764 32.6061 34.0318 32.4353 34.2259C32.2644 34.42 32.094 34.4447 31.8015 34.2991C31.5089 34.1535 30.5667 33.8459 29.4494 32.854C28.5799 32.0822 27.9929 31.1291 27.8222 30.8376C27.6516 30.5461 27.8039 30.3886 27.9507 30.2434C28.082 30.113 28.2432 29.9035 28.3894 29.7335C28.5357 29.5635 28.5841 29.4421 28.6817 29.248C28.7792 29.0538 28.7304 28.8835 28.6573 28.7379C28.5841 28.5923 28.0162 27.1519 27.7561 26.5761Z" fill="url(#paint1_linear_26_549)"/>
<g filter="url(#filter0_bdiii_26_549)">
<rect x="13" y="13.9192" width="35.2656" height="35.2656" rx="12" fill="#2E2E2E" fill-opacity="0.528834"/>
</g>
<g opacity="0.528898" filter="url(#filter1_f_26_549)">
<path fill-rule="evenodd" clip-rule="evenodd" d="M22.9222 39.124C23.2403 39.8362 23.3605 40.6328 23.1536 41.385V41.385C22.5593 43.5452 24.5266 45.5386 26.6945 44.9728L26.8701 44.9269C27.6103 44.7338 28.3896 44.8451 29.0956 45.1396C30.5234 45.7353 32.0597 46.0444 33.6158 46.0445H33.6208C40.0722 46.0445 45.3239 40.8175 45.3267 34.3944C45.3279 31.3027 44.0952 28.3373 41.8997 26.1507C39.7043 23.9641 36.7261 22.7356 33.6206 22.7356C27.168 22.7356 21.9171 27.9615 21.9146 34.385C21.9125 36.022 22.2577 37.6364 22.9222 39.124ZM28.6649 42.7268V42.7268C28.4374 42.5925 28.1658 42.5545 27.9102 42.6213L27.484 42.7325C26.2144 43.0639 25.0622 41.8965 25.4103 40.6314L25.4952 40.323C25.5684 40.0568 25.526 39.7721 25.3785 39.5388V39.5388C24.4041 37.9953 23.8884 36.2087 23.8911 34.3857C23.8933 29.0468 28.2577 24.7033 33.6245 24.7033C38.9979 24.7055 43.3523 29.0439 43.3502 34.3934C43.3479 39.7327 38.9833 44.0767 33.6208 44.0767H33.617C31.8746 44.0768 30.1642 43.6106 28.6649 42.7268Z" fill="url(#paint2_linear_26_549)"/>
</g>
<g opacity="0.528898" filter="url(#filter2_f_26_549)">
<path d="M30.6951 29.5149C30.4762 29.03 30.2453 29.0203 30.0369 29.012C29.8664 29.0047 29.6712 29.0052 29.4764 29.0052C29.1767 29.013 28.8938 29.145 28.6962 29.3695C28.4281 29.6609 27.6724 30.3653 27.6724 31.7979C27.6724 33.2305 28.7206 34.615 28.8667 34.8096C29.0129 35.0042 30.8902 38.0376 33.8631 39.2048C36.3338 40.1747 36.8366 39.9818 37.373 39.9333C37.9093 39.8848 39.1034 39.2292 39.3472 38.5491C39.591 37.8689 39.5909 37.2863 39.5178 37.1647C39.4447 37.0431 39.2496 36.9706 38.9571 36.825C38.6646 36.6793 37.2267 35.9748 36.9585 35.8777C36.6904 35.7806 36.4954 35.7321 36.3003 36.0236C36.1053 36.3152 35.5451 36.9706 35.3743 37.1647C35.2034 37.3588 35.033 37.3835 34.7404 37.2379C34.4479 37.0923 33.5057 36.7847 32.3884 35.7928C31.5188 35.021 30.9318 34.0679 30.7612 33.7764C30.5906 33.4849 30.7429 33.3274 30.8896 33.1822C31.021 33.0518 31.1821 32.8423 31.3284 32.6723C31.4747 32.5023 31.5231 32.3809 31.6207 32.1868C31.7182 31.9926 31.6694 31.8223 31.5962 31.6767C31.5231 31.531 30.9551 30.0907 30.6951 29.5149Z" fill="url(#paint3_linear_26_549)"/>
</g>
<g filter="url(#filter3_d_26_549)">
<path fill-rule="evenodd" clip-rule="evenodd" d="M19.9832 36.1852C20.3013 36.8974 20.4215 37.694 20.2146 38.4462V38.4462C19.6203 40.6064 21.5876 42.5998 23.7555 42.034L23.9312 41.9881C24.6713 41.795 25.4507 41.9063 26.1566 42.2008C27.5845 42.7965 29.1208 43.1056 30.6768 43.1057H30.6819C37.1333 43.1057 42.385 37.8787 42.3877 31.4556C42.389 28.3639 41.1562 25.3985 38.9608 23.2119C36.7653 21.0253 33.7871 19.7968 30.6816 19.7968C24.229 19.7968 18.9782 25.0227 18.9756 31.4462C18.9736 33.0832 19.3187 34.6976 19.9832 36.1852ZM25.726 39.788V39.788C25.4985 39.6537 25.2268 39.6158 24.9712 39.6825L24.545 39.7937C23.2754 40.1251 22.1233 38.9577 22.4713 37.6926L22.5562 37.3842C22.6294 37.118 22.5871 36.8333 22.4395 36.6V36.6C21.4651 35.0565 20.9495 33.2699 20.9522 31.4469C20.9543 26.108 25.3187 21.7645 30.6855 21.7645C36.059 21.7667 40.4133 26.1051 40.4112 31.4546C40.4089 36.7939 36.0444 41.1379 30.6819 41.1379H30.678C28.9356 41.138 27.2253 40.6718 25.726 39.788Z" fill="url(#paint4_linear_26_549)"/>
</g>
<g filter="url(#filter4_d_26_549)">
<path d="M27.7561 26.5761C27.5372 26.0912 27.3063 26.0815 27.0979 26.0732C26.9274 26.0659 26.7323 26.0664 26.5374 26.0664C26.2377 26.0742 25.9549 26.2062 25.7572 26.4307C25.4891 26.7221 24.7334 27.4265 24.7334 28.8591C24.7334 30.2917 25.7816 31.6762 25.9278 31.8708C26.0739 32.0654 27.9512 35.0988 30.9242 36.266C33.3949 37.2359 33.8977 37.043 34.434 36.9945C34.9703 36.946 36.1644 36.2904 36.4082 35.6103C36.652 34.9301 36.652 34.3475 36.5788 34.2259C36.5057 34.1043 36.3107 34.0318 36.0181 33.8862C35.7256 33.7405 34.2877 33.036 34.0196 32.9389C33.7514 32.8418 33.5564 32.7933 33.3614 33.0848C33.1663 33.3764 32.6061 34.0318 32.4353 34.2259C32.2644 34.42 32.094 34.4447 31.8015 34.2991C31.5089 34.1535 30.5667 33.8459 29.4494 32.854C28.5799 32.0822 27.9929 31.1291 27.8222 30.8376C27.6516 30.5461 27.8039 30.3886 27.9507 30.2434C28.082 30.113 28.2432 29.9035 28.3894 29.7335C28.5357 29.5635 28.5841 29.4421 28.6817 29.248C28.7792 29.0538 28.7304 28.8835 28.6573 28.7379C28.5841 28.5923 28.0162 27.1519 27.7561 26.5761Z" fill="url(#paint5_linear_26_549)"/>
</g>
<defs>
<filter id="filter0_bdiii_26_549" x="2.12687" y="3.04609" width="57.0119" height="57.0119" filterUnits="userSpaceOnUse" color-interpolation-filters="sRGB">
<feFlood flood-opacity="0" result="BackgroundImageFix"/>
<feGaussianBlur in="BackgroundImage" stdDeviation="5.43656"/>
<feComposite in2="SourceAlpha" operator="in" result="effect1_backgroundBlur_26_549"/>
<feColorMatrix in="SourceAlpha" type="matrix" values="0 0 0 0 0 0 0 0 0 0 0 0 0 0 0 0 0 0 127 0" result="hardAlpha"/>
<feOffset dy="2"/>
<feGaussianBlur stdDeviation="2"/>
<feColorMatrix type="matrix" values="0 0 0 0 0 0 0 0 0 0 0 0 0 0 0 0 0 0 0.531262 0"/>
<feBlend mode="normal" in2="effect1_backgroundBlur_26_549" result="effect2_dropShadow_26_549"/>
<feBlend mode="normal" in="SourceGraphic" in2="effect2_dropShadow_26_549" result="shape"/>
<feColorMatrix in="SourceAlpha" type="matrix" values="0 0 0 0 0 0 0 0 0 0 0 0 0 0 0 0 0 0 127 0" result="hardAlpha"/>
<feOffset dx="4" dy="4"/>
<feGaussianBlur stdDeviation="10"/>
<feComposite in2="hardAlpha" operator="arithmetic" k2="-1" k3="1"/>
<feColorMatrix type="matrix" values="0 0 0 0 1 0 0 0 0 1 0 0 0 0 1 0 0 0 0.04 0"/>
<feBlend mode="normal" in2="shape" result="effect3_innerShadow_26_549"/>
<feColorMatrix in="SourceAlpha" type="matrix" values="0 0 0 0 0 0 0 0 0 0 0 0 0 0 0 0 0 0 127 0" result="hardAlpha"/>
<feOffset dx="-4" dy="-4"/>
<feGaussianBlur stdDeviation="12"/>
<feComposite in2="hardAlpha" operator="arithmetic" k2="-1" k3="1"/>
<feColorMatrix type="matrix" values="0 0 0 0 0 0 0 0 0 0 0 0 0 0 0 0 0 0 0.32 0"/>
<feBlend mode="normal" in2="effect3_innerShadow_26_549" result="effect4_innerShadow_26_549"/>
<feColorMatrix in="SourceAlpha" type="matrix" values="0 0 0 0 0 0 0 0 0 0 0 0 0 0 0 0 0 0 127 0" result="hardAlpha"/>
<feOffset dx="1" dy="1"/>
<feGaussianBlur stdDeviation="4"/>
<feComposite in2="hardAlpha" operator="arithmetic" k2="-1" k3="1"/>
<feColorMatrix type="matrix" values="0 0 0 0 1 0 0 0 0 1 0 0 0 0 1 0 0 0 0.04 0"/>
<feBlend mode="normal" in2="effect4_innerShadow_26_549" result="effect5_innerShadow_26_549"/>
</filter>
<filter id="filter1_f_26_549" x="0.168297" y="0.989365" width="66.9046" height="66.8014" filterUnits="userSpaceOnUse" color-interpolation-filters="sRGB">
<feFlood flood-opacity="0" result="BackgroundImageFix"/>
<feBlend mode="normal" in="SourceGraphic" in2="BackgroundImageFix" result="shape"/>
<feGaussianBlur stdDeviation="10.8731" result="effect1_foregroundBlur_26_549"/>
</filter>
<filter id="filter2_f_26_549" x="5.92611" y="7.25892" width="55.3807" height="54.4688" filterUnits="userSpaceOnUse" color-interpolation-filters="sRGB">
<feFlood flood-opacity="0" result="BackgroundImageFix"/>
<feBlend mode="normal" in="SourceGraphic" in2="BackgroundImageFix" result="shape"/>
<feGaussianBlur stdDeviation="10.8731" result="effect1_foregroundBlur_26_549"/>
</filter>
<filter id="filter3_d_26_549" x="10.9756" y="7.79682" width="39.4121" height="39.3089" filterUnits="userSpaceOnUse" color-interpolation-filters="sRGB">
<feFlood flood-opacity="0" result="BackgroundImageFix"/>
<feColorMatrix in="SourceAlpha" type="matrix" values="0 0 0 0 0 0 0 0 0 0 0 0 0 0 0 0 0 0 127 0" result="hardAlpha"/>
<feOffset dy="-4"/>
<feGaussianBlur stdDeviation="4"/>
<feColorMatrix type="matrix" values="0 0 0 0 0 0 0 0 0 0 0 0 0 0 0 0 0 0 0.53 0"/>
<feBlend mode="normal" in2="BackgroundImageFix" result="effect1_dropShadow_26_549"/>
<feBlend mode="normal" in="SourceGraphic" in2="effect1_dropShadow_26_549" result="shape"/>
</filter>
<filter id="filter4_d_26_549" x="16.7334" y="14.0664" width="27.8882" height="26.9763" filterUnits="userSpaceOnUse" color-interpolation-filters="sRGB">
<feFlood flood-opacity="0" result="BackgroundImageFix"/>
<feColorMatrix in="SourceAlpha" type="matrix" values="0 0 0 0 0 0 0 0 0 0 0 0 0 0 0 0 0 0 127 0" result="hardAlpha"/>
<feOffset dy="-4"/>
<feGaussianBlur stdDeviation="4"/>
<feColorMatrix type="matrix" values="0 0 0 0 0 0 0 0 0 0 0 0 0 0 0 0 0 0 0.53 0"/>
<feBlend mode="normal" in2="BackgroundImageFix" result="effect1_dropShadow_26_549"/>
<feBlend mode="normal" in="SourceGraphic" in2="effect1_dropShadow_26_549" result="shape"/>
</filter>
<linearGradient id="paint0_linear_26_549" x1="42.3877" y1="43.1057" x2="42.3877" y2="19.7968" gradientUnits="userSpaceOnUse">
<stop stop-color="#20B038"/>
<stop offset="1" stop-color="#60D66A"/>
</linearGradient>
<linearGradient id="paint1_linear_26_549" x1="36.6215" y1="37.0427" x2="36.6215" y2="26.0664" gradientUnits="userSpaceOnUse">
<stop stop-color="#20B038"/>
<stop offset="1" stop-color="#60D66A"/>
</linearGradient>
<linearGradient id="paint2_linear_26_549" x1="45.3267" y1="46.0445" x2="45.3267" y2="22.7356" gradientUnits="userSpaceOnUse">
<stop stop-color="#20B038"/>
<stop offset="1" stop-color="#60D66A"/>
</linearGradient>
<linearGradient id="paint3_linear_26_549" x1="39.5604" y1="39.9815" x2="39.5604" y2="29.0052" gradientUnits="userSpaceOnUse">
<stop stop-color="#20B038"/>
<stop offset="1" stop-color="#60D66A"/>
</linearGradient>
<linearGradient id="paint4_linear_26_549" x1="42.3877" y1="43.1057" x2="42.3877" y2="19.7968" gradientUnits="userSpaceOnUse">
<stop stop-color="#20B038"/>
<stop offset="1" stop-color="#60D66A"/>
</linearGradient>
<linearGradient id="paint5_linear_26_549" x1="36.6215" y1="37.0427" x2="36.6215" y2="26.0664" gradientUnits="userSpaceOnUse">
<stop stop-color="#20B038"/>
<stop offset="1" stop-color="#60D66A"/>
</linearGradient>
</defs>
</svg>
