<svg width="32" height="32" viewBox="0 0 32 32" fill="none" xmlns="http://www.w3.org/2000/svg">
<path d="M9.672 9.526L9.312 17.41H7.008L6.648 9.526H9.672ZM8.16 19.048C8.616 19.048 9 19.21 9.312 19.534C9.636 19.846 9.798 20.224 9.798 20.668C9.798 21.124 9.636 21.514 9.312 21.838C9 22.15 8.616 22.306 8.16 22.306C7.716 22.306 7.332 22.15 7.008 21.838C6.696 21.514 6.54 21.124 6.54 20.668C6.54 20.224 6.696 19.846 7.008 19.534C7.332 19.21 7.716 19.048 8.16 19.048ZM23.8782 22H20.9802L20.7642 17.122C20.7042 15.958 20.6742 14.92 20.6742 14.008C20.6742 13.312 20.6922 12.652 20.7282 12.028L18.8022 20.686H16.0122L13.9602 12.028C14.0322 13.072 14.0682 14.056 14.0682 14.98C14.0682 15.676 14.0502 16.402 14.0142 17.158L13.7982 22H10.9182L11.8542 9.526H15.5802L17.4522 17.986L19.1982 9.526H22.9422L23.8782 22Z" fill="url(#paint0_linear_38_284)"/>
<defs>
<linearGradient id="paint0_linear_38_284" x1="15.5" y1="6" x2="15.5" y2="26" gradientUnits="userSpaceOnUse">
<stop stop-color="#814CD9"/>
<stop offset="1" stop-color="#5B0F89"/>
</linearGradient>
</defs>
</svg>
