<svg width="70" height="19" viewBox="0 0 70 19" fill="none" xmlns="http://www.w3.org/2000/svg">
<mask id="path-1-outside-1_56_93" maskUnits="userSpaceOnUse" x="0" y="0" width="70" height="19" fill="black">
<rect fill="white" width="70" height="19"/>
<path d="M4.78798 1L4.35258 11.4873H1.56602L1.13062 1H4.78798ZM2.9593 13.6662C3.51081 13.6662 3.97524 13.8817 4.35258 14.3127C4.74444 14.7277 4.94037 15.2305 4.94037 15.8211C4.94037 16.4277 4.74444 16.9465 4.35258 17.3775C3.97524 17.7925 3.51081 18 2.9593 18C2.42231 18 1.95788 17.7925 1.56602 17.3775C1.18867 16.9465 1 16.4277 1 15.8211C1 15.2305 1.18867 14.7277 1.56602 14.3127C1.95788 13.8817 2.42231 13.6662 2.9593 13.6662Z"/>
<path d="M21.9696 17.593H18.4647L18.2034 11.1042C18.1308 9.55587 18.0946 8.17512 18.0946 6.96197C18.0946 6.03615 18.1163 5.15822 18.1599 4.32817L15.8305 15.8451H12.4561L9.97435 4.32817C10.0614 5.7169 10.105 7.02582 10.105 8.25493C10.105 9.18075 10.0832 10.1465 10.0397 11.1521L9.77842 17.593H6.29522L7.42726 1H11.9337L14.1977 12.2535L16.3094 1H20.8376L21.9696 17.593Z"/>
<path d="M33.2276 13.9056C33.2276 14.3845 33.2857 14.7357 33.4018 14.9592C33.5324 15.1826 33.7356 15.3502 34.0113 15.462L33.2929 17.9282C32.5818 17.8643 32.0012 17.6967 31.5513 17.4254C31.1014 17.138 30.7531 16.6911 30.5064 16.0845C29.7517 17.3615 28.5906 18 27.0232 18C25.8766 18 24.9623 17.6329 24.2801 16.8986C23.598 16.1643 23.2569 15.2066 23.2569 14.0254C23.2569 12.6366 23.7214 11.5751 24.6502 10.8408C25.5791 10.1066 26.9216 9.73944 28.6777 9.73944H29.8533V9.18873C29.8533 8.4385 29.7081 7.9277 29.4179 7.65634C29.1276 7.36901 28.6196 7.22535 27.894 7.22535C27.5166 7.22535 27.0594 7.2892 26.5225 7.4169C25.9855 7.52864 25.434 7.68826 24.8679 7.89577L24.0842 5.40563C24.8099 5.10235 25.5501 4.87089 26.3048 4.71127C27.074 4.55164 27.7851 4.47183 28.4382 4.47183C30.0927 4.47183 31.3046 4.84695 32.0738 5.59718C32.843 6.34742 33.2276 7.47277 33.2276 8.97324V13.9056ZM28.0246 15.2944C28.8083 15.2944 29.4179 14.8873 29.8533 14.0732V11.8225H29.0042C28.2205 11.8225 27.6327 11.9742 27.2409 12.2775C26.8635 12.5808 26.6748 13.0516 26.6748 13.6901C26.6748 14.2009 26.7909 14.6 27.0232 14.8873C27.2699 15.1587 27.6037 15.2944 28.0246 15.2944Z"/>
<path d="M42.7379 4.47183C43.7393 4.47183 44.523 4.80704 45.089 5.47746C45.6551 6.14789 45.9381 7.08967 45.9381 8.30282V17.593H42.4984V8.9493C42.4984 8.3108 42.4041 7.87183 42.2154 7.63239C42.0412 7.377 41.7727 7.2493 41.4099 7.2493C40.7133 7.2493 40.0457 7.8 39.4071 8.90141V17.593H35.9674V4.87887H38.9717L39.2111 6.38732C39.7046 5.74883 40.2343 5.26995 40.8003 4.9507C41.3809 4.63146 42.0267 4.47183 42.7379 4.47183Z"/>
<path d="M56.6739 4.87887V7.53662L51.4491 14.7197H56.7828L56.478 17.593H47.4652V14.9113L52.7118 7.72817H47.9224V4.87887H56.6739Z"/>
<path d="M63.3398 4.47183C65.1104 4.47183 66.4964 5.07042 67.4979 6.26761C68.4993 7.44883 69 9.10892 69 11.2479C69 12.6047 68.7678 13.7939 68.3034 14.8155C67.8534 15.8211 67.2003 16.6033 66.3441 17.162C65.5023 17.7207 64.5009 18 63.3398 18C61.5837 18 60.1977 17.4094 59.1817 16.2282C58.1803 15.031 57.6796 13.3629 57.6796 11.2239C57.6796 9.86714 57.9046 8.68592 58.3545 7.68028C58.8189 6.65869 59.472 5.86854 60.3138 5.30986C61.1701 4.75117 62.1787 4.47183 63.3398 4.47183ZM63.3398 7.2493C62.6432 7.2493 62.1207 7.57653 61.7724 8.23099C61.424 8.86948 61.2499 9.86714 61.2499 11.2239C61.2499 12.6127 61.4168 13.6263 61.7506 14.2648C62.0989 14.9033 62.6286 15.2225 63.3398 15.2225C64.0364 15.2225 64.5589 14.9033 64.9072 14.2648C65.2556 13.6103 65.4297 12.6047 65.4297 11.2479C65.4297 9.85915 65.2556 8.84554 64.9072 8.20704C64.5734 7.56854 64.0509 7.2493 63.3398 7.2493Z"/>
</mask>
<path d="M4.78798 1L4.35258 11.4873H1.56602L1.13062 1H4.78798ZM2.9593 13.6662C3.51081 13.6662 3.97524 13.8817 4.35258 14.3127C4.74444 14.7277 4.94037 15.2305 4.94037 15.8211C4.94037 16.4277 4.74444 16.9465 4.35258 17.3775C3.97524 17.7925 3.51081 18 2.9593 18C2.42231 18 1.95788 17.7925 1.56602 17.3775C1.18867 16.9465 1 16.4277 1 15.8211C1 15.2305 1.18867 14.7277 1.56602 14.3127C1.95788 13.8817 2.42231 13.6662 2.9593 13.6662Z" fill="#B8B8B8"/>
<path d="M4.78798 1L4.35258 11.4873H1.56602L1.13062 1H4.78798ZM2.9593 13.6662C3.51081 13.6662 3.97524 13.8817 4.35258 14.3127C4.74444 14.7277 4.94037 15.2305 4.94037 15.8211C4.94037 16.4277 4.74444 16.9465 4.35258 17.3775C3.97524 17.7925 3.51081 18 2.9593 18C2.42231 18 1.95788 17.7925 1.56602 17.3775C1.18867 16.9465 1 16.4277 1 15.8211C1 15.2305 1.18867 14.7277 1.56602 14.3127C1.95788 13.8817 2.42231 13.6662 2.9593 13.6662Z" fill="#B8B8B8"/>
<path d="M4.78798 1L4.35258 11.4873H1.56602L1.13062 1H4.78798ZM2.9593 13.6662C3.51081 13.6662 3.97524 13.8817 4.35258 14.3127C4.74444 14.7277 4.94037 15.2305 4.94037 15.8211C4.94037 16.4277 4.74444 16.9465 4.35258 17.3775C3.97524 17.7925 3.51081 18 2.9593 18C2.42231 18 1.95788 17.7925 1.56602 17.3775C1.18867 16.9465 1 16.4277 1 15.8211C1 15.2305 1.18867 14.7277 1.56602 14.3127C1.95788 13.8817 2.42231 13.6662 2.9593 13.6662Z" fill="#E0E0E0"/>
<path d="M4.78798 1L4.35258 11.4873H1.56602L1.13062 1H4.78798ZM2.9593 13.6662C3.51081 13.6662 3.97524 13.8817 4.35258 14.3127C4.74444 14.7277 4.94037 15.2305 4.94037 15.8211C4.94037 16.4277 4.74444 16.9465 4.35258 17.3775C3.97524 17.7925 3.51081 18 2.9593 18C2.42231 18 1.95788 17.7925 1.56602 17.3775C1.18867 16.9465 1 16.4277 1 15.8211C1 15.2305 1.18867 14.7277 1.56602 14.3127C1.95788 13.8817 2.42231 13.6662 2.9593 13.6662Z" fill="url(#paint0_linear_56_93)"/>
<path d="M21.9696 17.593H18.4647L18.2034 11.1042C18.1308 9.55587 18.0946 8.17512 18.0946 6.96197C18.0946 6.03615 18.1163 5.15822 18.1599 4.32817L15.8305 15.8451H12.4561L9.97435 4.32817C10.0614 5.7169 10.105 7.02582 10.105 8.25493C10.105 9.18075 10.0832 10.1465 10.0397 11.1521L9.77842 17.593H6.29522L7.42726 1H11.9337L14.1977 12.2535L16.3094 1H20.8376L21.9696 17.593Z" fill="#B8B8B8"/>
<path d="M21.9696 17.593H18.4647L18.2034 11.1042C18.1308 9.55587 18.0946 8.17512 18.0946 6.96197C18.0946 6.03615 18.1163 5.15822 18.1599 4.32817L15.8305 15.8451H12.4561L9.97435 4.32817C10.0614 5.7169 10.105 7.02582 10.105 8.25493C10.105 9.18075 10.0832 10.1465 10.0397 11.1521L9.77842 17.593H6.29522L7.42726 1H11.9337L14.1977 12.2535L16.3094 1H20.8376L21.9696 17.593Z" fill="#B8B8B8"/>
<path d="M21.9696 17.593H18.4647L18.2034 11.1042C18.1308 9.55587 18.0946 8.17512 18.0946 6.96197C18.0946 6.03615 18.1163 5.15822 18.1599 4.32817L15.8305 15.8451H12.4561L9.97435 4.32817C10.0614 5.7169 10.105 7.02582 10.105 8.25493C10.105 9.18075 10.0832 10.1465 10.0397 11.1521L9.77842 17.593H6.29522L7.42726 1H11.9337L14.1977 12.2535L16.3094 1H20.8376L21.9696 17.593Z" fill="#E0E0E0"/>
<path d="M21.9696 17.593H18.4647L18.2034 11.1042C18.1308 9.55587 18.0946 8.17512 18.0946 6.96197C18.0946 6.03615 18.1163 5.15822 18.1599 4.32817L15.8305 15.8451H12.4561L9.97435 4.32817C10.0614 5.7169 10.105 7.02582 10.105 8.25493C10.105 9.18075 10.0832 10.1465 10.0397 11.1521L9.77842 17.593H6.29522L7.42726 1H11.9337L14.1977 12.2535L16.3094 1H20.8376L21.9696 17.593Z" fill="url(#paint1_linear_56_93)"/>
<path d="M33.2276 13.9056C33.2276 14.3845 33.2857 14.7357 33.4018 14.9592C33.5324 15.1826 33.7356 15.3502 34.0113 15.462L33.2929 17.9282C32.5818 17.8643 32.0012 17.6967 31.5513 17.4254C31.1014 17.138 30.7531 16.6911 30.5064 16.0845C29.7517 17.3615 28.5906 18 27.0232 18C25.8766 18 24.9623 17.6329 24.2801 16.8986C23.598 16.1643 23.2569 15.2066 23.2569 14.0254C23.2569 12.6366 23.7214 11.5751 24.6502 10.8408C25.5791 10.1066 26.9216 9.73944 28.6777 9.73944H29.8533V9.18873C29.8533 8.4385 29.7081 7.9277 29.4179 7.65634C29.1276 7.36901 28.6196 7.22535 27.894 7.22535C27.5166 7.22535 27.0594 7.2892 26.5225 7.4169C25.9855 7.52864 25.434 7.68826 24.8679 7.89577L24.0842 5.40563C24.8099 5.10235 25.5501 4.87089 26.3048 4.71127C27.074 4.55164 27.7851 4.47183 28.4382 4.47183C30.0927 4.47183 31.3046 4.84695 32.0738 5.59718C32.843 6.34742 33.2276 7.47277 33.2276 8.97324V13.9056ZM28.0246 15.2944C28.8083 15.2944 29.4179 14.8873 29.8533 14.0732V11.8225H29.0042C28.2205 11.8225 27.6327 11.9742 27.2409 12.2775C26.8635 12.5808 26.6748 13.0516 26.6748 13.6901C26.6748 14.2009 26.7909 14.6 27.0232 14.8873C27.2699 15.1587 27.6037 15.2944 28.0246 15.2944Z" fill="#B8B8B8"/>
<path d="M33.2276 13.9056C33.2276 14.3845 33.2857 14.7357 33.4018 14.9592C33.5324 15.1826 33.7356 15.3502 34.0113 15.462L33.2929 17.9282C32.5818 17.8643 32.0012 17.6967 31.5513 17.4254C31.1014 17.138 30.7531 16.6911 30.5064 16.0845C29.7517 17.3615 28.5906 18 27.0232 18C25.8766 18 24.9623 17.6329 24.2801 16.8986C23.598 16.1643 23.2569 15.2066 23.2569 14.0254C23.2569 12.6366 23.7214 11.5751 24.6502 10.8408C25.5791 10.1066 26.9216 9.73944 28.6777 9.73944H29.8533V9.18873C29.8533 8.4385 29.7081 7.9277 29.4179 7.65634C29.1276 7.36901 28.6196 7.22535 27.894 7.22535C27.5166 7.22535 27.0594 7.2892 26.5225 7.4169C25.9855 7.52864 25.434 7.68826 24.8679 7.89577L24.0842 5.40563C24.8099 5.10235 25.5501 4.87089 26.3048 4.71127C27.074 4.55164 27.7851 4.47183 28.4382 4.47183C30.0927 4.47183 31.3046 4.84695 32.0738 5.59718C32.843 6.34742 33.2276 7.47277 33.2276 8.97324V13.9056ZM28.0246 15.2944C28.8083 15.2944 29.4179 14.8873 29.8533 14.0732V11.8225H29.0042C28.2205 11.8225 27.6327 11.9742 27.2409 12.2775C26.8635 12.5808 26.6748 13.0516 26.6748 13.6901C26.6748 14.2009 26.7909 14.6 27.0232 14.8873C27.2699 15.1587 27.6037 15.2944 28.0246 15.2944Z" fill="#B8B8B8"/>
<path d="M33.2276 13.9056C33.2276 14.3845 33.2857 14.7357 33.4018 14.9592C33.5324 15.1826 33.7356 15.3502 34.0113 15.462L33.2929 17.9282C32.5818 17.8643 32.0012 17.6967 31.5513 17.4254C31.1014 17.138 30.7531 16.6911 30.5064 16.0845C29.7517 17.3615 28.5906 18 27.0232 18C25.8766 18 24.9623 17.6329 24.2801 16.8986C23.598 16.1643 23.2569 15.2066 23.2569 14.0254C23.2569 12.6366 23.7214 11.5751 24.6502 10.8408C25.5791 10.1066 26.9216 9.73944 28.6777 9.73944H29.8533V9.18873C29.8533 8.4385 29.7081 7.9277 29.4179 7.65634C29.1276 7.36901 28.6196 7.22535 27.894 7.22535C27.5166 7.22535 27.0594 7.2892 26.5225 7.4169C25.9855 7.52864 25.434 7.68826 24.8679 7.89577L24.0842 5.40563C24.8099 5.10235 25.5501 4.87089 26.3048 4.71127C27.074 4.55164 27.7851 4.47183 28.4382 4.47183C30.0927 4.47183 31.3046 4.84695 32.0738 5.59718C32.843 6.34742 33.2276 7.47277 33.2276 8.97324V13.9056ZM28.0246 15.2944C28.8083 15.2944 29.4179 14.8873 29.8533 14.0732V11.8225H29.0042C28.2205 11.8225 27.6327 11.9742 27.2409 12.2775C26.8635 12.5808 26.6748 13.0516 26.6748 13.6901C26.6748 14.2009 26.7909 14.6 27.0232 14.8873C27.2699 15.1587 27.6037 15.2944 28.0246 15.2944Z" fill="#E0E0E0"/>
<path d="M33.2276 13.9056C33.2276 14.3845 33.2857 14.7357 33.4018 14.9592C33.5324 15.1826 33.7356 15.3502 34.0113 15.462L33.2929 17.9282C32.5818 17.8643 32.0012 17.6967 31.5513 17.4254C31.1014 17.138 30.7531 16.6911 30.5064 16.0845C29.7517 17.3615 28.5906 18 27.0232 18C25.8766 18 24.9623 17.6329 24.2801 16.8986C23.598 16.1643 23.2569 15.2066 23.2569 14.0254C23.2569 12.6366 23.7214 11.5751 24.6502 10.8408C25.5791 10.1066 26.9216 9.73944 28.6777 9.73944H29.8533V9.18873C29.8533 8.4385 29.7081 7.9277 29.4179 7.65634C29.1276 7.36901 28.6196 7.22535 27.894 7.22535C27.5166 7.22535 27.0594 7.2892 26.5225 7.4169C25.9855 7.52864 25.434 7.68826 24.8679 7.89577L24.0842 5.40563C24.8099 5.10235 25.5501 4.87089 26.3048 4.71127C27.074 4.55164 27.7851 4.47183 28.4382 4.47183C30.0927 4.47183 31.3046 4.84695 32.0738 5.59718C32.843 6.34742 33.2276 7.47277 33.2276 8.97324V13.9056ZM28.0246 15.2944C28.8083 15.2944 29.4179 14.8873 29.8533 14.0732V11.8225H29.0042C28.2205 11.8225 27.6327 11.9742 27.2409 12.2775C26.8635 12.5808 26.6748 13.0516 26.6748 13.6901C26.6748 14.2009 26.7909 14.6 27.0232 14.8873C27.2699 15.1587 27.6037 15.2944 28.0246 15.2944Z" fill="url(#paint2_linear_56_93)"/>
<path d="M42.7379 4.47183C43.7393 4.47183 44.523 4.80704 45.089 5.47746C45.6551 6.14789 45.9381 7.08967 45.9381 8.30282V17.593H42.4984V8.9493C42.4984 8.3108 42.4041 7.87183 42.2154 7.63239C42.0412 7.377 41.7727 7.2493 41.4099 7.2493C40.7133 7.2493 40.0457 7.8 39.4071 8.90141V17.593H35.9674V4.87887H38.9717L39.2111 6.38732C39.7046 5.74883 40.2343 5.26995 40.8003 4.9507C41.3809 4.63146 42.0267 4.47183 42.7379 4.47183Z" fill="#B8B8B8"/>
<path d="M42.7379 4.47183C43.7393 4.47183 44.523 4.80704 45.089 5.47746C45.6551 6.14789 45.9381 7.08967 45.9381 8.30282V17.593H42.4984V8.9493C42.4984 8.3108 42.4041 7.87183 42.2154 7.63239C42.0412 7.377 41.7727 7.2493 41.4099 7.2493C40.7133 7.2493 40.0457 7.8 39.4071 8.90141V17.593H35.9674V4.87887H38.9717L39.2111 6.38732C39.7046 5.74883 40.2343 5.26995 40.8003 4.9507C41.3809 4.63146 42.0267 4.47183 42.7379 4.47183Z" fill="#B8B8B8"/>
<path d="M42.7379 4.47183C43.7393 4.47183 44.523 4.80704 45.089 5.47746C45.6551 6.14789 45.9381 7.08967 45.9381 8.30282V17.593H42.4984V8.9493C42.4984 8.3108 42.4041 7.87183 42.2154 7.63239C42.0412 7.377 41.7727 7.2493 41.4099 7.2493C40.7133 7.2493 40.0457 7.8 39.4071 8.90141V17.593H35.9674V4.87887H38.9717L39.2111 6.38732C39.7046 5.74883 40.2343 5.26995 40.8003 4.9507C41.3809 4.63146 42.0267 4.47183 42.7379 4.47183Z" fill="#E0E0E0"/>
<path d="M42.7379 4.47183C43.7393 4.47183 44.523 4.80704 45.089 5.47746C45.6551 6.14789 45.9381 7.08967 45.9381 8.30282V17.593H42.4984V8.9493C42.4984 8.3108 42.4041 7.87183 42.2154 7.63239C42.0412 7.377 41.7727 7.2493 41.4099 7.2493C40.7133 7.2493 40.0457 7.8 39.4071 8.90141V17.593H35.9674V4.87887H38.9717L39.2111 6.38732C39.7046 5.74883 40.2343 5.26995 40.8003 4.9507C41.3809 4.63146 42.0267 4.47183 42.7379 4.47183Z" fill="url(#paint3_linear_56_93)"/>
<path d="M56.6739 4.87887V7.53662L51.4491 14.7197H56.7828L56.478 17.593H47.4652V14.9113L52.7118 7.72817H47.9224V4.87887H56.6739Z" fill="#B8B8B8"/>
<path d="M56.6739 4.87887V7.53662L51.4491 14.7197H56.7828L56.478 17.593H47.4652V14.9113L52.7118 7.72817H47.9224V4.87887H56.6739Z" fill="#B8B8B8"/>
<path d="M56.6739 4.87887V7.53662L51.4491 14.7197H56.7828L56.478 17.593H47.4652V14.9113L52.7118 7.72817H47.9224V4.87887H56.6739Z" fill="#E0E0E0"/>
<path d="M56.6739 4.87887V7.53662L51.4491 14.7197H56.7828L56.478 17.593H47.4652V14.9113L52.7118 7.72817H47.9224V4.87887H56.6739Z" fill="url(#paint4_linear_56_93)"/>
<path d="M63.3398 4.47183C65.1104 4.47183 66.4964 5.07042 67.4979 6.26761C68.4993 7.44883 69 9.10892 69 11.2479C69 12.6047 68.7678 13.7939 68.3034 14.8155C67.8534 15.8211 67.2003 16.6033 66.3441 17.162C65.5023 17.7207 64.5009 18 63.3398 18C61.5837 18 60.1977 17.4094 59.1817 16.2282C58.1803 15.031 57.6796 13.3629 57.6796 11.2239C57.6796 9.86714 57.9046 8.68592 58.3545 7.68028C58.8189 6.65869 59.472 5.86854 60.3138 5.30986C61.1701 4.75117 62.1787 4.47183 63.3398 4.47183ZM63.3398 7.2493C62.6432 7.2493 62.1207 7.57653 61.7724 8.23099C61.424 8.86948 61.2499 9.86714 61.2499 11.2239C61.2499 12.6127 61.4168 13.6263 61.7506 14.2648C62.0989 14.9033 62.6286 15.2225 63.3398 15.2225C64.0364 15.2225 64.5589 14.9033 64.9072 14.2648C65.2556 13.6103 65.4297 12.6047 65.4297 11.2479C65.4297 9.85915 65.2556 8.84554 64.9072 8.20704C64.5734 7.56854 64.0509 7.2493 63.3398 7.2493Z" fill="#B8B8B8"/>
<path d="M63.3398 4.47183C65.1104 4.47183 66.4964 5.07042 67.4979 6.26761C68.4993 7.44883 69 9.10892 69 11.2479C69 12.6047 68.7678 13.7939 68.3034 14.8155C67.8534 15.8211 67.2003 16.6033 66.3441 17.162C65.5023 17.7207 64.5009 18 63.3398 18C61.5837 18 60.1977 17.4094 59.1817 16.2282C58.1803 15.031 57.6796 13.3629 57.6796 11.2239C57.6796 9.86714 57.9046 8.68592 58.3545 7.68028C58.8189 6.65869 59.472 5.86854 60.3138 5.30986C61.1701 4.75117 62.1787 4.47183 63.3398 4.47183ZM63.3398 7.2493C62.6432 7.2493 62.1207 7.57653 61.7724 8.23099C61.424 8.86948 61.2499 9.86714 61.2499 11.2239C61.2499 12.6127 61.4168 13.6263 61.7506 14.2648C62.0989 14.9033 62.6286 15.2225 63.3398 15.2225C64.0364 15.2225 64.5589 14.9033 64.9072 14.2648C65.2556 13.6103 65.4297 12.6047 65.4297 11.2479C65.4297 9.85915 65.2556 8.84554 64.9072 8.20704C64.5734 7.56854 64.0509 7.2493 63.3398 7.2493Z" fill="#B8B8B8"/>
<path d="M63.3398 4.47183C65.1104 4.47183 66.4964 5.07042 67.4979 6.26761C68.4993 7.44883 69 9.10892 69 11.2479C69 12.6047 68.7678 13.7939 68.3034 14.8155C67.8534 15.8211 67.2003 16.6033 66.3441 17.162C65.5023 17.7207 64.5009 18 63.3398 18C61.5837 18 60.1977 17.4094 59.1817 16.2282C58.1803 15.031 57.6796 13.3629 57.6796 11.2239C57.6796 9.86714 57.9046 8.68592 58.3545 7.68028C58.8189 6.65869 59.472 5.86854 60.3138 5.30986C61.1701 4.75117 62.1787 4.47183 63.3398 4.47183ZM63.3398 7.2493C62.6432 7.2493 62.1207 7.57653 61.7724 8.23099C61.424 8.86948 61.2499 9.86714 61.2499 11.2239C61.2499 12.6127 61.4168 13.6263 61.7506 14.2648C62.0989 14.9033 62.6286 15.2225 63.3398 15.2225C64.0364 15.2225 64.5589 14.9033 64.9072 14.2648C65.2556 13.6103 65.4297 12.6047 65.4297 11.2479C65.4297 9.85915 65.2556 8.84554 64.9072 8.20704C64.5734 7.56854 64.0509 7.2493 63.3398 7.2493Z" fill="#E0E0E0"/>
<path d="M63.3398 4.47183C65.1104 4.47183 66.4964 5.07042 67.4979 6.26761C68.4993 7.44883 69 9.10892 69 11.2479C69 12.6047 68.7678 13.7939 68.3034 14.8155C67.8534 15.8211 67.2003 16.6033 66.3441 17.162C65.5023 17.7207 64.5009 18 63.3398 18C61.5837 18 60.1977 17.4094 59.1817 16.2282C58.1803 15.031 57.6796 13.3629 57.6796 11.2239C57.6796 9.86714 57.9046 8.68592 58.3545 7.68028C58.8189 6.65869 59.472 5.86854 60.3138 5.30986C61.1701 4.75117 62.1787 4.47183 63.3398 4.47183ZM63.3398 7.2493C62.6432 7.2493 62.1207 7.57653 61.7724 8.23099C61.424 8.86948 61.2499 9.86714 61.2499 11.2239C61.2499 12.6127 61.4168 13.6263 61.7506 14.2648C62.0989 14.9033 62.6286 15.2225 63.3398 15.2225C64.0364 15.2225 64.5589 14.9033 64.9072 14.2648C65.2556 13.6103 65.4297 12.6047 65.4297 11.2479C65.4297 9.85915 65.2556 8.84554 64.9072 8.20704C64.5734 7.56854 64.0509 7.2493 63.3398 7.2493Z" fill="url(#paint5_linear_56_93)"/>
<path d="M4.78798 1L4.35258 11.4873H1.56602L1.13062 1H4.78798ZM2.9593 13.6662C3.51081 13.6662 3.97524 13.8817 4.35258 14.3127C4.74444 14.7277 4.94037 15.2305 4.94037 15.8211C4.94037 16.4277 4.74444 16.9465 4.35258 17.3775C3.97524 17.7925 3.51081 18 2.9593 18C2.42231 18 1.95788 17.7925 1.56602 17.3775C1.18867 16.9465 1 16.4277 1 15.8211C1 15.2305 1.18867 14.7277 1.56602 14.3127C1.95788 13.8817 2.42231 13.6662 2.9593 13.6662Z" stroke="#180030" stroke-width="2" mask="url(#path-1-outside-1_56_93)"/>
<path d="M21.9696 17.593H18.4647L18.2034 11.1042C18.1308 9.55587 18.0946 8.17512 18.0946 6.96197C18.0946 6.03615 18.1163 5.15822 18.1599 4.32817L15.8305 15.8451H12.4561L9.97435 4.32817C10.0614 5.7169 10.105 7.02582 10.105 8.25493C10.105 9.18075 10.0832 10.1465 10.0397 11.1521L9.77842 17.593H6.29522L7.42726 1H11.9337L14.1977 12.2535L16.3094 1H20.8376L21.9696 17.593Z" stroke="#180030" stroke-width="2" mask="url(#path-1-outside-1_56_93)"/>
<path d="M33.2276 13.9056C33.2276 14.3845 33.2857 14.7357 33.4018 14.9592C33.5324 15.1826 33.7356 15.3502 34.0113 15.462L33.2929 17.9282C32.5818 17.8643 32.0012 17.6967 31.5513 17.4254C31.1014 17.138 30.7531 16.6911 30.5064 16.0845C29.7517 17.3615 28.5906 18 27.0232 18C25.8766 18 24.9623 17.6329 24.2801 16.8986C23.598 16.1643 23.2569 15.2066 23.2569 14.0254C23.2569 12.6366 23.7214 11.5751 24.6502 10.8408C25.5791 10.1066 26.9216 9.73944 28.6777 9.73944H29.8533V9.18873C29.8533 8.4385 29.7081 7.9277 29.4179 7.65634C29.1276 7.36901 28.6196 7.22535 27.894 7.22535C27.5166 7.22535 27.0594 7.2892 26.5225 7.4169C25.9855 7.52864 25.434 7.68826 24.8679 7.89577L24.0842 5.40563C24.8099 5.10235 25.5501 4.87089 26.3048 4.71127C27.074 4.55164 27.7851 4.47183 28.4382 4.47183C30.0927 4.47183 31.3046 4.84695 32.0738 5.59718C32.843 6.34742 33.2276 7.47277 33.2276 8.97324V13.9056ZM28.0246 15.2944C28.8083 15.2944 29.4179 14.8873 29.8533 14.0732V11.8225H29.0042C28.2205 11.8225 27.6327 11.9742 27.2409 12.2775C26.8635 12.5808 26.6748 13.0516 26.6748 13.6901C26.6748 14.2009 26.7909 14.6 27.0232 14.8873C27.2699 15.1587 27.6037 15.2944 28.0246 15.2944Z" stroke="#180030" stroke-width="2" mask="url(#path-1-outside-1_56_93)"/>
<path d="M42.7379 4.47183C43.7393 4.47183 44.523 4.80704 45.089 5.47746C45.6551 6.14789 45.9381 7.08967 45.9381 8.30282V17.593H42.4984V8.9493C42.4984 8.3108 42.4041 7.87183 42.2154 7.63239C42.0412 7.377 41.7727 7.2493 41.4099 7.2493C40.7133 7.2493 40.0457 7.8 39.4071 8.90141V17.593H35.9674V4.87887H38.9717L39.2111 6.38732C39.7046 5.74883 40.2343 5.26995 40.8003 4.9507C41.3809 4.63146 42.0267 4.47183 42.7379 4.47183Z" stroke="#180030" stroke-width="2" mask="url(#path-1-outside-1_56_93)"/>
<path d="M56.6739 4.87887V7.53662L51.4491 14.7197H56.7828L56.478 17.593H47.4652V14.9113L52.7118 7.72817H47.9224V4.87887H56.6739Z" stroke="#180030" stroke-width="2" mask="url(#path-1-outside-1_56_93)"/>
<path d="M63.3398 4.47183C65.1104 4.47183 66.4964 5.07042 67.4979 6.26761C68.4993 7.44883 69 9.10892 69 11.2479C69 12.6047 68.7678 13.7939 68.3034 14.8155C67.8534 15.8211 67.2003 16.6033 66.3441 17.162C65.5023 17.7207 64.5009 18 63.3398 18C61.5837 18 60.1977 17.4094 59.1817 16.2282C58.1803 15.031 57.6796 13.3629 57.6796 11.2239C57.6796 9.86714 57.9046 8.68592 58.3545 7.68028C58.8189 6.65869 59.472 5.86854 60.3138 5.30986C61.1701 4.75117 62.1787 4.47183 63.3398 4.47183ZM63.3398 7.2493C62.6432 7.2493 62.1207 7.57653 61.7724 8.23099C61.424 8.86948 61.2499 9.86714 61.2499 11.2239C61.2499 12.6127 61.4168 13.6263 61.7506 14.2648C62.0989 14.9033 62.6286 15.2225 63.3398 15.2225C64.0364 15.2225 64.5589 14.9033 64.9072 14.2648C65.2556 13.6103 65.4297 12.6047 65.4297 11.2479C65.4297 9.85915 65.2556 8.84554 64.9072 8.20704C64.5734 7.56854 64.0509 7.2493 63.3398 7.2493Z" stroke="#180030" stroke-width="2" mask="url(#path-1-outside-1_56_93)"/>
<defs>
<linearGradient id="paint0_linear_56_93" x1="4.69333" y1="-5.0205" x2="43.1461" y2="14.0057" gradientUnits="userSpaceOnUse">
<stop stop-color="#814CD9"/>
<stop offset="1" stop-color="#5B0F89"/>
</linearGradient>
<linearGradient id="paint1_linear_56_93" x1="4.69333" y1="-5.0205" x2="43.1461" y2="14.0057" gradientUnits="userSpaceOnUse">
<stop stop-color="#814CD9"/>
<stop offset="1" stop-color="#5B0F89"/>
</linearGradient>
<linearGradient id="paint2_linear_56_93" x1="4.69333" y1="-5.0205" x2="43.1461" y2="14.0057" gradientUnits="userSpaceOnUse">
<stop stop-color="#814CD9"/>
<stop offset="1" stop-color="#5B0F89"/>
</linearGradient>
<linearGradient id="paint3_linear_56_93" x1="4.69333" y1="-5.0205" x2="43.1461" y2="14.0057" gradientUnits="userSpaceOnUse">
<stop stop-color="#814CD9"/>
<stop offset="1" stop-color="#5B0F89"/>
</linearGradient>
<linearGradient id="paint4_linear_56_93" x1="4.69333" y1="-5.0205" x2="43.1461" y2="14.0057" gradientUnits="userSpaceOnUse">
<stop stop-color="#814CD9"/>
<stop offset="1" stop-color="#5B0F89"/>
</linearGradient>
<linearGradient id="paint5_linear_56_93" x1="4.69333" y1="-5.0205" x2="43.1461" y2="14.0057" gradientUnits="userSpaceOnUse">
<stop stop-color="#814CD9"/>
<stop offset="1" stop-color="#5B0F89"/>
</linearGradient>
</defs>
</svg>
