<svg width="307" height="287" viewBox="0 0 307 287" fill="none" xmlns="http://www.w3.org/2000/svg">
<path d="M133.944 219.696L126.42 219.904C125.277 219.963 124.146 219.646 123.2 219.001C122.383 218.393 122.009 217.571 122.173 216.745L123.654 209.299C123.933 207.895 125.653 206.833 127.743 206.775L131.899 206.66C133.99 206.602 135.766 207.568 136.122 208.955L138.011 216.307C138.221 217.123 137.892 217.964 137.109 218.617C136.2 219.313 135.089 219.692 133.944 219.696Z" fill="#3F3D56"/>
<path d="M179.712 219.483L172.188 219.691C171.045 219.75 169.914 219.433 168.968 218.788C168.151 218.18 167.776 217.358 167.941 216.532L169.421 209.086C169.7 207.682 171.42 206.62 173.511 206.562L177.667 206.447C179.757 206.389 181.533 207.355 181.89 208.742L183.779 216.095C183.988 216.91 183.659 217.752 182.877 218.404C181.968 219.1 180.857 219.479 179.712 219.483Z" fill="#3F3D56"/>
<path d="M107.817 156.272C107.473 156.123 107.19 155.862 107.015 155.531C106.84 155.2 106.783 154.819 106.853 154.451C106.924 154.083 107.118 153.751 107.403 153.508C107.688 153.266 108.048 153.128 108.422 153.118L193.965 150.754C194.181 150.748 194.396 150.785 194.597 150.862C194.799 150.939 194.983 151.055 195.14 151.203C195.297 151.351 195.423 151.529 195.511 151.726C195.599 151.923 195.647 152.136 195.653 152.352C195.665 152.787 195.503 153.21 195.204 153.527C194.904 153.843 194.491 154.028 194.056 154.041L108.513 156.404C108.274 156.411 108.036 156.366 107.817 156.272Z" fill="#3F3D56"/>
<path d="M139.387 127.935L114.934 128.61L117.214 211.219L141.666 210.544L139.387 127.935Z" fill="#E6E6E6"/>
<path d="M140.007 126.451L135.306 139.263L135.311 197.636L141.038 199.28L140.007 126.451Z" fill="#CCCCCC"/>
<path d="M127.033 106.346C122.458 106.476 118.968 114.398 119.052 117.489L119.206 123.086L135.771 122.628L135.616 117.031C135.53 113.94 131.608 106.223 127.033 106.346Z" fill="#3F3D56"/>
<path d="M115.252 162.821C114.397 162.844 113.568 162.526 112.947 161.938C112.326 161.35 111.963 160.539 111.939 159.684L111.687 150.576C111.664 149.721 111.981 148.891 112.569 148.269C113.157 147.648 113.967 147.285 114.822 147.262C115.677 147.238 116.506 147.555 117.128 148.143C117.749 148.732 118.111 149.543 118.135 150.398L118.386 159.506C118.409 160.361 118.092 161.191 117.504 161.812C116.916 162.433 116.106 162.796 115.252 162.821Z" fill="#3F3D56"/>
<path d="M121.457 128.806L121.341 122.787L122.919 122.748L123.034 128.748L124.464 216.197L122.886 216.24" fill="#3F3D56"/>
<path d="M142.19 142.882L113.834 143.666C111.126 140.361 110.88 126.281 116.532 123.601L118.749 119.835L135.838 119L137.835 122.966C140.647 125.36 142.097 139.352 142.19 142.882Z" fill="#E6E6E6"/>
<path d="M131.518 136.129L124.347 136.327C122.963 136.366 121.787 134.569 121.725 132.324C121.663 130.078 122.738 128.219 124.122 128.181L131.293 127.983C132.677 127.945 133.853 129.741 133.915 131.987C133.977 134.232 132.901 136.091 131.518 136.129Z" fill="#6C63FF"/>
<path d="M117.632 176.749L102.85 187.197L100.268 210.753L117.511 204.989L117.632 176.749Z" fill="#E6E6E6"/>
<path d="M186.588 126.923L162.136 127.599L164.416 210.208L188.868 209.532L186.588 126.923Z" fill="#E6E6E6"/>
<path d="M162.722 126.727L167.753 139.413L169.263 197.767L163.58 199.558L162.722 126.727Z" fill="#CCCCCC"/>
<path class='point-one' d="M198.817 103.988C200.587 103.988 202.022 102.063 202.022 99.6876C202.022 97.3126 200.587 95.3872 198.817 95.3872C197.047 95.3872 195.612 97.3126 195.612 99.6876C195.612 102.063 197.047 103.988 198.817 103.988Z" fill="#E6E6E6"/>
<path class='point-two' d="M215.571 167.122C217.341 167.122 218.776 165.197 218.776 162.822C218.776 160.447 217.341 158.522 215.571 158.522C213.801 158.522 212.366 160.447 212.366 162.822C212.366 165.197 213.801 167.122 215.571 167.122Z" fill="#E6E6E6"/>
<path class='point-one' d="M90.8564 155.054C92.6265 155.054 94.0614 153.128 94.0614 150.753C94.0614 148.378 92.6265 146.453 90.8564 146.453C89.0864 146.453 87.6515 148.378 87.6515 150.753C87.6515 153.128 89.0864 155.054 90.8564 155.054Z" fill="#E6E6E6"/>
<path d="M173.758 105.347C169.183 105.477 165.693 113.399 165.777 116.491L165.931 122.087L182.495 121.629L182.341 116.033C182.254 112.942 178.332 105.225 173.758 105.347Z" fill="#3F3D56"/>
<path d="M178.494 130.69L178.378 124.671L179.956 124.632L180.072 130.632L181.502 218.081L179.924 218.125" fill="#3F3D56"/>
<path d="M188.915 141.884L160.559 142.667C160.065 139.677 160.704 125.723 163.257 122.603L165.473 118.837L182.563 118.002L184.56 121.967C189.606 122.379 191.37 136.091 188.915 141.884Z" fill="#E6E6E6"/>
<path d="M178.277 136.388L171.106 136.586C169.722 136.624 168.538 134.546 168.467 131.954C168.395 129.361 169.463 127.221 170.847 127.183L178.017 126.984C179.401 126.946 180.585 129.025 180.657 131.617C180.729 134.209 179.661 136.349 178.277 136.388Z" fill="#6C63FF"/>
<path d="M187.797 170.71L202.086 181.822L203.591 205.472L186.629 198.926L187.797 170.71Z" fill="#E6E6E6"/>
<path d="M87.6515 61.4682C89.4215 61.4682 90.8564 59.5428 90.8564 57.1678C90.8564 54.7927 89.4215 52.8674 87.6515 52.8674C85.8814 52.8674 84.4465 54.7927 84.4465 57.1678C84.4465 59.5428 85.8814 61.4682 87.6515 61.4682Z" fill="#E6E6E6"/>
<path d="M187.055 26.5411C188.825 26.5411 190.26 24.6158 190.26 22.2408C190.26 19.8657 188.825 17.9404 187.055 17.9404C185.285 17.9404 183.85 19.8657 183.85 22.2408C183.85 24.6158 185.285 26.5411 187.055 26.5411Z" fill="#E6E6E6"/>
<path d="M84.4465 116.677C86.2166 116.677 87.6515 114.752 87.6515 112.377C87.6515 110.002 86.2166 108.076 84.4465 108.076C82.6764 108.076 81.2415 110.002 81.2415 112.377C81.2415 114.752 82.6764 116.677 84.4465 116.677Z" fill="#E6E6E6"/>
<path d="M116.994 78.8246C115.529 79.8015 114.029 77.4764 115.522 76.5429C116.988 75.5661 118.487 77.8912 116.994 78.8246Z" fill="#E6E6E6"/>
<path d="M171.249 2.51671C169.784 3.4936 168.284 1.16851 169.777 0.235002C171.242 -0.741839 172.742 1.58325 171.249 2.51671Z" fill="#E6E6E6"/>
<path d="M203.224 47.7593L202.292 47.5546L202.496 46.6215L201.875 46.4852L201.67 47.4184L200.738 47.2141L200.602 47.836L201.534 48.0406L201.33 48.9734L201.951 49.1097L202.156 48.1765L203.088 48.3811L203.224 47.7593Z" fill="#E6E6E6"/>
<path d="M117.777 16.4914C120.02 16.4914 121.838 14.6723 121.838 12.4284C121.838 10.1844 120.02 8.36533 117.777 8.36533C115.535 8.36533 113.717 10.1844 113.717 12.4284C113.717 14.6723 115.535 16.4914 117.777 16.4914Z" fill="#FF6584"/>
<path d="M147.477 7.28549C142.903 7.4155 139.412 15.3374 139.496 18.4287L139.651 24.0252L156.215 23.5675L156.061 17.971C155.974 14.8797 152.052 7.1627 147.477 7.28549Z" fill="#3F3D56"/>
<path d="M157.341 219.208L149.816 219.416C148.673 219.475 147.542 219.158 146.597 218.513C145.78 217.905 145.405 217.083 145.569 216.257L147.05 208.811C147.329 207.407 149.049 206.345 151.14 206.287L155.295 206.172C157.386 206.114 159.162 207.08 159.518 208.467L161.407 215.82C161.617 216.635 161.288 217.477 160.505 218.129C159.597 218.825 158.485 219.204 157.341 219.208Z" fill="#3F3D56"/>
<path d="M160.696 42.9132L136.244 43.5888L140.852 210.573L165.304 209.898L160.696 42.9132Z" fill="#E6E6E6"/>
<path d="M150.912 123.744L150.796 117.725L152.374 117.685L152.489 123.685L153.919 211.134L152.341 211.178" fill="#3F3D56"/>
<path d="M165.51 58.1958L132.378 59.1113C131.801 55.6173 132.548 39.313 135.531 35.6676L136.348 31.3162L159.225 30.684L160.422 34.925C163.707 37.7222 165.401 54.0707 165.51 58.1958Z" fill="#E6E6E6"/>
<path d="M159.948 31.1975L136.34 31.8498C135.469 31.8738 134.75 31.4161 134.733 30.8273C134.731 30.7425 134.744 30.6579 134.77 30.5773L138.437 19.2734C138.594 18.7894 139.219 18.4339 139.949 18.4137L155.604 17.9812C156.334 17.961 156.978 18.2814 157.161 18.7561L161.446 29.8402C161.665 30.4072 161.159 30.9971 160.315 31.1579C160.194 31.1809 160.071 31.1942 159.948 31.1975Z" fill="#E6E6E6"/>
<path d="M138.669 122.976C138.456 122.885 138.255 122.768 138.069 122.629C137.804 122.442 137.584 122.197 137.428 121.913C137.271 121.629 137.182 121.312 137.167 120.988L136.309 89.9038C136.274 88.617 137.533 87.5346 139.116 87.4908L160.25 86.9067C161.833 86.8627 163.149 87.8744 163.185 89.1611L164.043 120.245C164.045 120.57 163.974 120.891 163.833 121.183C163.693 121.476 163.487 121.732 163.232 121.933C162.668 122.393 161.964 122.649 161.236 122.658L140.102 123.242C139.611 123.259 139.122 123.168 138.669 122.976Z" fill="#3F3D56"/>
<path d="M152.196 29.197L145.025 29.3952C143.641 29.4334 142.471 27.869 142.417 25.9084C142.363 23.9479 143.445 22.3213 144.829 22.283L152 22.0849C153.383 22.0467 154.553 23.611 154.608 25.5716C154.662 27.5322 153.58 29.1588 152.196 29.197Z" fill="#6C63FF"/>
<path d="M187.194 160.803C186.339 160.826 185.511 160.508 184.89 159.92C184.269 159.332 183.906 158.522 183.881 157.667L183.63 148.559C183.607 147.703 183.924 146.874 184.512 146.253C185.1 145.632 185.91 145.27 186.765 145.246C187.619 145.222 188.448 145.539 189.07 146.127C189.691 146.715 190.053 147.525 190.077 148.381L190.329 157.488C190.351 158.344 190.034 159.173 189.446 159.794C188.859 160.416 188.049 160.779 187.194 160.803Z" fill="#3F3D56"/>
<path d="M69.4122 186.63C65.5247 186.63 62.9975 185.663 61.8789 183.742C59.6731 179.953 63.3674 173.304 72.8592 163.981L73.6566 164.794C64.8397 173.454 61.0062 179.98 62.8622 183.169C64.0368 185.185 67.5322 185.908 72.9728 185.258C78.3737 184.613 85.5313 182.69 94.2466 179.543C112.189 173.063 134.7 162.134 157.632 148.767C180.563 135.401 201.169 121.199 215.653 108.778C218.435 106.391 220.96 104.096 223.157 101.955C226.042 99.2135 228.703 96.2457 231.115 93.0801C234.364 88.666 235.461 85.2667 234.286 83.2495C232.325 79.8803 224.085 80.1971 211.083 84.1428L210.753 83.0528C224.703 78.8202 232.951 78.6932 235.27 82.6763C236.711 85.151 235.621 88.8786 232.032 93.7556C229.583 96.9713 226.88 99.9861 223.951 102.771C221.737 104.929 219.194 107.24 216.393 109.643C201.859 122.107 181.194 136.352 158.205 149.751C135.215 163.151 112.638 174.112 94.6331 180.614C85.8366 183.791 78.5944 185.734 73.1076 186.389C71.8816 186.542 70.6477 186.622 69.4122 186.63Z" fill="#3F3D56"/>
<path d="M160.59 52.8673L174.879 63.9787L176.383 87.6292L159.422 81.0827L160.59 52.8673Z" fill="#E6E6E6"/>
<path d="M139.003 52.8673L124.714 63.9787L123.209 87.6292L140.171 81.0827L139.003 52.8673Z" fill="#E6E6E6"/>
<path d="M147.066 35.6199L146.951 29.6006L148.528 29.5615L148.644 35.5618L150.074 47.0824L148.496 47.126" fill="#3F3D56"/>
<path d="M75.0815 83.3659C76.5581 82.794 77.4328 81.497 77.0352 80.4692C76.6375 79.4413 75.1181 79.0717 73.6415 79.6437C72.1648 80.2156 71.2902 81.5125 71.6878 82.5404C72.0854 83.5683 73.6048 83.9379 75.0815 83.3659Z" fill="#E6E6E6"/>
<path d="M93.6736 80.9794C95.1502 80.4075 96.025 79.1106 95.6273 78.0827C95.2297 77.0548 93.7103 76.6852 92.2336 77.2572C90.757 77.8292 89.8823 79.1261 90.2799 80.1539C90.6776 81.1818 92.197 81.5514 93.6736 80.9794Z" fill="#E6E6E6"/>
<path d="M73.469 99.238C74.9457 98.6661 75.8204 97.3692 75.4227 96.3413C75.0251 95.3134 73.5057 94.9438 72.0291 95.5158C70.5524 96.0877 69.6777 97.3847 70.0753 98.4125C70.473 99.4404 71.9924 99.81 73.469 99.238Z" fill="#E6E6E6"/>
<path d="M68.0905 106.239C68.7679 106.079 69.1302 105.159 68.8997 104.184C68.6692 103.21 67.9332 102.55 67.2558 102.711C66.5783 102.871 66.216 103.791 66.4465 104.765C66.677 105.74 67.413 106.4 68.0905 106.239Z" fill="#E6E6E6"/>
<path d="M67.9798 118.093C68.6573 117.932 69.0196 117.012 68.7891 116.038C68.5586 115.063 67.8226 114.404 67.1451 114.564C66.4677 114.724 66.1054 115.644 66.3359 116.619C66.5664 117.593 67.3024 118.253 67.9798 118.093Z" fill="#E6E6E6"/>
<path d="M84.2976 93.5416C84.975 93.3811 85.3374 92.4611 85.1069 91.4867C84.8764 90.5123 84.1404 89.8524 83.4629 90.0129C82.7855 90.1733 82.4232 91.0933 82.6537 92.0677C82.8842 93.0421 83.6202 93.702 84.2976 93.5416Z" fill="#E6E6E6"/>
<path d="M74.5056 91.1622C75.1831 91.0018 75.5454 90.0818 75.3149 89.1074C75.0844 88.1329 74.3484 87.4731 73.6709 87.6335C72.9935 87.794 72.6312 88.714 72.8617 89.6884C73.0922 90.6628 73.8282 91.3227 74.5056 91.1622Z" fill="#E6E6E6"/>
<path d="M84.8844 80.2472C85.5619 80.0868 85.9242 79.1668 85.6937 78.1924C85.4632 77.218 84.7272 76.5581 84.0497 76.7186C83.3723 76.879 83.01 77.799 83.2405 78.7734C83.471 79.7478 84.207 80.4077 84.8844 80.2472Z" fill="#E6E6E6"/>
<path d="M237.644 136.915C239.174 136.507 240.184 135.314 239.901 134.248C239.617 133.183 238.147 132.65 236.617 133.058C235.087 133.466 234.077 134.66 234.36 135.725C234.644 136.79 236.114 137.323 237.644 136.915Z" fill="#E6E6E6"/>
<path d="M218.902 137.263C220.433 136.855 221.443 135.661 221.16 134.596C220.876 133.531 219.406 132.998 217.876 133.406C216.346 133.813 215.335 135.007 215.619 136.072C215.902 137.137 217.372 137.67 218.902 137.263Z" fill="#E6E6E6"/>
<path d="M240.973 121.313C242.503 120.905 243.514 119.711 243.23 118.646C242.947 117.581 241.477 117.048 239.947 117.456C238.416 117.864 237.406 119.058 237.689 120.123C237.973 121.188 239.443 121.721 240.973 121.313Z" fill="#E6E6E6"/>
<path d="M246.501 114.681C247.192 114.595 247.652 113.72 247.529 112.726C247.405 111.733 246.746 110.996 246.055 111.082C245.364 111.168 244.904 112.043 245.027 113.037C245.15 114.03 245.81 114.767 246.501 114.681Z" fill="#E6E6E6"/>
<path d="M247.9 102.91C248.591 102.824 249.051 101.949 248.928 100.955C248.805 99.9616 248.145 99.2255 247.454 99.3112C246.763 99.397 246.303 100.272 246.426 101.266C246.549 102.259 247.209 102.996 247.9 102.91Z" fill="#E6E6E6"/>
<path d="M229.009 125.538C229.699 125.452 230.16 124.577 230.037 123.583C229.913 122.59 229.254 121.854 228.563 121.939C227.872 122.025 227.412 122.9 227.535 123.894C227.658 124.888 228.318 125.624 229.009 125.538Z" fill="#E6E6E6"/>
<path d="M238.484 128.97C239.174 128.884 239.635 128.009 239.512 127.015C239.388 126.021 238.729 125.285 238.038 125.371C237.347 125.457 236.887 126.332 237.01 127.325C237.133 128.319 237.793 129.055 238.484 128.97Z" fill="#E6E6E6"/>
<path d="M226.979 138.689C227.67 138.604 228.13 137.729 228.007 136.735C227.884 135.741 227.224 135.005 226.533 135.091C225.842 135.176 225.382 136.052 225.505 137.045C225.628 138.039 226.288 138.775 226.979 138.689Z" fill="#E6E6E6"/>
<path d="M272.659 198.643C267.76 198.643 262.391 198.457 256.551 198.087C226.345 196.167 187.219 189.494 146.381 179.298C105.543 169.101 67.8709 156.597 40.3052 144.092C26.8772 138 16.5712 132.233 9.67391 126.952C2.37149 121.361 -0.822684 116.487 0.179732 112.467C2.1329 104.636 19.4273 102.922 33.5916 102.864L33.5964 104.003C14.1451 104.083 2.66978 107.187 1.28424 112.743C-0.480686 119.82 13.9133 130.868 40.7752 143.054C68.2804 155.532 105.883 168.012 146.657 178.193C187.43 188.373 226.484 195.035 256.623 196.95C286.057 198.821 303.951 195.835 305.716 188.758C307.181 182.883 297.522 174.227 278.517 164.386L279.04 163.374C292.849 170.525 308.878 180.782 306.82 189.034C305.818 193.054 300.71 195.854 291.639 197.357C286.468 198.213 280.116 198.643 272.659 198.643Z" fill="#6C63FF"/>
<path class="turbines-rocket" d="M126.149 220.795L125.962 228.232C123.911 226.823 120.944 227.744 119.738 230.164C118.532 232.583 119.304 236.064 121.359 237.465C120.034 239.159 117.807 239.125 115.854 239.137C113.901 239.148 111.585 239.605 110.744 241.681C110.068 243.348 110.725 245.415 111.871 246.665C113.017 247.915 114.549 248.535 116.033 249.121C112.768 250.372 110.514 254.569 110.962 258.561C111.411 262.554 114.511 265.887 117.936 266.06C114.716 267.622 112.96 272.451 114.232 276.246C115.515 280.073 119.06 282.068 122.396 283.314C130.885 286.499 140.129 287.102 148.972 285.047C152.349 284.258 155.729 283.049 158.549 280.717C161.37 278.385 163.584 274.788 163.902 270.761C162.224 275.198 164.882 280.595 168.626 282.605C172.369 284.615 176.745 284.039 180.762 282.92C186.105 281.433 191.794 278.492 193.974 272.565C195.053 269.63 195.114 266.344 195.157 263.154L195.242 256.968C195.276 254.471 195.306 251.93 194.708 249.537C194.111 247.144 192.78 244.879 190.809 243.958C192.237 242.112 193.703 240.191 194.366 237.824C195.029 235.458 194.663 232.507 192.946 231.063C190.76 229.226 187.548 230.531 185.142 229.121C182.826 227.764 181.986 224.385 180.098 222.308C179.332 221.43 178.326 220.796 177.204 220.484C176.082 220.171 174.893 220.193 173.781 220.548C171.603 221.297 169.815 223.462 169.243 226.043C168.742 228.304 169.131 230.693 168.952 233.018C168.772 235.342 167.689 237.926 165.729 238.311C163.364 238.776 161.539 235.748 161.186 232.965C160.832 230.183 161.275 227.227 160.399 224.612C159.365 221.526 156.408 219.512 153.607 219.989C150.807 220.465 148.436 223.384 148.161 226.693C147.937 229.398 148.818 232.661 147.103 234.495C145.292 236.433 142.248 234.633 141.096 232.108C139.944 229.582 139.825 226.547 138.714 223.996C137.585 221.406 135.42 219.478 132.991 218.898C131.748 218.627 130.456 218.674 129.234 219.035C128.012 219.396 126.9 220.059 126 220.964" fill="#E6E6E6"/>
</svg>
