<svg width="257" height="218" viewBox="0 0 257 218" fill="none" xmlns="http://www.w3.org/2000/svg">
<rect width="257" height="217.121" rx="10" fill="#64079C"/>
<path d="M90.31 122.34C92.1533 122.34 93.635 122.049 94.755 121.465C95.8983 120.882 96.47 120.007 96.47 118.84C96.47 118.047 96.2483 117.382 95.805 116.845C95.3617 116.309 94.51 115.795 93.25 115.305C91.99 114.815 90.1233 114.232 87.65 113.555C85.3867 112.949 83.38 112.179 81.63 111.245C79.9033 110.312 78.55 109.11 77.57 107.64C76.6133 106.17 76.135 104.339 76.135 102.145C76.135 99.9287 76.7533 97.957 77.99 96.2303C79.2267 94.5037 81.0467 93.1503 83.45 92.1703C85.8533 91.167 88.7933 90.6653 92.27 90.6653C95.5833 90.6653 98.465 91.097 100.915 91.9603C103.388 92.8003 105.523 93.8737 107.32 95.1803L102.91 101.69C101.37 100.734 99.7133 99.9753 97.94 99.4153C96.1667 98.832 94.3817 98.5403 92.585 98.5403C90.7883 98.5403 89.4467 98.7853 88.56 99.2753C87.6967 99.742 87.265 100.454 87.265 101.41C87.265 102.04 87.4867 102.589 87.93 103.055C88.3967 103.499 89.26 103.965 90.52 104.455C91.78 104.922 93.6233 105.505 96.05 106.205C98.4533 106.882 100.542 107.664 102.315 108.55C104.112 109.437 105.5 110.627 106.48 112.12C107.46 113.59 107.95 115.539 107.95 117.965C107.95 120.672 107.145 122.947 105.535 124.79C103.925 126.61 101.79 127.975 99.13 128.885C96.47 129.795 93.5533 130.25 90.38 130.25C86.7867 130.25 83.6133 129.737 80.86 128.71C78.1067 127.684 75.7617 126.33 73.825 124.65L79.39 118.42C80.8367 119.54 82.47 120.474 84.29 121.22C86.1333 121.967 88.14 122.34 90.31 122.34Z" fill="#B8B8B8"/>
<path d="M90.31 122.34C92.1533 122.34 93.635 122.049 94.755 121.465C95.8983 120.882 96.47 120.007 96.47 118.84C96.47 118.047 96.2483 117.382 95.805 116.845C95.3617 116.309 94.51 115.795 93.25 115.305C91.99 114.815 90.1233 114.232 87.65 113.555C85.3867 112.949 83.38 112.179 81.63 111.245C79.9033 110.312 78.55 109.11 77.57 107.64C76.6133 106.17 76.135 104.339 76.135 102.145C76.135 99.9287 76.7533 97.957 77.99 96.2303C79.2267 94.5037 81.0467 93.1503 83.45 92.1703C85.8533 91.167 88.7933 90.6653 92.27 90.6653C95.5833 90.6653 98.465 91.097 100.915 91.9603C103.388 92.8003 105.523 93.8737 107.32 95.1803L102.91 101.69C101.37 100.734 99.7133 99.9753 97.94 99.4153C96.1667 98.832 94.3817 98.5403 92.585 98.5403C90.7883 98.5403 89.4467 98.7853 88.56 99.2753C87.6967 99.742 87.265 100.454 87.265 101.41C87.265 102.04 87.4867 102.589 87.93 103.055C88.3967 103.499 89.26 103.965 90.52 104.455C91.78 104.922 93.6233 105.505 96.05 106.205C98.4533 106.882 100.542 107.664 102.315 108.55C104.112 109.437 105.5 110.627 106.48 112.12C107.46 113.59 107.95 115.539 107.95 117.965C107.95 120.672 107.145 122.947 105.535 124.79C103.925 126.61 101.79 127.975 99.13 128.885C96.47 129.795 93.5533 130.25 90.38 130.25C86.7867 130.25 83.6133 129.737 80.86 128.71C78.1067 127.684 75.7617 126.33 73.825 124.65L79.39 118.42C80.8367 119.54 82.47 120.474 84.29 121.22C86.1333 121.967 88.14 122.34 90.31 122.34Z" fill="#B8B8B8"/>
<path d="M90.31 122.34C92.1533 122.34 93.635 122.049 94.755 121.465C95.8983 120.882 96.47 120.007 96.47 118.84C96.47 118.047 96.2483 117.382 95.805 116.845C95.3617 116.309 94.51 115.795 93.25 115.305C91.99 114.815 90.1233 114.232 87.65 113.555C85.3867 112.949 83.38 112.179 81.63 111.245C79.9033 110.312 78.55 109.11 77.57 107.64C76.6133 106.17 76.135 104.339 76.135 102.145C76.135 99.9287 76.7533 97.957 77.99 96.2303C79.2267 94.5037 81.0467 93.1503 83.45 92.1703C85.8533 91.167 88.7933 90.6653 92.27 90.6653C95.5833 90.6653 98.465 91.097 100.915 91.9603C103.388 92.8003 105.523 93.8737 107.32 95.1803L102.91 101.69C101.37 100.734 99.7133 99.9753 97.94 99.4153C96.1667 98.832 94.3817 98.5403 92.585 98.5403C90.7883 98.5403 89.4467 98.7853 88.56 99.2753C87.6967 99.742 87.265 100.454 87.265 101.41C87.265 102.04 87.4867 102.589 87.93 103.055C88.3967 103.499 89.26 103.965 90.52 104.455C91.78 104.922 93.6233 105.505 96.05 106.205C98.4533 106.882 100.542 107.664 102.315 108.55C104.112 109.437 105.5 110.627 106.48 112.12C107.46 113.59 107.95 115.539 107.95 117.965C107.95 120.672 107.145 122.947 105.535 124.79C103.925 126.61 101.79 127.975 99.13 128.885C96.47 129.795 93.5533 130.25 90.38 130.25C86.7867 130.25 83.6133 129.737 80.86 128.71C78.1067 127.684 75.7617 126.33 73.825 124.65L79.39 118.42C80.8367 119.54 82.47 120.474 84.29 121.22C86.1333 121.967 88.14 122.34 90.31 122.34Z" fill="#E0E0E0"/>
<path d="M90.31 122.34C92.1533 122.34 93.635 122.049 94.755 121.465C95.8983 120.882 96.47 120.007 96.47 118.84C96.47 118.047 96.2483 117.382 95.805 116.845C95.3617 116.309 94.51 115.795 93.25 115.305C91.99 114.815 90.1233 114.232 87.65 113.555C85.3867 112.949 83.38 112.179 81.63 111.245C79.9033 110.312 78.55 109.11 77.57 107.64C76.6133 106.17 76.135 104.339 76.135 102.145C76.135 99.9287 76.7533 97.957 77.99 96.2303C79.2267 94.5037 81.0467 93.1503 83.45 92.1703C85.8533 91.167 88.7933 90.6653 92.27 90.6653C95.5833 90.6653 98.465 91.097 100.915 91.9603C103.388 92.8003 105.523 93.8737 107.32 95.1803L102.91 101.69C101.37 100.734 99.7133 99.9753 97.94 99.4153C96.1667 98.832 94.3817 98.5403 92.585 98.5403C90.7883 98.5403 89.4467 98.7853 88.56 99.2753C87.6967 99.742 87.265 100.454 87.265 101.41C87.265 102.04 87.4867 102.589 87.93 103.055C88.3967 103.499 89.26 103.965 90.52 104.455C91.78 104.922 93.6233 105.505 96.05 106.205C98.4533 106.882 100.542 107.664 102.315 108.55C104.112 109.437 105.5 110.627 106.48 112.12C107.46 113.59 107.95 115.539 107.95 117.965C107.95 120.672 107.145 122.947 105.535 124.79C103.925 126.61 101.79 127.975 99.13 128.885C96.47 129.795 93.5533 130.25 90.38 130.25C86.7867 130.25 83.6133 129.737 80.86 128.71C78.1067 127.684 75.7617 126.33 73.825 124.65L79.39 118.42C80.8367 119.54 82.47 120.474 84.29 121.22C86.1333 121.967 88.14 122.34 90.31 122.34Z" fill="#F5F5F5"/>
<path d="M62.155 75.2603V82.9603C60.7317 82.9603 59.5067 83.0887 58.48 83.3453C57.4767 83.5787 56.7183 84.022 56.205 84.6753C55.715 85.3053 55.5283 86.2153 55.645 87.4053L56.73 97.7303C57.01 100.344 56.7183 102.455 55.855 104.065C55.015 105.675 53.72 106.912 51.97 107.775C50.2433 108.615 48.2017 109.21 45.845 109.56C48.3417 109.934 50.4533 110.54 52.18 111.38C53.9067 112.22 55.1667 113.434 55.96 115.02C56.7533 116.607 57.01 118.73 56.73 121.39L55.645 131.715C55.5283 132.882 55.715 133.792 56.205 134.445C56.7183 135.099 57.4883 135.542 58.515 135.775C59.5417 136.032 60.755 136.16 62.155 136.16V143.86C58.935 143.86 56.205 143.627 53.965 143.16C51.725 142.694 49.9283 141.947 48.575 140.92C47.245 139.917 46.3233 138.587 45.81 136.93C45.32 135.297 45.1917 133.302 45.425 130.945L46.475 120.935C46.6617 119.162 46.3583 117.774 45.565 116.77C44.795 115.767 43.6517 115.067 42.135 114.67C40.6183 114.25 38.8683 114.04 36.885 114.04V105.08C38.845 105.08 40.5833 104.882 42.1 104.485C43.6167 104.065 44.7717 103.354 45.565 102.35C46.3583 101.347 46.6617 99.9587 46.475 98.1853L45.425 88.2453C45.1683 85.842 45.285 83.812 45.775 82.1553C46.2883 80.4987 47.21 79.1687 48.54 78.1653C49.8933 77.1387 51.69 76.4037 53.93 75.9603C56.1933 75.4937 58.935 75.2603 62.155 75.2603ZM122.79 75.2603C126.01 75.2603 128.74 75.4937 130.98 75.9603C133.22 76.427 135.005 77.1737 136.335 78.2003C137.689 79.2037 138.622 80.5337 139.135 82.1903C139.649 83.8237 139.777 85.8187 139.52 88.1753L138.47 98.1853C138.284 99.9587 138.587 101.347 139.38 102.35C140.174 103.354 141.317 104.065 142.81 104.485C144.327 104.882 146.077 105.08 148.06 105.08V114.04C146.1 114.04 144.362 114.25 142.845 114.67C141.329 115.067 140.174 115.767 139.38 116.77C138.587 117.774 138.284 119.162 138.47 120.935L139.52 130.875C139.777 133.279 139.649 135.309 139.135 136.965C138.645 138.622 137.724 139.952 136.37 140.955C135.04 141.982 133.244 142.717 130.98 143.16C128.74 143.627 126.01 143.86 122.79 143.86V136.16C124.214 136.16 125.427 136.032 126.43 135.775C127.457 135.542 128.215 135.099 128.705 134.445C129.219 133.792 129.417 132.882 129.3 131.715L128.215 121.39C127.935 118.754 128.215 116.642 129.055 115.055C129.919 113.445 131.225 112.22 132.975 111.38C134.725 110.517 136.779 109.91 139.135 109.56C136.639 109.187 134.515 108.58 132.765 107.74C131.039 106.9 129.779 105.687 128.985 104.1C128.192 102.49 127.935 100.367 128.215 97.7303L129.3 87.4053C129.417 86.2153 129.219 85.3053 128.705 84.6753C128.215 84.022 127.457 83.5787 126.43 83.3453C125.427 83.0887 124.214 82.9603 122.79 82.9603V75.2603Z" fill="white"/>
<path d="M178.54 97.4853C178.54 98.7753 178.2 99.9153 177.52 100.905C176.85 101.895 175.885 102.67 174.625 103.23C173.365 103.79 171.85 104.07 170.08 104.07C168.12 104.07 166.475 103.785 165.145 103.215C163.825 102.635 162.73 101.92 161.86 101.07L164.35 98.3103C165.12 98.9803 165.97 99.5003 166.9 99.8703C167.83 100.23 168.85 100.41 169.96 100.41C170.65 100.41 171.255 100.31 171.775 100.11C172.295 99.9103 172.7 99.6203 172.99 99.2403C173.28 98.8603 173.425 98.4003 173.425 97.8603C173.425 97.3503 173.31 96.9203 173.08 96.5703C172.85 96.2203 172.46 95.9053 171.91 95.6253C171.37 95.3453 170.615 95.0603 169.645 94.7703C168.025 94.2703 166.72 93.7203 165.73 93.1203C164.75 92.5203 164.035 91.8253 163.585 91.0353C163.145 90.2453 162.925 89.3253 162.925 88.2753C162.925 87.0053 163.275 85.9203 163.975 85.0203C164.685 84.1203 165.635 83.4353 166.825 82.9653C168.015 82.4853 169.325 82.2453 170.755 82.2453C172.365 82.2453 173.785 82.4803 175.015 82.9503C176.245 83.4103 177.31 84.0703 178.21 84.9303L175.885 87.6003C175.185 87.0103 174.43 86.5753 173.62 86.2953C172.81 86.0053 171.985 85.8603 171.145 85.8603C170.525 85.8603 169.98 85.9403 169.51 86.1003C169.04 86.2503 168.675 86.4753 168.415 86.7753C168.155 87.0753 168.025 87.4503 168.025 87.9003C168.025 88.3403 168.15 88.7103 168.4 89.0103C168.65 89.3103 169.085 89.5953 169.705 89.8653C170.325 90.1253 171.185 90.4303 172.285 90.7803C173.595 91.1803 174.715 91.6603 175.645 92.2203C176.585 92.7703 177.3 93.4653 177.79 94.3053C178.29 95.1453 178.54 96.2053 178.54 97.4853ZM202.813 93.1503C202.813 95.3503 202.498 97.2703 201.868 98.9103C201.238 100.54 200.303 101.81 199.063 102.72C197.833 103.62 196.308 104.07 194.488 104.07C192.678 104.07 191.153 103.63 189.913 102.75C188.673 101.86 187.738 100.6 187.108 98.9703C186.478 97.3403 186.163 95.4003 186.163 93.1503C186.163 90.9503 186.478 89.0353 187.108 87.4053C187.738 85.7753 188.673 84.5103 189.913 83.6103C191.153 82.7003 192.678 82.2453 194.488 82.2453C196.308 82.2453 197.833 82.6853 199.063 83.5653C200.303 84.4453 201.238 85.7003 201.868 87.3303C202.498 88.9603 202.813 90.9003 202.813 93.1503ZM197.773 93.1503C197.773 90.5903 197.518 88.7303 197.008 87.5703C196.498 86.4103 195.658 85.8303 194.488 85.8303C193.318 85.8303 192.478 86.4153 191.968 87.5853C191.458 88.7453 191.203 90.6003 191.203 93.1503C191.203 95.7103 191.463 97.5703 191.983 98.7303C192.503 99.8903 193.338 100.47 194.488 100.47C195.688 100.47 196.533 99.8853 197.023 98.7153C197.523 97.5353 197.773 95.6803 197.773 93.1503ZM226.217 82.7703V96.6003C226.217 98.0203 225.927 99.2953 225.347 100.425C224.777 101.545 223.917 102.435 222.767 103.095C221.627 103.745 220.197 104.07 218.477 104.07C216.747 104.07 215.307 103.755 214.157 103.125C213.017 102.495 212.162 101.62 211.592 100.5C211.022 99.3803 210.737 98.0803 210.737 96.6003V82.7703H215.672V94.7703C215.672 96.6403 215.842 98.0503 216.182 99.0003C216.522 99.9403 217.287 100.41 218.477 100.41C219.667 100.41 220.432 99.9403 220.772 99.0003C221.112 98.0503 221.282 96.6403 221.282 94.7703V82.7703H226.217ZM173.635 123.06C173.635 121.66 173.515 120.52 173.275 119.64C173.045 118.76 172.72 118.08 172.3 117.6C171.89 117.12 171.405 116.79 170.845 116.61C170.285 116.43 169.68 116.34 169.03 116.34H167.98V130.005H169.03C169.71 130.005 170.33 129.9 170.89 129.69C171.46 129.47 171.95 129.105 172.36 128.595C172.77 128.075 173.085 127.365 173.305 126.465C173.525 125.565 173.635 124.43 173.635 123.06ZM178.735 123.06C178.735 124.75 178.555 126.2 178.195 127.41C177.835 128.61 177.33 129.61 176.68 130.41C176.04 131.21 175.295 131.84 174.445 132.3C173.595 132.76 172.68 133.085 171.7 133.275C170.72 133.465 169.71 133.56 168.67 133.56H163.06V112.77H168.31C169.64 112.77 170.925 112.91 172.165 113.19C173.415 113.46 174.53 113.965 175.51 114.705C176.5 115.435 177.285 116.475 177.865 117.825C178.445 119.165 178.735 120.91 178.735 123.06ZM193.198 116.28V121.275H200.398V124.725H193.198V130.035H201.883V133.56H188.278V112.77H201.868L201.373 116.28H193.198ZM218.567 129.72L222.482 112.77H227.522L221.522 133.56H215.432L209.462 112.77H214.682L218.567 129.72Z" fill="white"/>
</svg>
