<svg width="96" height="96" viewBox="0 0 96 96" fill="none" xmlns="http://www.w3.org/2000/svg">
<g clip-path="url(#clip0_59_159)">
<path fill-rule="evenodd" clip-rule="evenodd" d="M31.4051 24.0052C28.3088 24.0052 26.0176 26.7631 26.1202 29.7538C26.2187 32.6271 26.0907 36.3485 25.1701 39.3833C24.2462 42.4266 22.6847 44.3551 20.1338 44.6026V47.3973C22.6847 47.6454 24.2462 49.5729 25.17 52.6167C26.0907 55.6515 26.2185 59.3728 26.1201 62.2461C26.0175 65.2365 28.3087 67.9947 31.4056 67.9947H63.1332C66.2296 67.9947 68.5204 65.2369 68.4178 62.2461C68.3193 59.3728 68.4472 55.6515 69.3679 52.6167C70.2918 49.5729 71.8494 47.6446 74.4005 47.3973V44.6026C71.8495 44.3546 70.2919 42.427 69.3679 39.3833C68.4471 36.3489 68.3193 32.6271 68.4178 29.7538C68.5204 26.7635 66.2296 24.0052 63.1332 24.0052H31.4047H31.4051ZM56.9248 51.0837C56.9248 55.2018 53.9061 57.6994 48.8965 57.6994H40.3688C40.1248 57.6994 39.8909 57.6008 39.7184 57.4252C39.5459 57.2497 39.449 57.0116 39.449 56.7634V35.2367C39.449 34.9884 39.5459 34.7504 39.7184 34.5748C39.8909 34.3993 40.1248 34.3007 40.3688 34.3007H48.848C53.0251 34.3007 55.7665 36.6032 55.7665 40.1382C55.7665 42.6193 53.9223 44.8406 51.5728 45.2297V45.3591C54.7712 45.7161 56.9248 47.9702 56.9248 51.0837V51.0837ZM47.9667 37.2676H43.1043V44.2565H47.1996C50.3655 44.2565 52.1112 42.9593 52.1112 40.6405C52.1108 38.4675 50.61 37.2676 47.9667 37.2676ZM43.1043 47.0296V54.7315H48.1456C51.4418 54.7315 53.1878 53.3856 53.1878 50.8562C53.1878 48.3268 51.3929 47.0291 47.9336 47.0291H43.1043V47.0296Z" fill="#B8B8B8"/>
<path fill-rule="evenodd" clip-rule="evenodd" d="M31.4051 24.0052C28.3088 24.0052 26.0176 26.7631 26.1202 29.7538C26.2187 32.6271 26.0907 36.3485 25.1701 39.3833C24.2462 42.4266 22.6847 44.3551 20.1338 44.6026V47.3973C22.6847 47.6454 24.2462 49.5729 25.17 52.6167C26.0907 55.6515 26.2185 59.3728 26.1201 62.2461C26.0175 65.2365 28.3087 67.9947 31.4056 67.9947H63.1332C66.2296 67.9947 68.5204 65.2369 68.4178 62.2461C68.3193 59.3728 68.4472 55.6515 69.3679 52.6167C70.2918 49.5729 71.8494 47.6446 74.4005 47.3973V44.6026C71.8495 44.3546 70.2919 42.427 69.3679 39.3833C68.4471 36.3489 68.3193 32.6271 68.4178 29.7538C68.5204 26.7635 66.2296 24.0052 63.1332 24.0052H31.4047H31.4051ZM56.9248 51.0837C56.9248 55.2018 53.9061 57.6994 48.8965 57.6994H40.3688C40.1248 57.6994 39.8909 57.6008 39.7184 57.4252C39.5459 57.2497 39.449 57.0116 39.449 56.7634V35.2367C39.449 34.9884 39.5459 34.7504 39.7184 34.5748C39.8909 34.3993 40.1248 34.3007 40.3688 34.3007H48.848C53.0251 34.3007 55.7665 36.6032 55.7665 40.1382C55.7665 42.6193 53.9223 44.8406 51.5728 45.2297V45.3591C54.7712 45.7161 56.9248 47.9702 56.9248 51.0837V51.0837ZM47.9667 37.2676H43.1043V44.2565H47.1996C50.3655 44.2565 52.1112 42.9593 52.1112 40.6405C52.1108 38.4675 50.61 37.2676 47.9667 37.2676ZM43.1043 47.0296V54.7315H48.1456C51.4418 54.7315 53.1878 53.3856 53.1878 50.8562C53.1878 48.3268 51.3929 47.0291 47.9336 47.0291H43.1043V47.0296Z" fill="#B8B8B8"/>
<path fill-rule="evenodd" clip-rule="evenodd" d="M31.4051 24.0052C28.3088 24.0052 26.0176 26.7631 26.1202 29.7538C26.2187 32.6271 26.0907 36.3485 25.1701 39.3833C24.2462 42.4266 22.6847 44.3551 20.1338 44.6026V47.3973C22.6847 47.6454 24.2462 49.5729 25.17 52.6167C26.0907 55.6515 26.2185 59.3728 26.1201 62.2461C26.0175 65.2365 28.3087 67.9947 31.4056 67.9947H63.1332C66.2296 67.9947 68.5204 65.2369 68.4178 62.2461C68.3193 59.3728 68.4472 55.6515 69.3679 52.6167C70.2918 49.5729 71.8494 47.6446 74.4005 47.3973V44.6026C71.8495 44.3546 70.2919 42.427 69.3679 39.3833C68.4471 36.3489 68.3193 32.6271 68.4178 29.7538C68.5204 26.7635 66.2296 24.0052 63.1332 24.0052H31.4047H31.4051ZM56.9248 51.0837C56.9248 55.2018 53.9061 57.6994 48.8965 57.6994H40.3688C40.1248 57.6994 39.8909 57.6008 39.7184 57.4252C39.5459 57.2497 39.449 57.0116 39.449 56.7634V35.2367C39.449 34.9884 39.5459 34.7504 39.7184 34.5748C39.8909 34.3993 40.1248 34.3007 40.3688 34.3007H48.848C53.0251 34.3007 55.7665 36.6032 55.7665 40.1382C55.7665 42.6193 53.9223 44.8406 51.5728 45.2297V45.3591C54.7712 45.7161 56.9248 47.9702 56.9248 51.0837V51.0837ZM47.9667 37.2676H43.1043V44.2565H47.1996C50.3655 44.2565 52.1112 42.9593 52.1112 40.6405C52.1108 38.4675 50.61 37.2676 47.9667 37.2676ZM43.1043 47.0296V54.7315H48.1456C51.4418 54.7315 53.1878 53.3856 53.1878 50.8562C53.1878 48.3268 51.3929 47.0291 47.9336 47.0291H43.1043V47.0296Z" fill="#E0E0E0"/>
<path fill-rule="evenodd" clip-rule="evenodd" d="M31.4051 24.0052C28.3088 24.0052 26.0176 26.7631 26.1202 29.7538C26.2187 32.6271 26.0907 36.3485 25.1701 39.3833C24.2462 42.4266 22.6847 44.3551 20.1338 44.6026V47.3973C22.6847 47.6454 24.2462 49.5729 25.17 52.6167C26.0907 55.6515 26.2185 59.3728 26.1201 62.2461C26.0175 65.2365 28.3087 67.9947 31.4056 67.9947H63.1332C66.2296 67.9947 68.5204 65.2369 68.4178 62.2461C68.3193 59.3728 68.4472 55.6515 69.3679 52.6167C70.2918 49.5729 71.8494 47.6446 74.4005 47.3973V44.6026C71.8495 44.3546 70.2919 42.427 69.3679 39.3833C68.4471 36.3489 68.3193 32.6271 68.4178 29.7538C68.5204 26.7635 66.2296 24.0052 63.1332 24.0052H31.4047H31.4051ZM56.9248 51.0837C56.9248 55.2018 53.9061 57.6994 48.8965 57.6994H40.3688C40.1248 57.6994 39.8909 57.6008 39.7184 57.4252C39.5459 57.2497 39.449 57.0116 39.449 56.7634V35.2367C39.449 34.9884 39.5459 34.7504 39.7184 34.5748C39.8909 34.3993 40.1248 34.3007 40.3688 34.3007H48.848C53.0251 34.3007 55.7665 36.6032 55.7665 40.1382C55.7665 42.6193 53.9223 44.8406 51.5728 45.2297V45.3591C54.7712 45.7161 56.9248 47.9702 56.9248 51.0837V51.0837ZM47.9667 37.2676H43.1043V44.2565H47.1996C50.3655 44.2565 52.1112 42.9593 52.1112 40.6405C52.1108 38.4675 50.61 37.2676 47.9667 37.2676ZM43.1043 47.0296V54.7315H48.1456C51.4418 54.7315 53.1878 53.3856 53.1878 50.8562C53.1878 48.3268 51.3929 47.0291 47.9336 47.0291H43.1043V47.0296Z" fill="#E0E0E0"/>
</g>
<g filter="url(#filter0_d_59_159)">
<rect x="4.5" y="2.5" width="87" height="87" rx="4.5" stroke="url(#paint0_linear_59_159)" shape-rendering="crispEdges"/>
</g>
<defs>
<filter id="filter0_d_59_159" x="0" y="0" width="96" height="96" filterUnits="userSpaceOnUse" color-interpolation-filters="sRGB">
<feFlood flood-opacity="0" result="BackgroundImageFix"/>
<feColorMatrix in="SourceAlpha" type="matrix" values="0 0 0 0 0 0 0 0 0 0 0 0 0 0 0 0 0 0 127 0" result="hardAlpha"/>
<feOffset dy="2"/>
<feGaussianBlur stdDeviation="2"/>
<feComposite in2="hardAlpha" operator="out"/>
<feColorMatrix type="matrix" values="0 0 0 0 0 0 0 0 0 0 0 0 0 0 0 0 0 0 0.53 0"/>
<feBlend mode="normal" in2="BackgroundImageFix" result="effect1_dropShadow_59_159"/>
<feBlend mode="normal" in="SourceGraphic" in2="effect1_dropShadow_59_159" result="shape"/>
</filter>
<linearGradient id="paint0_linear_59_159" x1="48" y1="2" x2="48" y2="90" gradientUnits="userSpaceOnUse">
<stop stop-color="#B9B9B9"/>
<stop offset="1" stop-opacity="0"/>
<stop offset="1"/>
</linearGradient>
<clipPath id="clip0_59_159">
<rect width="54.2667" height="44" fill="white" transform="translate(20.1338 24)"/>
</clipPath>
</defs>
</svg>
