<svg width="96" height="96" viewBox="0 0 96 96" fill="none" xmlns="http://www.w3.org/2000/svg">
<path d="M67.0668 24H27.4668L28.5396 31.642H47.3311L28.84 39.497L29.9123 46.8845H57.1563L56.1693 57.2016L46.9449 58.9851L38.5791 56.8623L37.9353 51.0029H30.2556L31.285 63.1887L47.7601 67.7316L63.5491 62.7642L65.5655 38.9447H48.8752L67.0663 31.4724L67.0668 24Z" fill="#B8B8B8"/>
<path d="M67.0668 24H27.4668L28.5396 31.642H47.3311L28.84 39.497L29.9123 46.8845H57.1563L56.1693 57.2016L46.9449 58.9851L38.5791 56.8623L37.9353 51.0029H30.2556L31.285 63.1887L47.7601 67.7316L63.5491 62.7642L65.5655 38.9447H48.8752L67.0663 31.4724L67.0668 24Z" fill="#B8B8B8"/>
<path d="M67.0668 24H27.4668L28.5396 31.642H47.3311L28.84 39.497L29.9123 46.8845H57.1563L56.1693 57.2016L46.9449 58.9851L38.5791 56.8623L37.9353 51.0029H30.2556L31.285 63.1887L47.7601 67.7316L63.5491 62.7642L65.5655 38.9447H48.8752L67.0663 31.4724L67.0668 24Z" fill="#E0E0E0"/>
<path d="M67.0668 24H27.4668L28.5396 31.642H47.3311L28.84 39.497L29.9123 46.8845H57.1563L56.1693 57.2016L46.9449 58.9851L38.5791 56.8623L37.9353 51.0029H30.2556L31.285 63.1887L47.7601 67.7316L63.5491 62.7642L65.5655 38.9447H48.8752L67.0663 31.4724L67.0668 24Z" fill="#E0E0E0"/>
<g filter="url(#filter0_d_59_152)">
<rect x="4.5" y="2.5" width="87" height="87" rx="4.5" stroke="url(#paint0_linear_59_152)" shape-rendering="crispEdges"/>
</g>
<defs>
<filter id="filter0_d_59_152" x="0" y="0" width="96" height="96" filterUnits="userSpaceOnUse" color-interpolation-filters="sRGB">
<feFlood flood-opacity="0" result="BackgroundImageFix"/>
<feColorMatrix in="SourceAlpha" type="matrix" values="0 0 0 0 0 0 0 0 0 0 0 0 0 0 0 0 0 0 127 0" result="hardAlpha"/>
<feOffset dy="2"/>
<feGaussianBlur stdDeviation="2"/>
<feComposite in2="hardAlpha" operator="out"/>
<feColorMatrix type="matrix" values="0 0 0 0 0 0 0 0 0 0 0 0 0 0 0 0 0 0 0.53 0"/>
<feBlend mode="normal" in2="BackgroundImageFix" result="effect1_dropShadow_59_152"/>
<feBlend mode="normal" in="SourceGraphic" in2="effect1_dropShadow_59_152" result="shape"/>
</filter>
<linearGradient id="paint0_linear_59_152" x1="48" y1="2" x2="48" y2="90" gradientUnits="userSpaceOnUse">
<stop stop-color="#B9B9B9"/>
<stop offset="1" stop-opacity="0"/>
<stop offset="1"/>
</linearGradient>
</defs>
</svg>
