<svg width="96" height="96" viewBox="0 0 96 96" fill="none" xmlns="http://www.w3.org/2000/svg">
<path d="M69.2714 31.7278L70.0004 24H30.4004L32.5883 47.6922H59.918L58.8463 57.7972L50.0938 60.132L41.2127 57.5847L40.7409 51.5556H32.8887L33.9615 63.8687L50.0933 68.3268L66.3536 63.8687L68.5415 39.8372H39.8395L39.0243 31.7278H69.2714Z" fill="#B8B8B8"/>
<path d="M69.2714 31.7278L70.0004 24H30.4004L32.5883 47.6922H59.918L58.8463 57.7972L50.0938 60.132L41.2127 57.5847L40.7409 51.5556H32.8887L33.9615 63.8687L50.0933 68.3268L66.3536 63.8687L68.5415 39.8372H39.8395L39.0243 31.7278H69.2714Z" fill="#B8B8B8"/>
<path d="M69.2714 31.7278L70.0004 24H30.4004L32.5883 47.6922H59.918L58.8463 57.7972L50.0938 60.132L41.2127 57.5847L40.7409 51.5556H32.8887L33.9615 63.8687L50.0933 68.3268L66.3536 63.8687L68.5415 39.8372H39.8395L39.0243 31.7278H69.2714Z" fill="#E0E0E0"/>
<path d="M69.2714 31.7278L70.0004 24H30.4004L32.5883 47.6922H59.918L58.8463 57.7972L50.0938 60.132L41.2127 57.5847L40.7409 51.5556H32.8887L33.9615 63.8687L50.0933 68.3268L66.3536 63.8687L68.5415 39.8372H39.8395L39.0243 31.7278H69.2714Z" fill="#E0E0E0"/>
<g filter="url(#filter0_d_59_118)">
<rect x="4.5" y="2.5" width="87" height="87" rx="4.5" stroke="url(#paint0_linear_59_118)" shape-rendering="crispEdges"/>
</g>
<defs>
<filter id="filter0_d_59_118" x="0" y="0" width="96" height="96" filterUnits="userSpaceOnUse" color-interpolation-filters="sRGB">
<feFlood flood-opacity="0" result="BackgroundImageFix"/>
<feColorMatrix in="SourceAlpha" type="matrix" values="0 0 0 0 0 0 0 0 0 0 0 0 0 0 0 0 0 0 127 0" result="hardAlpha"/>
<feOffset dy="2"/>
<feGaussianBlur stdDeviation="2"/>
<feComposite in2="hardAlpha" operator="out"/>
<feColorMatrix type="matrix" values="0 0 0 0 0 0 0 0 0 0 0 0 0 0 0 0 0 0 0.53 0"/>
<feBlend mode="normal" in2="BackgroundImageFix" result="effect1_dropShadow_59_118"/>
<feBlend mode="normal" in="SourceGraphic" in2="effect1_dropShadow_59_118" result="shape"/>
</filter>
<linearGradient id="paint0_linear_59_118" x1="48" y1="2" x2="48" y2="90" gradientUnits="userSpaceOnUse">
<stop stop-color="#B9B9B9"/>
<stop offset="1" stop-opacity="0"/>
<stop offset="1"/>
</linearGradient>
</defs>
</svg>
