<svg width="96" height="96" viewBox="0 0 96 96" fill="none" xmlns="http://www.w3.org/2000/svg">
<g filter="url(#filter0_d_59_128)">
<rect x="4.5" y="2.5" width="87" height="87" rx="4.5" stroke="url(#paint0_linear_59_128)" shape-rendering="crispEdges"/>
</g>
<g clip-path="url(#clip0_59_128)">
<path d="M67.0668 46.444C67.0668 43.8348 63.7816 41.3621 58.7448 39.8287C59.9072 34.7227 59.3906 30.6604 57.1143 29.3598C56.5897 29.0548 55.9762 28.9102 55.3063 28.9102V30.7006C55.6776 30.7006 55.9762 30.7728 56.2264 30.9093C57.3242 31.5355 57.8004 33.9199 57.4291 36.9867C57.3403 37.7413 57.195 38.5361 57.0175 39.347C55.4354 38.9616 53.7081 38.6646 51.8919 38.4719C50.8022 36.9867 49.6722 35.6379 48.5341 34.4578C51.1655 32.0252 53.6354 30.6925 55.3143 30.6925V28.9022C53.0946 28.9022 50.1888 30.4758 47.2507 33.2054C44.3125 30.4918 41.4067 28.9343 39.187 28.9343V30.7246C40.8578 30.7246 43.3359 32.0493 45.9672 34.4658C44.8372 35.646 43.7072 36.9867 42.6336 38.4719C40.8094 38.6646 39.082 38.9616 37.5 39.355C37.3143 38.5522 37.1771 37.7735 37.0802 37.0268C36.7009 33.96 37.169 31.5756 38.2587 30.9414C38.5009 30.7969 38.8157 30.7327 39.187 30.7327V28.9424C38.5089 28.9424 37.8955 29.0869 37.3628 29.3919C35.0946 30.6925 34.5861 34.7468 35.7565 39.8367C30.7359 41.3782 27.4668 43.8428 27.4668 46.444C27.4668 49.0532 30.752 51.5259 35.7888 53.0593C34.6264 58.1653 35.143 62.2276 37.4193 63.5281C37.9439 63.8332 38.5574 63.9777 39.2354 63.9777C41.4551 63.9777 44.361 62.4042 47.2991 59.6746C50.2372 62.3881 53.143 63.9456 55.3628 63.9456C56.0408 63.9456 56.6542 63.8011 57.187 63.496C59.4551 62.1955 59.9637 58.1412 58.7933 53.0513C63.7977 51.5179 67.0668 49.0451 67.0668 46.444V46.444ZM56.5574 41.0891C56.2587 42.1248 55.8874 43.1925 55.4677 44.2603C55.1367 43.618 54.7897 42.9758 54.4103 42.3335C54.039 41.6913 53.6435 41.065 53.248 40.4549C54.3942 40.6235 55.5 40.8322 56.5574 41.0891ZM52.8605 49.6392C52.2309 50.7231 51.5852 51.7507 50.9152 52.706C49.7125 52.8104 48.4937 52.8666 47.2668 52.8666C46.048 52.8666 44.8291 52.8104 43.6345 52.7141C42.9646 51.7587 42.3107 50.7391 41.6811 49.6633C41.0677 48.6116 40.5107 47.5439 40.0022 46.4681C40.5027 45.3923 41.0677 44.3165 41.6731 43.2648C42.3027 42.181 42.9484 41.1534 43.6184 40.198C44.8211 40.0936 46.0399 40.0374 47.2668 40.0374C48.4856 40.0374 49.7045 40.0936 50.8991 40.19C51.569 41.1453 52.2229 42.1649 52.8524 43.2407C53.4659 44.2924 54.0228 45.3602 54.5314 46.436C54.0228 47.5117 53.4659 48.5875 52.8605 49.6392ZM55.4677 48.5956C55.9036 49.6714 56.2749 50.7471 56.5816 51.7908C55.5242 52.0477 54.4103 52.2645 53.256 52.4331C53.6516 51.8149 54.0471 51.1807 54.4184 50.5304C54.7897 49.8881 55.1367 49.2378 55.4677 48.5956ZM47.2829 57.1617C46.5323 56.391 45.7816 55.532 45.039 54.5927C45.7655 54.6248 46.5081 54.6489 47.2587 54.6489C48.0175 54.6489 48.7681 54.6328 49.5027 54.5927C48.7762 55.532 48.0255 56.391 47.2829 57.1617ZM41.2776 52.4331C40.1314 52.2645 39.0255 52.0557 37.9681 51.7988C38.2668 50.7632 38.6381 49.6954 39.0578 48.6277C39.3888 49.2699 39.7359 49.9122 40.1152 50.5545C40.4946 51.1967 40.882 51.8229 41.2776 52.4331ZM47.2426 35.7263C47.9933 36.497 48.7439 37.356 49.4865 38.2953C48.7601 38.2632 48.0175 38.2391 47.2668 38.2391C46.5081 38.2391 45.7574 38.2552 45.0229 38.2953C45.7493 37.356 46.5 36.497 47.2426 35.7263ZM41.2695 40.4549C40.874 41.0731 40.4785 41.7073 40.1072 42.3576C39.7359 42.9999 39.3888 43.6421 39.0578 44.2844C38.622 43.2086 38.2507 42.1328 37.9439 41.0891C39.0013 40.8403 40.1152 40.6235 41.2695 40.4549V40.4549ZM33.9646 50.5063C31.1072 49.294 29.2587 47.7044 29.2587 46.444C29.2587 45.1836 31.1072 43.5859 33.9646 42.3817C34.6587 42.0846 35.4175 41.8197 36.2004 41.5708C36.6605 43.1444 37.2659 44.7821 38.0166 46.46C37.274 48.1299 36.6767 49.7597 36.2246 51.3252C35.4255 51.0763 34.6668 50.8033 33.9646 50.5063ZM38.3072 61.9787C37.2094 61.3525 36.7332 58.9681 37.1045 55.9013C37.1933 55.1466 37.3385 54.3518 37.5161 53.541C39.0982 53.9263 40.8255 54.2234 42.6417 54.4161C43.7314 55.9013 44.8614 57.25 45.9995 58.4302C43.3681 60.8628 40.8982 62.1955 39.2193 62.1955C38.856 62.1874 38.5493 62.1152 38.3072 61.9787V61.9787ZM57.4533 55.8611C57.8327 58.9279 57.3646 61.3123 56.2749 61.9466C56.0327 62.0911 55.7179 62.1553 55.3466 62.1553C53.6758 62.1553 51.1977 60.8306 48.5664 58.4141C49.6964 57.234 50.8264 55.8933 51.9 54.408C53.7242 54.2154 55.4515 53.9183 57.0336 53.5249C57.2193 54.3358 57.3646 55.1145 57.4533 55.8611V55.8611ZM60.561 50.5063C59.8668 50.8033 59.1081 51.0683 58.3251 51.3171C57.865 49.7436 57.2596 48.1058 56.5089 46.4279C57.2515 44.7581 57.8489 43.1283 58.3009 41.5628C59.1 41.8117 59.8587 42.0846 60.569 42.3817C63.4264 43.594 65.2749 45.1836 65.2749 46.444C65.2668 47.7044 63.4184 49.3021 60.561 50.5063V50.5063Z" fill="#A8B8B8"/>
<path d="M67.0668 46.444C67.0668 43.8348 63.7816 41.3621 58.7448 39.8287C59.9072 34.7227 59.3906 30.6604 57.1143 29.3598C56.5897 29.0548 55.9762 28.9102 55.3063 28.9102V30.7006C55.6776 30.7006 55.9762 30.7728 56.2264 30.9093C57.3242 31.5355 57.8004 33.9199 57.4291 36.9867C57.3403 37.7413 57.195 38.5361 57.0175 39.347C55.4354 38.9616 53.7081 38.6646 51.8919 38.4719C50.8022 36.9867 49.6722 35.6379 48.5341 34.4578C51.1655 32.0252 53.6354 30.6925 55.3143 30.6925V28.9022C53.0946 28.9022 50.1888 30.4758 47.2507 33.2054C44.3125 30.4918 41.4067 28.9343 39.187 28.9343V30.7246C40.8578 30.7246 43.3359 32.0493 45.9672 34.4658C44.8372 35.646 43.7072 36.9867 42.6336 38.4719C40.8094 38.6646 39.082 38.9616 37.5 39.355C37.3143 38.5522 37.1771 37.7735 37.0802 37.0268C36.7009 33.96 37.169 31.5756 38.2587 30.9414C38.5009 30.7969 38.8157 30.7327 39.187 30.7327V28.9424C38.5089 28.9424 37.8955 29.0869 37.3628 29.3919C35.0946 30.6925 34.5861 34.7468 35.7565 39.8367C30.7359 41.3782 27.4668 43.8428 27.4668 46.444C27.4668 49.0532 30.752 51.5259 35.7888 53.0593C34.6264 58.1653 35.143 62.2276 37.4193 63.5281C37.9439 63.8332 38.5574 63.9777 39.2354 63.9777C41.4551 63.9777 44.361 62.4042 47.2991 59.6746C50.2372 62.3881 53.143 63.9456 55.3628 63.9456C56.0408 63.9456 56.6542 63.8011 57.187 63.496C59.4551 62.1955 59.9637 58.1412 58.7933 53.0513C63.7977 51.5179 67.0668 49.0451 67.0668 46.444V46.444ZM56.5574 41.0891C56.2587 42.1248 55.8874 43.1925 55.4677 44.2603C55.1367 43.618 54.7897 42.9758 54.4103 42.3335C54.039 41.6913 53.6435 41.065 53.248 40.4549C54.3942 40.6235 55.5 40.8322 56.5574 41.0891ZM52.8605 49.6392C52.2309 50.7231 51.5852 51.7507 50.9152 52.706C49.7125 52.8104 48.4937 52.8666 47.2668 52.8666C46.048 52.8666 44.8291 52.8104 43.6345 52.7141C42.9646 51.7587 42.3107 50.7391 41.6811 49.6633C41.0677 48.6116 40.5107 47.5439 40.0022 46.4681C40.5027 45.3923 41.0677 44.3165 41.6731 43.2648C42.3027 42.181 42.9484 41.1534 43.6184 40.198C44.8211 40.0936 46.0399 40.0374 47.2668 40.0374C48.4856 40.0374 49.7045 40.0936 50.8991 40.19C51.569 41.1453 52.2229 42.1649 52.8524 43.2407C53.4659 44.2924 54.0228 45.3602 54.5314 46.436C54.0228 47.5117 53.4659 48.5875 52.8605 49.6392ZM55.4677 48.5956C55.9036 49.6714 56.2749 50.7471 56.5816 51.7908C55.5242 52.0477 54.4103 52.2645 53.256 52.4331C53.6516 51.8149 54.0471 51.1807 54.4184 50.5304C54.7897 49.8881 55.1367 49.2378 55.4677 48.5956ZM47.2829 57.1617C46.5323 56.391 45.7816 55.532 45.039 54.5927C45.7655 54.6248 46.5081 54.6489 47.2587 54.6489C48.0175 54.6489 48.7681 54.6328 49.5027 54.5927C48.7762 55.532 48.0255 56.391 47.2829 57.1617ZM41.2776 52.4331C40.1314 52.2645 39.0255 52.0557 37.9681 51.7988C38.2668 50.7632 38.6381 49.6954 39.0578 48.6277C39.3888 49.2699 39.7359 49.9122 40.1152 50.5545C40.4946 51.1967 40.882 51.8229 41.2776 52.4331ZM47.2426 35.7263C47.9933 36.497 48.7439 37.356 49.4865 38.2953C48.7601 38.2632 48.0175 38.2391 47.2668 38.2391C46.5081 38.2391 45.7574 38.2552 45.0229 38.2953C45.7493 37.356 46.5 36.497 47.2426 35.7263ZM41.2695 40.4549C40.874 41.0731 40.4785 41.7073 40.1072 42.3576C39.7359 42.9999 39.3888 43.6421 39.0578 44.2844C38.622 43.2086 38.2507 42.1328 37.9439 41.0891C39.0013 40.8403 40.1152 40.6235 41.2695 40.4549V40.4549ZM33.9646 50.5063C31.1072 49.294 29.2587 47.7044 29.2587 46.444C29.2587 45.1836 31.1072 43.5859 33.9646 42.3817C34.6587 42.0846 35.4175 41.8197 36.2004 41.5708C36.6605 43.1444 37.2659 44.7821 38.0166 46.46C37.274 48.1299 36.6767 49.7597 36.2246 51.3252C35.4255 51.0763 34.6668 50.8033 33.9646 50.5063ZM38.3072 61.9787C37.2094 61.3525 36.7332 58.9681 37.1045 55.9013C37.1933 55.1466 37.3385 54.3518 37.5161 53.541C39.0982 53.9263 40.8255 54.2234 42.6417 54.4161C43.7314 55.9013 44.8614 57.25 45.9995 58.4302C43.3681 60.8628 40.8982 62.1955 39.2193 62.1955C38.856 62.1874 38.5493 62.1152 38.3072 61.9787V61.9787ZM57.4533 55.8611C57.8327 58.9279 57.3646 61.3123 56.2749 61.9466C56.0327 62.0911 55.7179 62.1553 55.3466 62.1553C53.6758 62.1553 51.1977 60.8306 48.5664 58.4141C49.6964 57.234 50.8264 55.8933 51.9 54.408C53.7242 54.2154 55.4515 53.9183 57.0336 53.5249C57.2193 54.3358 57.3646 55.1145 57.4533 55.8611V55.8611ZM60.561 50.5063C59.8668 50.8033 59.1081 51.0683 58.3251 51.3171C57.865 49.7436 57.2596 48.1058 56.5089 46.4279C57.2515 44.7581 57.8489 43.1283 58.3009 41.5628C59.1 41.8117 59.8587 42.0846 60.569 42.3817C63.4264 43.594 65.2749 45.1836 65.2749 46.444C65.2668 47.7044 63.4184 49.3021 60.561 50.5063V50.5063Z" fill="#B8B8B8"/>
<path d="M67.0668 46.444C67.0668 43.8348 63.7816 41.3621 58.7448 39.8287C59.9072 34.7227 59.3906 30.6604 57.1143 29.3598C56.5897 29.0548 55.9762 28.9102 55.3063 28.9102V30.7006C55.6776 30.7006 55.9762 30.7728 56.2264 30.9093C57.3242 31.5355 57.8004 33.9199 57.4291 36.9867C57.3403 37.7413 57.195 38.5361 57.0175 39.347C55.4354 38.9616 53.7081 38.6646 51.8919 38.4719C50.8022 36.9867 49.6722 35.6379 48.5341 34.4578C51.1655 32.0252 53.6354 30.6925 55.3143 30.6925V28.9022C53.0946 28.9022 50.1888 30.4758 47.2507 33.2054C44.3125 30.4918 41.4067 28.9343 39.187 28.9343V30.7246C40.8578 30.7246 43.3359 32.0493 45.9672 34.4658C44.8372 35.646 43.7072 36.9867 42.6336 38.4719C40.8094 38.6646 39.082 38.9616 37.5 39.355C37.3143 38.5522 37.1771 37.7735 37.0802 37.0268C36.7009 33.96 37.169 31.5756 38.2587 30.9414C38.5009 30.7969 38.8157 30.7327 39.187 30.7327V28.9424C38.5089 28.9424 37.8955 29.0869 37.3628 29.3919C35.0946 30.6925 34.5861 34.7468 35.7565 39.8367C30.7359 41.3782 27.4668 43.8428 27.4668 46.444C27.4668 49.0532 30.752 51.5259 35.7888 53.0593C34.6264 58.1653 35.143 62.2276 37.4193 63.5281C37.9439 63.8332 38.5574 63.9777 39.2354 63.9777C41.4551 63.9777 44.361 62.4042 47.2991 59.6746C50.2372 62.3881 53.143 63.9456 55.3628 63.9456C56.0408 63.9456 56.6542 63.8011 57.187 63.496C59.4551 62.1955 59.9637 58.1412 58.7933 53.0513C63.7977 51.5179 67.0668 49.0451 67.0668 46.444V46.444ZM56.5574 41.0891C56.2587 42.1248 55.8874 43.1925 55.4677 44.2603C55.1367 43.618 54.7897 42.9758 54.4103 42.3335C54.039 41.6913 53.6435 41.065 53.248 40.4549C54.3942 40.6235 55.5 40.8322 56.5574 41.0891ZM52.8605 49.6392C52.2309 50.7231 51.5852 51.7507 50.9152 52.706C49.7125 52.8104 48.4937 52.8666 47.2668 52.8666C46.048 52.8666 44.8291 52.8104 43.6345 52.7141C42.9646 51.7587 42.3107 50.7391 41.6811 49.6633C41.0677 48.6116 40.5107 47.5439 40.0022 46.4681C40.5027 45.3923 41.0677 44.3165 41.6731 43.2648C42.3027 42.181 42.9484 41.1534 43.6184 40.198C44.8211 40.0936 46.0399 40.0374 47.2668 40.0374C48.4856 40.0374 49.7045 40.0936 50.8991 40.19C51.569 41.1453 52.2229 42.1649 52.8524 43.2407C53.4659 44.2924 54.0228 45.3602 54.5314 46.436C54.0228 47.5117 53.4659 48.5875 52.8605 49.6392ZM55.4677 48.5956C55.9036 49.6714 56.2749 50.7471 56.5816 51.7908C55.5242 52.0477 54.4103 52.2645 53.256 52.4331C53.6516 51.8149 54.0471 51.1807 54.4184 50.5304C54.7897 49.8881 55.1367 49.2378 55.4677 48.5956ZM47.2829 57.1617C46.5323 56.391 45.7816 55.532 45.039 54.5927C45.7655 54.6248 46.5081 54.6489 47.2587 54.6489C48.0175 54.6489 48.7681 54.6328 49.5027 54.5927C48.7762 55.532 48.0255 56.391 47.2829 57.1617ZM41.2776 52.4331C40.1314 52.2645 39.0255 52.0557 37.9681 51.7988C38.2668 50.7632 38.6381 49.6954 39.0578 48.6277C39.3888 49.2699 39.7359 49.9122 40.1152 50.5545C40.4946 51.1967 40.882 51.8229 41.2776 52.4331ZM47.2426 35.7263C47.9933 36.497 48.7439 37.356 49.4865 38.2953C48.7601 38.2632 48.0175 38.2391 47.2668 38.2391C46.5081 38.2391 45.7574 38.2552 45.0229 38.2953C45.7493 37.356 46.5 36.497 47.2426 35.7263ZM41.2695 40.4549C40.874 41.0731 40.4785 41.7073 40.1072 42.3576C39.7359 42.9999 39.3888 43.6421 39.0578 44.2844C38.622 43.2086 38.2507 42.1328 37.9439 41.0891C39.0013 40.8403 40.1152 40.6235 41.2695 40.4549V40.4549ZM33.9646 50.5063C31.1072 49.294 29.2587 47.7044 29.2587 46.444C29.2587 45.1836 31.1072 43.5859 33.9646 42.3817C34.6587 42.0846 35.4175 41.8197 36.2004 41.5708C36.6605 43.1444 37.2659 44.7821 38.0166 46.46C37.274 48.1299 36.6767 49.7597 36.2246 51.3252C35.4255 51.0763 34.6668 50.8033 33.9646 50.5063ZM38.3072 61.9787C37.2094 61.3525 36.7332 58.9681 37.1045 55.9013C37.1933 55.1466 37.3385 54.3518 37.5161 53.541C39.0982 53.9263 40.8255 54.2234 42.6417 54.4161C43.7314 55.9013 44.8614 57.25 45.9995 58.4302C43.3681 60.8628 40.8982 62.1955 39.2193 62.1955C38.856 62.1874 38.5493 62.1152 38.3072 61.9787V61.9787ZM57.4533 55.8611C57.8327 58.9279 57.3646 61.3123 56.2749 61.9466C56.0327 62.0911 55.7179 62.1553 55.3466 62.1553C53.6758 62.1553 51.1977 60.8306 48.5664 58.4141C49.6964 57.234 50.8264 55.8933 51.9 54.408C53.7242 54.2154 55.4515 53.9183 57.0336 53.5249C57.2193 54.3358 57.3646 55.1145 57.4533 55.8611V55.8611ZM60.561 50.5063C59.8668 50.8033 59.1081 51.0683 58.3251 51.3171C57.865 49.7436 57.2596 48.1058 56.5089 46.4279C57.2515 44.7581 57.8489 43.1283 58.3009 41.5628C59.1 41.8117 59.8587 42.0846 60.569 42.3817C63.4264 43.594 65.2749 45.1836 65.2749 46.444C65.2668 47.7044 63.4184 49.3021 60.561 50.5063V50.5063Z" fill="#E0E0E0"/>
<path d="M67.0668 46.444C67.0668 43.8348 63.7816 41.3621 58.7448 39.8287C59.9072 34.7227 59.3906 30.6604 57.1143 29.3598C56.5897 29.0548 55.9762 28.9102 55.3063 28.9102V30.7006C55.6776 30.7006 55.9762 30.7728 56.2264 30.9093C57.3242 31.5355 57.8004 33.9199 57.4291 36.9867C57.3403 37.7413 57.195 38.5361 57.0175 39.347C55.4354 38.9616 53.7081 38.6646 51.8919 38.4719C50.8022 36.9867 49.6722 35.6379 48.5341 34.4578C51.1655 32.0252 53.6354 30.6925 55.3143 30.6925V28.9022C53.0946 28.9022 50.1888 30.4758 47.2507 33.2054C44.3125 30.4918 41.4067 28.9343 39.187 28.9343V30.7246C40.8578 30.7246 43.3359 32.0493 45.9672 34.4658C44.8372 35.646 43.7072 36.9867 42.6336 38.4719C40.8094 38.6646 39.082 38.9616 37.5 39.355C37.3143 38.5522 37.1771 37.7735 37.0802 37.0268C36.7009 33.96 37.169 31.5756 38.2587 30.9414C38.5009 30.7969 38.8157 30.7327 39.187 30.7327V28.9424C38.5089 28.9424 37.8955 29.0869 37.3628 29.3919C35.0946 30.6925 34.5861 34.7468 35.7565 39.8367C30.7359 41.3782 27.4668 43.8428 27.4668 46.444C27.4668 49.0532 30.752 51.5259 35.7888 53.0593C34.6264 58.1653 35.143 62.2276 37.4193 63.5281C37.9439 63.8332 38.5574 63.9777 39.2354 63.9777C41.4551 63.9777 44.361 62.4042 47.2991 59.6746C50.2372 62.3881 53.143 63.9456 55.3628 63.9456C56.0408 63.9456 56.6542 63.8011 57.187 63.496C59.4551 62.1955 59.9637 58.1412 58.7933 53.0513C63.7977 51.5179 67.0668 49.0451 67.0668 46.444V46.444ZM56.5574 41.0891C56.2587 42.1248 55.8874 43.1925 55.4677 44.2603C55.1367 43.618 54.7897 42.9758 54.4103 42.3335C54.039 41.6913 53.6435 41.065 53.248 40.4549C54.3942 40.6235 55.5 40.8322 56.5574 41.0891ZM52.8605 49.6392C52.2309 50.7231 51.5852 51.7507 50.9152 52.706C49.7125 52.8104 48.4937 52.8666 47.2668 52.8666C46.048 52.8666 44.8291 52.8104 43.6345 52.7141C42.9646 51.7587 42.3107 50.7391 41.6811 49.6633C41.0677 48.6116 40.5107 47.5439 40.0022 46.4681C40.5027 45.3923 41.0677 44.3165 41.6731 43.2648C42.3027 42.181 42.9484 41.1534 43.6184 40.198C44.8211 40.0936 46.0399 40.0374 47.2668 40.0374C48.4856 40.0374 49.7045 40.0936 50.8991 40.19C51.569 41.1453 52.2229 42.1649 52.8524 43.2407C53.4659 44.2924 54.0228 45.3602 54.5314 46.436C54.0228 47.5117 53.4659 48.5875 52.8605 49.6392ZM55.4677 48.5956C55.9036 49.6714 56.2749 50.7471 56.5816 51.7908C55.5242 52.0477 54.4103 52.2645 53.256 52.4331C53.6516 51.8149 54.0471 51.1807 54.4184 50.5304C54.7897 49.8881 55.1367 49.2378 55.4677 48.5956ZM47.2829 57.1617C46.5323 56.391 45.7816 55.532 45.039 54.5927C45.7655 54.6248 46.5081 54.6489 47.2587 54.6489C48.0175 54.6489 48.7681 54.6328 49.5027 54.5927C48.7762 55.532 48.0255 56.391 47.2829 57.1617ZM41.2776 52.4331C40.1314 52.2645 39.0255 52.0557 37.9681 51.7988C38.2668 50.7632 38.6381 49.6954 39.0578 48.6277C39.3888 49.2699 39.7359 49.9122 40.1152 50.5545C40.4946 51.1967 40.882 51.8229 41.2776 52.4331ZM47.2426 35.7263C47.9933 36.497 48.7439 37.356 49.4865 38.2953C48.7601 38.2632 48.0175 38.2391 47.2668 38.2391C46.5081 38.2391 45.7574 38.2552 45.0229 38.2953C45.7493 37.356 46.5 36.497 47.2426 35.7263ZM41.2695 40.4549C40.874 41.0731 40.4785 41.7073 40.1072 42.3576C39.7359 42.9999 39.3888 43.6421 39.0578 44.2844C38.622 43.2086 38.2507 42.1328 37.9439 41.0891C39.0013 40.8403 40.1152 40.6235 41.2695 40.4549V40.4549ZM33.9646 50.5063C31.1072 49.294 29.2587 47.7044 29.2587 46.444C29.2587 45.1836 31.1072 43.5859 33.9646 42.3817C34.6587 42.0846 35.4175 41.8197 36.2004 41.5708C36.6605 43.1444 37.2659 44.7821 38.0166 46.46C37.274 48.1299 36.6767 49.7597 36.2246 51.3252C35.4255 51.0763 34.6668 50.8033 33.9646 50.5063ZM38.3072 61.9787C37.2094 61.3525 36.7332 58.9681 37.1045 55.9013C37.1933 55.1466 37.3385 54.3518 37.5161 53.541C39.0982 53.9263 40.8255 54.2234 42.6417 54.4161C43.7314 55.9013 44.8614 57.25 45.9995 58.4302C43.3681 60.8628 40.8982 62.1955 39.2193 62.1955C38.856 62.1874 38.5493 62.1152 38.3072 61.9787V61.9787ZM57.4533 55.8611C57.8327 58.9279 57.3646 61.3123 56.2749 61.9466C56.0327 62.0911 55.7179 62.1553 55.3466 62.1553C53.6758 62.1553 51.1977 60.8306 48.5664 58.4141C49.6964 57.234 50.8264 55.8933 51.9 54.408C53.7242 54.2154 55.4515 53.9183 57.0336 53.5249C57.2193 54.3358 57.3646 55.1145 57.4533 55.8611V55.8611ZM60.561 50.5063C59.8668 50.8033 59.1081 51.0683 58.3251 51.3171C57.865 49.7436 57.2596 48.1058 56.5089 46.4279C57.2515 44.7581 57.8489 43.1283 58.3009 41.5628C59.1 41.8117 59.8587 42.0846 60.569 42.3817C63.4264 43.594 65.2749 45.1836 65.2749 46.444C65.2668 47.7044 63.4184 49.3021 60.561 50.5063V50.5063Z" fill="#E0E0E0"/>
<path d="M47.2591 50.1129C49.2964 50.1129 50.9479 48.4702 50.9479 46.4439C50.9479 44.4177 49.2964 42.775 47.2591 42.775C45.2218 42.775 43.5703 44.4177 43.5703 46.4439C43.5703 48.4702 45.2218 50.1129 47.2591 50.1129Z" fill="#B8B8B8"/>
<path d="M47.2591 50.1129C49.2964 50.1129 50.9479 48.4702 50.9479 46.4439C50.9479 44.4177 49.2964 42.775 47.2591 42.775C45.2218 42.775 43.5703 44.4177 43.5703 46.4439C43.5703 48.4702 45.2218 50.1129 47.2591 50.1129Z" fill="#B8B8B8"/>
<path d="M47.2591 50.1129C49.2964 50.1129 50.9479 48.4702 50.9479 46.4439C50.9479 44.4177 49.2964 42.775 47.2591 42.775C45.2218 42.775 43.5703 44.4177 43.5703 46.4439C43.5703 48.4702 45.2218 50.1129 47.2591 50.1129Z" fill="#E0E0E0"/>
<path d="M47.2591 50.1129C49.2964 50.1129 50.9479 48.4702 50.9479 46.4439C50.9479 44.4177 49.2964 42.775 47.2591 42.775C45.2218 42.775 43.5703 44.4177 43.5703 46.4439C43.5703 48.4702 45.2218 50.1129 47.2591 50.1129Z" fill="#E0E0E0"/>
</g>
<defs>
<filter id="filter0_d_59_128" x="0" y="0" width="96" height="96" filterUnits="userSpaceOnUse" color-interpolation-filters="sRGB">
<feFlood flood-opacity="0" result="BackgroundImageFix"/>
<feColorMatrix in="SourceAlpha" type="matrix" values="0 0 0 0 0 0 0 0 0 0 0 0 0 0 0 0 0 0 127 0" result="hardAlpha"/>
<feOffset dy="2"/>
<feGaussianBlur stdDeviation="2"/>
<feComposite in2="hardAlpha" operator="out"/>
<feColorMatrix type="matrix" values="0 0 0 0 0 0 0 0 0 0 0 0 0 0 0 0 0 0 0.53 0"/>
<feBlend mode="normal" in2="BackgroundImageFix" result="effect1_dropShadow_59_128"/>
<feBlend mode="normal" in="SourceGraphic" in2="effect1_dropShadow_59_128" result="shape"/>
</filter>
<linearGradient id="paint0_linear_59_128" x1="48" y1="2" x2="48" y2="90" gradientUnits="userSpaceOnUse">
<stop stop-color="#B9B9B9"/>
<stop offset="1" stop-opacity="0"/>
<stop offset="1"/>
</linearGradient>
<clipPath id="clip0_59_128">
<rect width="39.6" height="44.88" fill="white" transform="translate(27.4668 24)"/>
</clipPath>
</defs>
</svg>
