<svg width="96" height="96" viewBox="0 0 96 96" fill="none" xmlns="http://www.w3.org/2000/svg">
<g clip-path="url(#clip0_59_122)">
<path d="M54.9054 51.5462C56.3667 51.3875 57.4754 50.0659 57.425 48.4798C57.3747 46.8938 56.1148 45.6249 54.603 45.6249H54.5023C52.94 45.6778 51.7306 47.0523 51.781 48.6912C51.8315 49.4843 52.1337 50.1716 52.5873 50.6474C50.874 54.1897 48.2535 56.7802 44.3229 58.9478C41.6521 60.4281 38.8806 60.9568 36.109 60.5868C33.8413 60.2696 32.0776 59.2123 30.9688 57.4674C29.3563 54.8769 29.2052 52.0748 30.5658 49.2728C31.5233 47.2638 33.0349 45.7834 33.9924 45.0433C33.7909 44.356 33.4885 43.1929 33.3373 42.3471C26.0304 47.8983 26.7863 55.4056 29.0036 58.9478C30.6665 61.5914 34.0429 63.2303 37.7719 63.2303C38.7797 63.2303 39.7875 63.1244 40.7954 62.8602C47.2458 61.5385 52.1339 57.5203 54.9054 51.5462V51.5462ZM63.7746 44.9905C59.9447 40.2852 54.3007 37.6946 47.8504 37.6946H47.0442C46.5907 36.743 45.6331 36.1085 44.5749 36.1085H44.4741C42.912 36.1614 41.7027 37.5359 41.753 39.175C41.8034 40.761 43.0632 42.0299 44.5749 42.0299H44.6756C45.7843 41.9769 46.7418 41.2368 47.1449 40.2323H48.052C51.8819 40.2323 55.5101 41.3953 58.7858 43.6687C61.3053 45.4134 63.1195 47.6869 64.1273 50.4359C64.9839 52.6564 64.9335 54.824 64.0264 56.6745C62.6155 59.4765 60.2471 61.0097 57.1227 61.0097C55.107 61.0097 53.1921 60.3752 52.1842 59.8994C51.6299 60.4281 50.622 61.2739 49.9164 61.8028C52.0835 62.8601 54.3007 63.4417 56.4172 63.4417C61.2549 63.4417 64.8328 60.6396 66.1934 57.8376C67.6548 54.7711 67.5539 49.4843 63.7746 44.9905V44.9905ZM38.175 52.4448C38.2255 54.031 39.4852 55.2997 40.997 55.2997H41.0979C42.66 55.2469 43.8694 53.8722 43.819 52.2334C43.7687 50.6472 42.5088 49.3785 40.997 49.3785H40.8963C40.7954 49.3785 40.6442 49.3785 40.5436 49.4312C38.4775 45.8362 37.6208 41.924 37.9232 37.6945C38.1246 34.5223 39.1326 31.7731 40.8963 29.4997C42.3576 27.5436 45.1796 26.5919 47.0946 26.5392C52.4361 26.4334 54.7037 33.412 54.855 36.2141C55.5101 36.3727 56.6187 36.7429 57.3747 37.0072C56.7699 28.4426 51.7306 24.0016 46.8931 24.0016C42.3576 24.0016 38.175 27.4381 36.512 32.5135C34.194 39.2806 35.7058 45.7834 38.5277 50.9117C38.2759 51.2817 38.1246 51.8633 38.175 52.445V52.4448Z" fill="#B8B8B8"/>
<path d="M54.9054 51.5462C56.3667 51.3875 57.4754 50.0659 57.425 48.4798C57.3747 46.8938 56.1148 45.6249 54.603 45.6249H54.5023C52.94 45.6778 51.7306 47.0523 51.781 48.6912C51.8315 49.4843 52.1337 50.1716 52.5873 50.6474C50.874 54.1897 48.2535 56.7802 44.3229 58.9478C41.6521 60.4281 38.8806 60.9568 36.109 60.5868C33.8413 60.2696 32.0776 59.2123 30.9688 57.4674C29.3563 54.8769 29.2052 52.0748 30.5658 49.2728C31.5233 47.2638 33.0349 45.7834 33.9924 45.0433C33.7909 44.356 33.4885 43.1929 33.3373 42.3471C26.0304 47.8983 26.7863 55.4056 29.0036 58.9478C30.6665 61.5914 34.0429 63.2303 37.7719 63.2303C38.7797 63.2303 39.7875 63.1244 40.7954 62.8602C47.2458 61.5385 52.1339 57.5203 54.9054 51.5462V51.5462ZM63.7746 44.9905C59.9447 40.2852 54.3007 37.6946 47.8504 37.6946H47.0442C46.5907 36.743 45.6331 36.1085 44.5749 36.1085H44.4741C42.912 36.1614 41.7027 37.5359 41.753 39.175C41.8034 40.761 43.0632 42.0299 44.5749 42.0299H44.6756C45.7843 41.9769 46.7418 41.2368 47.1449 40.2323H48.052C51.8819 40.2323 55.5101 41.3953 58.7858 43.6687C61.3053 45.4134 63.1195 47.6869 64.1273 50.4359C64.9839 52.6564 64.9335 54.824 64.0264 56.6745C62.6155 59.4765 60.2471 61.0097 57.1227 61.0097C55.107 61.0097 53.1921 60.3752 52.1842 59.8994C51.6299 60.4281 50.622 61.2739 49.9164 61.8028C52.0835 62.8601 54.3007 63.4417 56.4172 63.4417C61.2549 63.4417 64.8328 60.6396 66.1934 57.8376C67.6548 54.7711 67.5539 49.4843 63.7746 44.9905V44.9905ZM38.175 52.4448C38.2255 54.031 39.4852 55.2997 40.997 55.2997H41.0979C42.66 55.2469 43.8694 53.8722 43.819 52.2334C43.7687 50.6472 42.5088 49.3785 40.997 49.3785H40.8963C40.7954 49.3785 40.6442 49.3785 40.5436 49.4312C38.4775 45.8362 37.6208 41.924 37.9232 37.6945C38.1246 34.5223 39.1326 31.7731 40.8963 29.4997C42.3576 27.5436 45.1796 26.5919 47.0946 26.5392C52.4361 26.4334 54.7037 33.412 54.855 36.2141C55.5101 36.3727 56.6187 36.7429 57.3747 37.0072C56.7699 28.4426 51.7306 24.0016 46.8931 24.0016C42.3576 24.0016 38.175 27.4381 36.512 32.5135C34.194 39.2806 35.7058 45.7834 38.5277 50.9117C38.2759 51.2817 38.1246 51.8633 38.175 52.445V52.4448Z" fill="#B8B8B8"/>
<path d="M54.9054 51.5462C56.3667 51.3875 57.4754 50.0659 57.425 48.4798C57.3747 46.8938 56.1148 45.6249 54.603 45.6249H54.5023C52.94 45.6778 51.7306 47.0523 51.781 48.6912C51.8315 49.4843 52.1337 50.1716 52.5873 50.6474C50.874 54.1897 48.2535 56.7802 44.3229 58.9478C41.6521 60.4281 38.8806 60.9568 36.109 60.5868C33.8413 60.2696 32.0776 59.2123 30.9688 57.4674C29.3563 54.8769 29.2052 52.0748 30.5658 49.2728C31.5233 47.2638 33.0349 45.7834 33.9924 45.0433C33.7909 44.356 33.4885 43.1929 33.3373 42.3471C26.0304 47.8983 26.7863 55.4056 29.0036 58.9478C30.6665 61.5914 34.0429 63.2303 37.7719 63.2303C38.7797 63.2303 39.7875 63.1244 40.7954 62.8602C47.2458 61.5385 52.1339 57.5203 54.9054 51.5462V51.5462ZM63.7746 44.9905C59.9447 40.2852 54.3007 37.6946 47.8504 37.6946H47.0442C46.5907 36.743 45.6331 36.1085 44.5749 36.1085H44.4741C42.912 36.1614 41.7027 37.5359 41.753 39.175C41.8034 40.761 43.0632 42.0299 44.5749 42.0299H44.6756C45.7843 41.9769 46.7418 41.2368 47.1449 40.2323H48.052C51.8819 40.2323 55.5101 41.3953 58.7858 43.6687C61.3053 45.4134 63.1195 47.6869 64.1273 50.4359C64.9839 52.6564 64.9335 54.824 64.0264 56.6745C62.6155 59.4765 60.2471 61.0097 57.1227 61.0097C55.107 61.0097 53.1921 60.3752 52.1842 59.8994C51.6299 60.4281 50.622 61.2739 49.9164 61.8028C52.0835 62.8601 54.3007 63.4417 56.4172 63.4417C61.2549 63.4417 64.8328 60.6396 66.1934 57.8376C67.6548 54.7711 67.5539 49.4843 63.7746 44.9905V44.9905ZM38.175 52.4448C38.2255 54.031 39.4852 55.2997 40.997 55.2997H41.0979C42.66 55.2469 43.8694 53.8722 43.819 52.2334C43.7687 50.6472 42.5088 49.3785 40.997 49.3785H40.8963C40.7954 49.3785 40.6442 49.3785 40.5436 49.4312C38.4775 45.8362 37.6208 41.924 37.9232 37.6945C38.1246 34.5223 39.1326 31.7731 40.8963 29.4997C42.3576 27.5436 45.1796 26.5919 47.0946 26.5392C52.4361 26.4334 54.7037 33.412 54.855 36.2141C55.5101 36.3727 56.6187 36.7429 57.3747 37.0072C56.7699 28.4426 51.7306 24.0016 46.8931 24.0016C42.3576 24.0016 38.175 27.4381 36.512 32.5135C34.194 39.2806 35.7058 45.7834 38.5277 50.9117C38.2759 51.2817 38.1246 51.8633 38.175 52.445V52.4448Z" fill="#E0E0E0"/>
<path d="M54.9054 51.5462C56.3667 51.3875 57.4754 50.0659 57.425 48.4798C57.3747 46.8938 56.1148 45.6249 54.603 45.6249H54.5023C52.94 45.6778 51.7306 47.0523 51.781 48.6912C51.8315 49.4843 52.1337 50.1716 52.5873 50.6474C50.874 54.1897 48.2535 56.7802 44.3229 58.9478C41.6521 60.4281 38.8806 60.9568 36.109 60.5868C33.8413 60.2696 32.0776 59.2123 30.9688 57.4674C29.3563 54.8769 29.2052 52.0748 30.5658 49.2728C31.5233 47.2638 33.0349 45.7834 33.9924 45.0433C33.7909 44.356 33.4885 43.1929 33.3373 42.3471C26.0304 47.8983 26.7863 55.4056 29.0036 58.9478C30.6665 61.5914 34.0429 63.2303 37.7719 63.2303C38.7797 63.2303 39.7875 63.1244 40.7954 62.8602C47.2458 61.5385 52.1339 57.5203 54.9054 51.5462V51.5462ZM63.7746 44.9905C59.9447 40.2852 54.3007 37.6946 47.8504 37.6946H47.0442C46.5907 36.743 45.6331 36.1085 44.5749 36.1085H44.4741C42.912 36.1614 41.7027 37.5359 41.753 39.175C41.8034 40.761 43.0632 42.0299 44.5749 42.0299H44.6756C45.7843 41.9769 46.7418 41.2368 47.1449 40.2323H48.052C51.8819 40.2323 55.5101 41.3953 58.7858 43.6687C61.3053 45.4134 63.1195 47.6869 64.1273 50.4359C64.9839 52.6564 64.9335 54.824 64.0264 56.6745C62.6155 59.4765 60.2471 61.0097 57.1227 61.0097C55.107 61.0097 53.1921 60.3752 52.1842 59.8994C51.6299 60.4281 50.622 61.2739 49.9164 61.8028C52.0835 62.8601 54.3007 63.4417 56.4172 63.4417C61.2549 63.4417 64.8328 60.6396 66.1934 57.8376C67.6548 54.7711 67.5539 49.4843 63.7746 44.9905V44.9905ZM38.175 52.4448C38.2255 54.031 39.4852 55.2997 40.997 55.2997H41.0979C42.66 55.2469 43.8694 53.8722 43.819 52.2334C43.7687 50.6472 42.5088 49.3785 40.997 49.3785H40.8963C40.7954 49.3785 40.6442 49.3785 40.5436 49.4312C38.4775 45.8362 37.6208 41.924 37.9232 37.6945C38.1246 34.5223 39.1326 31.7731 40.8963 29.4997C42.3576 27.5436 45.1796 26.5919 47.0946 26.5392C52.4361 26.4334 54.7037 33.412 54.855 36.2141C55.5101 36.3727 56.6187 36.7429 57.3747 37.0072C56.7699 28.4426 51.7306 24.0016 46.8931 24.0016C42.3576 24.0016 38.175 27.4381 36.512 32.5135C34.194 39.2806 35.7058 45.7834 38.5277 50.9117C38.2759 51.2817 38.1246 51.8633 38.175 52.445V52.4448Z" fill="#E0E0E0"/>
</g>
<g filter="url(#filter0_d_59_122)">
<rect x="4.5" y="2.5" width="87" height="87" rx="4.5" stroke="url(#paint0_linear_59_122)" shape-rendering="crispEdges"/>
</g>
<defs>
<filter id="filter0_d_59_122" x="0" y="0" width="96" height="96" filterUnits="userSpaceOnUse" color-interpolation-filters="sRGB">
<feFlood flood-opacity="0" result="BackgroundImageFix"/>
<feColorMatrix in="SourceAlpha" type="matrix" values="0 0 0 0 0 0 0 0 0 0 0 0 0 0 0 0 0 0 127 0" result="hardAlpha"/>
<feOffset dy="2"/>
<feGaussianBlur stdDeviation="2"/>
<feComposite in2="hardAlpha" operator="out"/>
<feColorMatrix type="matrix" values="0 0 0 0 0 0 0 0 0 0 0 0 0 0 0 0 0 0 0.53 0"/>
<feBlend mode="normal" in2="BackgroundImageFix" result="effect1_dropShadow_59_122"/>
<feBlend mode="normal" in="SourceGraphic" in2="effect1_dropShadow_59_122" result="shape"/>
</filter>
<linearGradient id="paint0_linear_59_122" x1="48" y1="2" x2="48" y2="90" gradientUnits="userSpaceOnUse">
<stop stop-color="#B9B9B9"/>
<stop offset="1" stop-opacity="0"/>
<stop offset="1"/>
</linearGradient>
<clipPath id="clip0_59_122">
<rect width="39.6" height="39.6" fill="white" transform="translate(27.4668 24)"/>
</clipPath>
</defs>
</svg>
