<svg width="96" height="96" viewBox="0 0 96 96" fill="none" xmlns="http://www.w3.org/2000/svg">
<g clip-path="url(#clip0_59_145)">
<path d="M66.8324 51.7813C64.9352 51.792 63.2923 52.2477 61.9144 52.9261C61.4057 51.9192 60.8969 51.0394 60.8123 50.3824C60.7169 49.6193 60.6003 49.1528 60.7169 48.2414C60.8334 47.3298 61.3633 46.0367 61.3633 45.9307C61.3526 45.8353 61.2466 45.369 60.155 45.3584C59.0634 45.3478 58.12 45.5703 58.014 45.8565C57.908 46.1427 57.6961 46.7998 57.5583 47.4782C57.3675 48.4745 55.3749 52.0039 54.2408 53.8587C53.8698 53.138 53.5519 52.5021 53.4882 51.9932C53.3929 51.2302 53.2762 50.7637 53.3929 49.8523C53.5095 48.9407 54.0394 47.6477 54.0394 47.5418C54.0288 47.4464 53.9228 46.98 52.8312 46.9694C51.7394 46.9588 50.7962 47.1814 50.6903 47.4676C50.5843 47.7537 50.4677 48.4321 50.2345 49.0892C50.0118 49.7463 47.3621 55.6394 46.6731 57.1762C46.3234 57.9605 46.0161 58.5859 45.7934 59.0098C45.5709 59.4338 45.7828 59.0416 45.7616 59.084C45.5709 59.4444 45.4649 59.6458 45.4649 59.6458V59.6565C45.3165 59.9214 45.1575 60.1757 45.0832 60.1757C45.0302 60.1757 44.9242 59.4656 45.1044 58.4906C45.4966 56.4449 46.4505 53.2547 46.44 53.1381C46.44 53.0851 46.62 52.5233 45.8251 52.2372C45.0514 51.951 44.7759 52.428 44.7122 52.428C44.6486 52.428 44.5956 52.5976 44.5956 52.5976C44.5956 52.5976 45.4542 49.0046 42.9528 49.0046C41.3842 49.0046 39.222 50.7111 38.1515 52.2691C37.4731 52.6401 36.0317 53.4243 34.5054 54.2617C33.9225 54.5797 33.3184 54.9188 32.746 55.2262L32.6295 55.0988C29.5982 51.8661 23.9914 49.5768 24.2246 45.2312C24.3093 43.6519 24.8605 39.4865 34.9932 34.4414C43.2922 30.3078 49.9377 31.4419 51.0929 33.9645C52.7357 37.5681 47.5423 44.2667 38.9148 45.2312C35.6291 45.6021 33.9014 44.3303 33.4669 43.8533C33.0112 43.3552 32.9476 43.334 32.778 43.4294C32.5024 43.5777 32.672 44.0229 32.778 44.2879C33.0324 44.9556 34.0923 46.1427 35.8941 46.7362C37.4732 47.2556 41.3314 47.5418 45.9949 45.7399C51.2202 43.7155 55.3008 38.0981 54.1031 33.4027C52.8842 28.6226 44.9562 27.054 37.4628 29.7143C33.0005 31.3041 28.1674 33.7843 24.6909 37.0382C20.5573 40.8962 19.9002 44.2667 20.1757 45.6657C21.1404 50.6578 28.019 53.9117 30.7747 56.3177C30.6369 56.3918 30.5097 56.466 30.3931 56.5297C29.0153 57.2079 23.7688 59.9531 22.4545 62.8571C20.9707 66.1428 22.6877 68.5065 23.8324 68.8245C27.3724 69.8102 30.9973 68.0401 32.9581 65.1254C34.9082 62.2107 34.6751 58.4269 33.7742 56.6993L33.7423 56.6357L34.8234 55.9997C35.523 55.5864 36.212 55.2048 36.816 54.8761C36.4769 55.7982 36.2331 56.8899 36.106 58.4798C35.9576 60.3453 36.7207 62.7618 37.7276 63.7157C38.1728 64.1289 38.7027 64.1396 39.0313 64.1396C40.1972 64.1396 40.7271 63.175 41.3101 62.0198C42.0308 60.6102 42.6667 58.9779 42.6667 58.9779C42.6667 58.9779 41.8718 63.3977 44.0446 63.3977C44.8395 63.3977 45.6344 62.3696 45.9948 61.8396V61.8502C45.9948 61.8502 46.016 61.8184 46.0584 61.7443C46.1029 61.6785 46.1453 61.6114 46.1856 61.543V61.5218C46.5036 60.9706 47.2137 59.7094 48.2736 57.6214C49.6407 54.9292 50.9551 51.5588 50.9551 51.5588C50.9551 51.5588 51.0823 52.3855 51.4745 53.7421C51.7075 54.5478 52.2163 55.4274 52.6085 56.2859C52.2905 56.7311 52.0997 56.9855 52.0997 56.9855L52.1103 56.9961C51.856 57.3353 51.5698 57.6958 51.2731 58.056C50.192 59.3491 48.8989 60.8225 48.7293 61.2464C48.528 61.7445 48.5704 62.1154 48.9625 62.4123C49.2487 62.6243 49.7574 62.6666 50.298 62.6243C51.2731 62.5606 51.9514 62.3169 52.2906 62.1684C52.8205 61.9776 53.4247 61.6915 54.0076 61.2675C55.0675 60.4833 55.7141 59.3704 55.6505 57.8865C55.6187 57.0704 55.3537 56.2649 55.0251 55.5018C55.1205 55.364 55.216 55.2261 55.3113 55.0778C56.9859 52.6294 58.279 49.9373 58.279 49.9373C58.279 49.9373 58.4062 50.764 58.7984 52.1207C58.9996 52.8096 59.4025 53.5623 59.7629 54.3042C58.1942 55.5867 57.2085 57.0705 56.8693 58.0456C56.244 59.8475 56.7316 60.6636 57.6537 60.8544C58.0669 60.9392 58.6606 60.7484 59.1056 60.5576C59.6568 60.3774 60.3245 60.0699 60.9393 59.6143C61.9992 58.83 63.0167 57.7383 62.9637 56.265C62.9319 55.5867 62.7518 54.9189 62.508 54.283C63.8435 53.7319 65.571 53.4139 67.7651 53.6789C72.4816 54.23 73.4143 57.1765 73.2342 58.406C73.0541 59.6356 72.0684 60.3138 71.7397 60.5258C71.4111 60.7272 71.3051 60.8015 71.3369 60.9498C71.3793 61.1724 71.5277 61.1617 71.8139 61.1194C72.206 61.0557 74.294 60.1125 74.3788 57.8445C74.506 54.9293 71.7397 51.7496 66.8324 51.7813V51.7813ZM30.4567 64.0443C28.8987 65.7508 26.7047 66.3973 25.772 65.8462C24.7651 65.2632 25.1572 62.7513 27.0757 60.9388C28.2416 59.8365 29.7572 58.819 30.7535 58.1937C30.9761 58.0559 31.3153 57.8546 31.718 57.6108C31.7816 57.5685 31.824 57.5472 31.824 57.5472C31.8982 57.5048 31.983 57.4518 32.0678 57.3988C32.7779 59.9849 32.0996 62.2531 30.4567 64.0443V64.0443ZM41.8506 56.2965C41.3101 57.6214 40.1654 61.0236 39.4765 60.8328C38.8828 60.6739 38.5225 58.0983 39.3598 55.5546C39.7837 54.272 40.6846 52.7458 41.2146 52.1522C42.0732 51.1983 43.0058 50.8803 43.2391 51.2725C43.5147 51.7813 42.1898 55.4698 41.8506 56.2965ZM51.2519 60.7905C51.0187 60.9071 50.8067 60.9918 50.7113 60.9283C50.6372 60.8859 50.8066 60.727 50.8066 60.727C50.8066 60.727 51.9831 59.4657 52.4495 58.8827C52.7144 58.5437 53.0324 58.1515 53.3716 57.7063V57.8334C53.3717 59.3596 51.909 60.3771 51.2519 60.7905ZM58.5015 59.137C58.3319 59.0098 58.3532 58.6177 58.9254 57.3882C59.1481 56.9006 59.6568 56.0845 60.5365 55.3108C60.6425 55.6288 60.7062 55.936 60.6955 56.2223C60.685 58.1301 59.3283 58.8402 58.5015 59.137Z" fill="#B8B8B8"/>
<path d="M66.8324 51.7813C64.9352 51.792 63.2923 52.2477 61.9144 52.9261C61.4057 51.9192 60.8969 51.0394 60.8123 50.3824C60.7169 49.6193 60.6003 49.1528 60.7169 48.2414C60.8334 47.3298 61.3633 46.0367 61.3633 45.9307C61.3526 45.8353 61.2466 45.369 60.155 45.3584C59.0634 45.3478 58.12 45.5703 58.014 45.8565C57.908 46.1427 57.6961 46.7998 57.5583 47.4782C57.3675 48.4745 55.3749 52.0039 54.2408 53.8587C53.8698 53.138 53.5519 52.5021 53.4882 51.9932C53.3929 51.2302 53.2762 50.7637 53.3929 49.8523C53.5095 48.9407 54.0394 47.6477 54.0394 47.5418C54.0288 47.4464 53.9228 46.98 52.8312 46.9694C51.7394 46.9588 50.7962 47.1814 50.6903 47.4676C50.5843 47.7537 50.4677 48.4321 50.2345 49.0892C50.0118 49.7463 47.3621 55.6394 46.6731 57.1762C46.3234 57.9605 46.0161 58.5859 45.7934 59.0098C45.5709 59.4338 45.7828 59.0416 45.7616 59.084C45.5709 59.4444 45.4649 59.6458 45.4649 59.6458V59.6565C45.3165 59.9214 45.1575 60.1757 45.0832 60.1757C45.0302 60.1757 44.9242 59.4656 45.1044 58.4906C45.4966 56.4449 46.4505 53.2547 46.44 53.1381C46.44 53.0851 46.62 52.5233 45.8251 52.2372C45.0514 51.951 44.7759 52.428 44.7122 52.428C44.6486 52.428 44.5956 52.5976 44.5956 52.5976C44.5956 52.5976 45.4542 49.0046 42.9528 49.0046C41.3842 49.0046 39.222 50.7111 38.1515 52.2691C37.4731 52.6401 36.0317 53.4243 34.5054 54.2617C33.9225 54.5797 33.3184 54.9188 32.746 55.2262L32.6295 55.0988C29.5982 51.8661 23.9914 49.5768 24.2246 45.2312C24.3093 43.6519 24.8605 39.4865 34.9932 34.4414C43.2922 30.3078 49.9377 31.4419 51.0929 33.9645C52.7357 37.5681 47.5423 44.2667 38.9148 45.2312C35.6291 45.6021 33.9014 44.3303 33.4669 43.8533C33.0112 43.3552 32.9476 43.334 32.778 43.4294C32.5024 43.5777 32.672 44.0229 32.778 44.2879C33.0324 44.9556 34.0923 46.1427 35.8941 46.7362C37.4732 47.2556 41.3314 47.5418 45.9949 45.7399C51.2202 43.7155 55.3008 38.0981 54.1031 33.4027C52.8842 28.6226 44.9562 27.054 37.4628 29.7143C33.0005 31.3041 28.1674 33.7843 24.6909 37.0382C20.5573 40.8962 19.9002 44.2667 20.1757 45.6657C21.1404 50.6578 28.019 53.9117 30.7747 56.3177C30.6369 56.3918 30.5097 56.466 30.3931 56.5297C29.0153 57.2079 23.7688 59.9531 22.4545 62.8571C20.9707 66.1428 22.6877 68.5065 23.8324 68.8245C27.3724 69.8102 30.9973 68.0401 32.9581 65.1254C34.9082 62.2107 34.6751 58.4269 33.7742 56.6993L33.7423 56.6357L34.8234 55.9997C35.523 55.5864 36.212 55.2048 36.816 54.8761C36.4769 55.7982 36.2331 56.8899 36.106 58.4798C35.9576 60.3453 36.7207 62.7618 37.7276 63.7157C38.1728 64.1289 38.7027 64.1396 39.0313 64.1396C40.1972 64.1396 40.7271 63.175 41.3101 62.0198C42.0308 60.6102 42.6667 58.9779 42.6667 58.9779C42.6667 58.9779 41.8718 63.3977 44.0446 63.3977C44.8395 63.3977 45.6344 62.3696 45.9948 61.8396V61.8502C45.9948 61.8502 46.016 61.8184 46.0584 61.7443C46.1029 61.6785 46.1453 61.6114 46.1856 61.543V61.5218C46.5036 60.9706 47.2137 59.7094 48.2736 57.6214C49.6407 54.9292 50.9551 51.5588 50.9551 51.5588C50.9551 51.5588 51.0823 52.3855 51.4745 53.7421C51.7075 54.5478 52.2163 55.4274 52.6085 56.2859C52.2905 56.7311 52.0997 56.9855 52.0997 56.9855L52.1103 56.9961C51.856 57.3353 51.5698 57.6958 51.2731 58.056C50.192 59.3491 48.8989 60.8225 48.7293 61.2464C48.528 61.7445 48.5704 62.1154 48.9625 62.4123C49.2487 62.6243 49.7574 62.6666 50.298 62.6243C51.2731 62.5606 51.9514 62.3169 52.2906 62.1684C52.8205 61.9776 53.4247 61.6915 54.0076 61.2675C55.0675 60.4833 55.7141 59.3704 55.6505 57.8865C55.6187 57.0704 55.3537 56.2649 55.0251 55.5018C55.1205 55.364 55.216 55.2261 55.3113 55.0778C56.9859 52.6294 58.279 49.9373 58.279 49.9373C58.279 49.9373 58.4062 50.764 58.7984 52.1207C58.9996 52.8096 59.4025 53.5623 59.7629 54.3042C58.1942 55.5867 57.2085 57.0705 56.8693 58.0456C56.244 59.8475 56.7316 60.6636 57.6537 60.8544C58.0669 60.9392 58.6606 60.7484 59.1056 60.5576C59.6568 60.3774 60.3245 60.0699 60.9393 59.6143C61.9992 58.83 63.0167 57.7383 62.9637 56.265C62.9319 55.5867 62.7518 54.9189 62.508 54.283C63.8435 53.7319 65.571 53.4139 67.7651 53.6789C72.4816 54.23 73.4143 57.1765 73.2342 58.406C73.0541 59.6356 72.0684 60.3138 71.7397 60.5258C71.4111 60.7272 71.3051 60.8015 71.3369 60.9498C71.3793 61.1724 71.5277 61.1617 71.8139 61.1194C72.206 61.0557 74.294 60.1125 74.3788 57.8445C74.506 54.9293 71.7397 51.7496 66.8324 51.7813V51.7813ZM30.4567 64.0443C28.8987 65.7508 26.7047 66.3973 25.772 65.8462C24.7651 65.2632 25.1572 62.7513 27.0757 60.9388C28.2416 59.8365 29.7572 58.819 30.7535 58.1937C30.9761 58.0559 31.3153 57.8546 31.718 57.6108C31.7816 57.5685 31.824 57.5472 31.824 57.5472C31.8982 57.5048 31.983 57.4518 32.0678 57.3988C32.7779 59.9849 32.0996 62.2531 30.4567 64.0443V64.0443ZM41.8506 56.2965C41.3101 57.6214 40.1654 61.0236 39.4765 60.8328C38.8828 60.6739 38.5225 58.0983 39.3598 55.5546C39.7837 54.272 40.6846 52.7458 41.2146 52.1522C42.0732 51.1983 43.0058 50.8803 43.2391 51.2725C43.5147 51.7813 42.1898 55.4698 41.8506 56.2965ZM51.2519 60.7905C51.0187 60.9071 50.8067 60.9918 50.7113 60.9283C50.6372 60.8859 50.8066 60.727 50.8066 60.727C50.8066 60.727 51.9831 59.4657 52.4495 58.8827C52.7144 58.5437 53.0324 58.1515 53.3716 57.7063V57.8334C53.3717 59.3596 51.909 60.3771 51.2519 60.7905ZM58.5015 59.137C58.3319 59.0098 58.3532 58.6177 58.9254 57.3882C59.1481 56.9006 59.6568 56.0845 60.5365 55.3108C60.6425 55.6288 60.7062 55.936 60.6955 56.2223C60.685 58.1301 59.3283 58.8402 58.5015 59.137Z" fill="#B8B8B8"/>
<path d="M66.8324 51.7813C64.9352 51.792 63.2923 52.2477 61.9144 52.9261C61.4057 51.9192 60.8969 51.0394 60.8123 50.3824C60.7169 49.6193 60.6003 49.1528 60.7169 48.2414C60.8334 47.3298 61.3633 46.0367 61.3633 45.9307C61.3526 45.8353 61.2466 45.369 60.155 45.3584C59.0634 45.3478 58.12 45.5703 58.014 45.8565C57.908 46.1427 57.6961 46.7998 57.5583 47.4782C57.3675 48.4745 55.3749 52.0039 54.2408 53.8587C53.8698 53.138 53.5519 52.5021 53.4882 51.9932C53.3929 51.2302 53.2762 50.7637 53.3929 49.8523C53.5095 48.9407 54.0394 47.6477 54.0394 47.5418C54.0288 47.4464 53.9228 46.98 52.8312 46.9694C51.7394 46.9588 50.7962 47.1814 50.6903 47.4676C50.5843 47.7537 50.4677 48.4321 50.2345 49.0892C50.0118 49.7463 47.3621 55.6394 46.6731 57.1762C46.3234 57.9605 46.0161 58.5859 45.7934 59.0098C45.5709 59.4338 45.7828 59.0416 45.7616 59.084C45.5709 59.4444 45.4649 59.6458 45.4649 59.6458V59.6565C45.3165 59.9214 45.1575 60.1757 45.0832 60.1757C45.0302 60.1757 44.9242 59.4656 45.1044 58.4906C45.4966 56.4449 46.4505 53.2547 46.44 53.1381C46.44 53.0851 46.62 52.5233 45.8251 52.2372C45.0514 51.951 44.7759 52.428 44.7122 52.428C44.6486 52.428 44.5956 52.5976 44.5956 52.5976C44.5956 52.5976 45.4542 49.0046 42.9528 49.0046C41.3842 49.0046 39.222 50.7111 38.1515 52.2691C37.4731 52.6401 36.0317 53.4243 34.5054 54.2617C33.9225 54.5797 33.3184 54.9188 32.746 55.2262L32.6295 55.0988C29.5982 51.8661 23.9914 49.5768 24.2246 45.2312C24.3093 43.6519 24.8605 39.4865 34.9932 34.4414C43.2922 30.3078 49.9377 31.4419 51.0929 33.9645C52.7357 37.5681 47.5423 44.2667 38.9148 45.2312C35.6291 45.6021 33.9014 44.3303 33.4669 43.8533C33.0112 43.3552 32.9476 43.334 32.778 43.4294C32.5024 43.5777 32.672 44.0229 32.778 44.2879C33.0324 44.9556 34.0923 46.1427 35.8941 46.7362C37.4732 47.2556 41.3314 47.5418 45.9949 45.7399C51.2202 43.7155 55.3008 38.0981 54.1031 33.4027C52.8842 28.6226 44.9562 27.054 37.4628 29.7143C33.0005 31.3041 28.1674 33.7843 24.6909 37.0382C20.5573 40.8962 19.9002 44.2667 20.1757 45.6657C21.1404 50.6578 28.019 53.9117 30.7747 56.3177C30.6369 56.3918 30.5097 56.466 30.3931 56.5297C29.0153 57.2079 23.7688 59.9531 22.4545 62.8571C20.9707 66.1428 22.6877 68.5065 23.8324 68.8245C27.3724 69.8102 30.9973 68.0401 32.9581 65.1254C34.9082 62.2107 34.6751 58.4269 33.7742 56.6993L33.7423 56.6357L34.8234 55.9997C35.523 55.5864 36.212 55.2048 36.816 54.8761C36.4769 55.7982 36.2331 56.8899 36.106 58.4798C35.9576 60.3453 36.7207 62.7618 37.7276 63.7157C38.1728 64.1289 38.7027 64.1396 39.0313 64.1396C40.1972 64.1396 40.7271 63.175 41.3101 62.0198C42.0308 60.6102 42.6667 58.9779 42.6667 58.9779C42.6667 58.9779 41.8718 63.3977 44.0446 63.3977C44.8395 63.3977 45.6344 62.3696 45.9948 61.8396V61.8502C45.9948 61.8502 46.016 61.8184 46.0584 61.7443C46.1029 61.6785 46.1453 61.6114 46.1856 61.543V61.5218C46.5036 60.9706 47.2137 59.7094 48.2736 57.6214C49.6407 54.9292 50.9551 51.5588 50.9551 51.5588C50.9551 51.5588 51.0823 52.3855 51.4745 53.7421C51.7075 54.5478 52.2163 55.4274 52.6085 56.2859C52.2905 56.7311 52.0997 56.9855 52.0997 56.9855L52.1103 56.9961C51.856 57.3353 51.5698 57.6958 51.2731 58.056C50.192 59.3491 48.8989 60.8225 48.7293 61.2464C48.528 61.7445 48.5704 62.1154 48.9625 62.4123C49.2487 62.6243 49.7574 62.6666 50.298 62.6243C51.2731 62.5606 51.9514 62.3169 52.2906 62.1684C52.8205 61.9776 53.4247 61.6915 54.0076 61.2675C55.0675 60.4833 55.7141 59.3704 55.6505 57.8865C55.6187 57.0704 55.3537 56.2649 55.0251 55.5018C55.1205 55.364 55.216 55.2261 55.3113 55.0778C56.9859 52.6294 58.279 49.9373 58.279 49.9373C58.279 49.9373 58.4062 50.764 58.7984 52.1207C58.9996 52.8096 59.4025 53.5623 59.7629 54.3042C58.1942 55.5867 57.2085 57.0705 56.8693 58.0456C56.244 59.8475 56.7316 60.6636 57.6537 60.8544C58.0669 60.9392 58.6606 60.7484 59.1056 60.5576C59.6568 60.3774 60.3245 60.0699 60.9393 59.6143C61.9992 58.83 63.0167 57.7383 62.9637 56.265C62.9319 55.5867 62.7518 54.9189 62.508 54.283C63.8435 53.7319 65.571 53.4139 67.7651 53.6789C72.4816 54.23 73.4143 57.1765 73.2342 58.406C73.0541 59.6356 72.0684 60.3138 71.7397 60.5258C71.4111 60.7272 71.3051 60.8015 71.3369 60.9498C71.3793 61.1724 71.5277 61.1617 71.8139 61.1194C72.206 61.0557 74.294 60.1125 74.3788 57.8445C74.506 54.9293 71.7397 51.7496 66.8324 51.7813V51.7813ZM30.4567 64.0443C28.8987 65.7508 26.7047 66.3973 25.772 65.8462C24.7651 65.2632 25.1572 62.7513 27.0757 60.9388C28.2416 59.8365 29.7572 58.819 30.7535 58.1937C30.9761 58.0559 31.3153 57.8546 31.718 57.6108C31.7816 57.5685 31.824 57.5472 31.824 57.5472C31.8982 57.5048 31.983 57.4518 32.0678 57.3988C32.7779 59.9849 32.0996 62.2531 30.4567 64.0443V64.0443ZM41.8506 56.2965C41.3101 57.6214 40.1654 61.0236 39.4765 60.8328C38.8828 60.6739 38.5225 58.0983 39.3598 55.5546C39.7837 54.272 40.6846 52.7458 41.2146 52.1522C42.0732 51.1983 43.0058 50.8803 43.2391 51.2725C43.5147 51.7813 42.1898 55.4698 41.8506 56.2965ZM51.2519 60.7905C51.0187 60.9071 50.8067 60.9918 50.7113 60.9283C50.6372 60.8859 50.8066 60.727 50.8066 60.727C50.8066 60.727 51.9831 59.4657 52.4495 58.8827C52.7144 58.5437 53.0324 58.1515 53.3716 57.7063V57.8334C53.3717 59.3596 51.909 60.3771 51.2519 60.7905ZM58.5015 59.137C58.3319 59.0098 58.3532 58.6177 58.9254 57.3882C59.1481 56.9006 59.6568 56.0845 60.5365 55.3108C60.6425 55.6288 60.7062 55.936 60.6955 56.2223C60.685 58.1301 59.3283 58.8402 58.5015 59.137Z" fill="#E0E0E0"/>
<path d="M66.8324 51.7813C64.9352 51.792 63.2923 52.2477 61.9144 52.9261C61.4057 51.9192 60.8969 51.0394 60.8123 50.3824C60.7169 49.6193 60.6003 49.1528 60.7169 48.2414C60.8334 47.3298 61.3633 46.0367 61.3633 45.9307C61.3526 45.8353 61.2466 45.369 60.155 45.3584C59.0634 45.3478 58.12 45.5703 58.014 45.8565C57.908 46.1427 57.6961 46.7998 57.5583 47.4782C57.3675 48.4745 55.3749 52.0039 54.2408 53.8587C53.8698 53.138 53.5519 52.5021 53.4882 51.9932C53.3929 51.2302 53.2762 50.7637 53.3929 49.8523C53.5095 48.9407 54.0394 47.6477 54.0394 47.5418C54.0288 47.4464 53.9228 46.98 52.8312 46.9694C51.7394 46.9588 50.7962 47.1814 50.6903 47.4676C50.5843 47.7537 50.4677 48.4321 50.2345 49.0892C50.0118 49.7463 47.3621 55.6394 46.6731 57.1762C46.3234 57.9605 46.0161 58.5859 45.7934 59.0098C45.5709 59.4338 45.7828 59.0416 45.7616 59.084C45.5709 59.4444 45.4649 59.6458 45.4649 59.6458V59.6565C45.3165 59.9214 45.1575 60.1757 45.0832 60.1757C45.0302 60.1757 44.9242 59.4656 45.1044 58.4906C45.4966 56.4449 46.4505 53.2547 46.44 53.1381C46.44 53.0851 46.62 52.5233 45.8251 52.2372C45.0514 51.951 44.7759 52.428 44.7122 52.428C44.6486 52.428 44.5956 52.5976 44.5956 52.5976C44.5956 52.5976 45.4542 49.0046 42.9528 49.0046C41.3842 49.0046 39.222 50.7111 38.1515 52.2691C37.4731 52.6401 36.0317 53.4243 34.5054 54.2617C33.9225 54.5797 33.3184 54.9188 32.746 55.2262L32.6295 55.0988C29.5982 51.8661 23.9914 49.5768 24.2246 45.2312C24.3093 43.6519 24.8605 39.4865 34.9932 34.4414C43.2922 30.3078 49.9377 31.4419 51.0929 33.9645C52.7357 37.5681 47.5423 44.2667 38.9148 45.2312C35.6291 45.6021 33.9014 44.3303 33.4669 43.8533C33.0112 43.3552 32.9476 43.334 32.778 43.4294C32.5024 43.5777 32.672 44.0229 32.778 44.2879C33.0324 44.9556 34.0923 46.1427 35.8941 46.7362C37.4732 47.2556 41.3314 47.5418 45.9949 45.7399C51.2202 43.7155 55.3008 38.0981 54.1031 33.4027C52.8842 28.6226 44.9562 27.054 37.4628 29.7143C33.0005 31.3041 28.1674 33.7843 24.6909 37.0382C20.5573 40.8962 19.9002 44.2667 20.1757 45.6657C21.1404 50.6578 28.019 53.9117 30.7747 56.3177C30.6369 56.3918 30.5097 56.466 30.3931 56.5297C29.0153 57.2079 23.7688 59.9531 22.4545 62.8571C20.9707 66.1428 22.6877 68.5065 23.8324 68.8245C27.3724 69.8102 30.9973 68.0401 32.9581 65.1254C34.9082 62.2107 34.6751 58.4269 33.7742 56.6993L33.7423 56.6357L34.8234 55.9997C35.523 55.5864 36.212 55.2048 36.816 54.8761C36.4769 55.7982 36.2331 56.8899 36.106 58.4798C35.9576 60.3453 36.7207 62.7618 37.7276 63.7157C38.1728 64.1289 38.7027 64.1396 39.0313 64.1396C40.1972 64.1396 40.7271 63.175 41.3101 62.0198C42.0308 60.6102 42.6667 58.9779 42.6667 58.9779C42.6667 58.9779 41.8718 63.3977 44.0446 63.3977C44.8395 63.3977 45.6344 62.3696 45.9948 61.8396V61.8502C45.9948 61.8502 46.016 61.8184 46.0584 61.7443C46.1029 61.6785 46.1453 61.6114 46.1856 61.543V61.5218C46.5036 60.9706 47.2137 59.7094 48.2736 57.6214C49.6407 54.9292 50.9551 51.5588 50.9551 51.5588C50.9551 51.5588 51.0823 52.3855 51.4745 53.7421C51.7075 54.5478 52.2163 55.4274 52.6085 56.2859C52.2905 56.7311 52.0997 56.9855 52.0997 56.9855L52.1103 56.9961C51.856 57.3353 51.5698 57.6958 51.2731 58.056C50.192 59.3491 48.8989 60.8225 48.7293 61.2464C48.528 61.7445 48.5704 62.1154 48.9625 62.4123C49.2487 62.6243 49.7574 62.6666 50.298 62.6243C51.2731 62.5606 51.9514 62.3169 52.2906 62.1684C52.8205 61.9776 53.4247 61.6915 54.0076 61.2675C55.0675 60.4833 55.7141 59.3704 55.6505 57.8865C55.6187 57.0704 55.3537 56.2649 55.0251 55.5018C55.1205 55.364 55.216 55.2261 55.3113 55.0778C56.9859 52.6294 58.279 49.9373 58.279 49.9373C58.279 49.9373 58.4062 50.764 58.7984 52.1207C58.9996 52.8096 59.4025 53.5623 59.7629 54.3042C58.1942 55.5867 57.2085 57.0705 56.8693 58.0456C56.244 59.8475 56.7316 60.6636 57.6537 60.8544C58.0669 60.9392 58.6606 60.7484 59.1056 60.5576C59.6568 60.3774 60.3245 60.0699 60.9393 59.6143C61.9992 58.83 63.0167 57.7383 62.9637 56.265C62.9319 55.5867 62.7518 54.9189 62.508 54.283C63.8435 53.7319 65.571 53.4139 67.7651 53.6789C72.4816 54.23 73.4143 57.1765 73.2342 58.406C73.0541 59.6356 72.0684 60.3138 71.7397 60.5258C71.4111 60.7272 71.3051 60.8015 71.3369 60.9498C71.3793 61.1724 71.5277 61.1617 71.8139 61.1194C72.206 61.0557 74.294 60.1125 74.3788 57.8445C74.506 54.9293 71.7397 51.7496 66.8324 51.7813V51.7813ZM30.4567 64.0443C28.8987 65.7508 26.7047 66.3973 25.772 65.8462C24.7651 65.2632 25.1572 62.7513 27.0757 60.9388C28.2416 59.8365 29.7572 58.819 30.7535 58.1937C30.9761 58.0559 31.3153 57.8546 31.718 57.6108C31.7816 57.5685 31.824 57.5472 31.824 57.5472C31.8982 57.5048 31.983 57.4518 32.0678 57.3988C32.7779 59.9849 32.0996 62.2531 30.4567 64.0443V64.0443ZM41.8506 56.2965C41.3101 57.6214 40.1654 61.0236 39.4765 60.8328C38.8828 60.6739 38.5225 58.0983 39.3598 55.5546C39.7837 54.272 40.6846 52.7458 41.2146 52.1522C42.0732 51.1983 43.0058 50.8803 43.2391 51.2725C43.5147 51.7813 42.1898 55.4698 41.8506 56.2965ZM51.2519 60.7905C51.0187 60.9071 50.8067 60.9918 50.7113 60.9283C50.6372 60.8859 50.8066 60.727 50.8066 60.727C50.8066 60.727 51.9831 59.4657 52.4495 58.8827C52.7144 58.5437 53.0324 58.1515 53.3716 57.7063V57.8334C53.3717 59.3596 51.909 60.3771 51.2519 60.7905ZM58.5015 59.137C58.3319 59.0098 58.3532 58.6177 58.9254 57.3882C59.1481 56.9006 59.6568 56.0845 60.5365 55.3108C60.6425 55.6288 60.7062 55.936 60.6955 56.2223C60.685 58.1301 59.3283 58.8402 58.5015 59.137Z" fill="#E0E0E0"/>
</g>
<g filter="url(#filter0_d_59_145)">
<rect x="4.5" y="2.5" width="87" height="87" rx="4.5" stroke="url(#paint0_linear_59_145)" shape-rendering="crispEdges"/>
</g>
<defs>
<filter id="filter0_d_59_145" x="0" y="0" width="96" height="96" filterUnits="userSpaceOnUse" color-interpolation-filters="sRGB">
<feFlood flood-opacity="0" result="BackgroundImageFix"/>
<feColorMatrix in="SourceAlpha" type="matrix" values="0 0 0 0 0 0 0 0 0 0 0 0 0 0 0 0 0 0 127 0" result="hardAlpha"/>
<feOffset dy="2"/>
<feGaussianBlur stdDeviation="2"/>
<feComposite in2="hardAlpha" operator="out"/>
<feColorMatrix type="matrix" values="0 0 0 0 0 0 0 0 0 0 0 0 0 0 0 0 0 0 0.53 0"/>
<feBlend mode="normal" in2="BackgroundImageFix" result="effect1_dropShadow_59_145"/>
<feBlend mode="normal" in="SourceGraphic" in2="effect1_dropShadow_59_145" result="shape"/>
</filter>
<linearGradient id="paint0_linear_59_145" x1="48" y1="2" x2="48" y2="90" gradientUnits="userSpaceOnUse">
<stop stop-color="#B9B9B9"/>
<stop offset="1" stop-opacity="0"/>
<stop offset="1"/>
</linearGradient>
<clipPath id="clip0_59_145">
<rect width="54.2667" height="40.7" fill="white" transform="translate(20.1338 28.4)"/>
</clipPath>
</defs>
</svg>
