<svg width="96" height="96" viewBox="0 0 96 96" fill="none" xmlns="http://www.w3.org/2000/svg">
<g filter="url(#filter0_d_59_139)">
<rect x="4.5" y="2.5" width="87" height="87" rx="4.5" stroke="url(#paint0_linear_59_139)" shape-rendering="crispEdges"/>
</g>
<g clip-path="url(#clip0_59_139)">
<path d="M56.7954 34.8896L56.6259 35.7737C56.3636 37.4492 56.4585 37.9286 57.1776 38.5504L57.8717 39.1247L57.1527 42.331C56.7231 44.2439 56.1962 45.847 55.8616 46.3738C55.5744 46.8283 55.2398 47.4976 55.1674 47.8571C55.0476 48.2867 54.6406 48.7186 54.0188 49.1007C53.4693 49.4128 52.3908 50.2494 51.6265 50.9209C51.016 51.4704 50.5955 51.8073 50.3671 51.952L49.6209 52.5421C49.3813 52.9265 49.2456 53.2363 49.1936 53.4715C49.1416 53.7134 49.171 53.8739 49.2479 53.9915C49.3225 54.1046 49.4514 54.1837 49.6277 54.2335C49.8365 54.2824 50.0514 54.2999 50.2654 54.2855C50.7494 54.2524 51.2285 54.1675 51.6944 54.0322C51.8527 53.9893 51.977 53.9486 52.0855 53.9124C52.2529 53.7066 52.6395 53.3177 53.3246 52.6416C55.1426 50.8486 55.8367 49.8672 55.12 50.1318C54.8554 50.2268 54.9752 49.9871 55.4297 49.5077C56.3884 48.5739 56.9379 47.163 58.0865 42.738C58.9955 39.2445 58.9955 39.1948 59.6648 39.1948C59.9791 39.1948 60.8677 39.2491 60.8677 39.2491V34.8896H58.8282H56.7954ZM65.4758 42.0461C65.3311 42.0461 65.0915 42.2631 64.949 42.5028C64.6867 42.9324 64.9965 43.1947 68.9444 45.6593C71.2892 47.1449 73.1795 48.4111 73.132 48.5083C73.0845 48.5784 71.1693 49.8243 68.8743 51.2601C64.7093 53.8423 64.6867 53.8672 65.0688 54.394C65.5482 55.0158 65.0688 55.2306 70.4752 51.857L74.4005 49.3449V47.4546L70.0207 44.7504C67.6533 43.2671 65.5957 42.0709 65.4758 42.0461ZM29.1059 42.3106C28.986 42.3106 26.9284 43.5316 24.561 44.99L20.1338 47.6943V49.5846L24.5362 52.3364C26.9782 53.8423 29.0358 55.0882 29.1308 55.0882C29.2257 55.0882 29.4179 54.8711 29.6101 54.6088C29.8973 54.1543 29.6553 53.9621 25.6125 51.4025C21.7618 48.9854 21.3548 48.6508 21.7392 48.3885C21.9789 48.2212 23.7968 47.0951 25.7594 45.8764C30.2342 43.1246 29.9945 43.3145 29.635 42.7402C29.4925 42.5028 29.2506 42.288 29.1081 42.3106H29.1059ZM48.7414 42.3626C48.0811 42.3581 46.6611 43.3643 42.4103 46.8351C42.2271 47.2715 42.2113 47.5722 42.2949 47.7667C42.3492 47.9001 42.4487 47.9928 42.5866 48.0606C42.7223 48.1285 42.8987 48.1692 43.0931 48.185C43.4798 48.2189 43.9365 48.1578 44.3051 48.0855L44.5538 48.029C44.6389 47.9148 44.7507 47.8232 44.8794 47.7622C45.1417 47.6174 46.2428 46.6135 47.344 45.5372C49.2818 43.5746 49.7363 42.6882 48.9471 42.4011C48.8824 42.3753 48.8133 42.3623 48.7436 42.3626H48.7414ZM53.7068 43.7261C53.1257 43.7419 52.0788 44.4157 50.2857 45.847C49.3858 46.5773 48.816 46.9708 48.5107 47.0522L47.3259 47.9883C46.8805 48.8023 46.8149 49.3065 46.9325 49.5846C46.9619 49.6532 47.0046 49.7153 47.0582 49.7673C47.1117 49.8193 47.1751 49.8602 47.2445 49.8876C47.4173 49.9558 47.6015 49.9903 47.7872 49.9893C48.231 49.9846 48.6721 49.92 49.0986 49.7972C49.3209 49.7375 49.5404 49.6681 49.7566 49.5891L49.8222 49.562L49.942 49.4987C50.1681 49.207 50.6882 48.6576 51.3394 48.0244C53.397 46.0392 54.4484 44.6283 54.2336 44.1014C54.1364 43.8459 53.9691 43.717 53.7068 43.7261V43.7261ZM48.2258 46.1681C48.0585 46.1862 47.6832 46.4756 47.0071 47.068C46.0303 47.9317 44.9653 48.4292 44.5967 48.2076C44.5111 48.2269 44.4252 48.245 44.339 48.2619C43.9636 48.3365 43.4956 48.3975 43.0773 48.3636C42.8802 48.3517 42.687 48.3034 42.5075 48.2212C42.3382 48.1437 42.203 48.007 42.1276 47.8368C42.044 47.6333 42.044 47.38 42.1389 47.0567L40.6692 48.2641L37.3431 51.0159V55.4771L48.2417 46.8916C48.2395 46.7976 48.2517 46.7038 48.2778 46.6135C48.3615 46.3105 48.357 46.1568 48.2258 46.1703V46.1681ZM52.9154 47.6129C52.7503 47.6129 52.4745 47.8458 52.0335 48.3139C51.4343 48.9538 50.4915 49.5733 49.9918 49.6999L49.9149 49.7406C49.8328 49.7745 49.7499 49.8062 49.6662 49.8356C49.5305 49.8808 49.3541 49.9351 49.1506 49.9893C48.7436 50.1001 48.2371 50.2019 47.7849 50.1906C47.5717 50.1903 47.3606 50.1489 47.1631 50.0685C46.977 49.9918 46.8279 49.8459 46.7471 49.6615C46.6159 49.3472 46.6679 48.9063 46.9551 48.2799L37.3408 55.8524V58.577H41.5646L50.5231 51.5405C50.756 51.2827 51.1065 50.93 51.5791 50.4891C52.8453 49.3155 53.1324 48.9108 53.1324 48.3116C53.1324 47.8458 53.0804 47.6107 52.9154 47.6107V47.6129ZM55.0476 52.0221L54.2811 52.7863C53.8515 53.1933 53.085 53.6953 52.5604 53.9101L52.4564 53.9553L52.4496 53.9666L52.427 53.9893C52.4066 54.0051 52.3976 54.0073 52.3818 54.0141C52.1723 54.0934 51.9596 54.1635 51.7441 54.2244C51.265 54.3639 50.7723 54.451 50.2744 54.4844C50.039 54.4995 49.8027 54.4789 49.5735 54.4234C49.3745 54.3796 49.1989 54.2636 49.0805 54.0978C48.972 53.9305 48.9403 53.7066 49.0014 53.4308C49.05 53.2344 49.1221 53.0446 49.2162 52.8655L41.9874 58.577H51.6017L52.7503 57.2611C54.3286 55.4205 55.0476 54.1046 55.0476 52.9785V52.0221Z" fill="#B8B8B8"/>
<path d="M56.7954 34.8896L56.6259 35.7737C56.3636 37.4492 56.4585 37.9286 57.1776 38.5504L57.8717 39.1247L57.1527 42.331C56.7231 44.2439 56.1962 45.847 55.8616 46.3738C55.5744 46.8283 55.2398 47.4976 55.1674 47.8571C55.0476 48.2867 54.6406 48.7186 54.0188 49.1007C53.4693 49.4128 52.3908 50.2494 51.6265 50.9209C51.016 51.4704 50.5955 51.8073 50.3671 51.952L49.6209 52.5421C49.3813 52.9265 49.2456 53.2363 49.1936 53.4715C49.1416 53.7134 49.171 53.8739 49.2479 53.9915C49.3225 54.1046 49.4514 54.1837 49.6277 54.2335C49.8365 54.2824 50.0514 54.2999 50.2654 54.2855C50.7494 54.2524 51.2285 54.1675 51.6944 54.0322C51.8527 53.9893 51.977 53.9486 52.0855 53.9124C52.2529 53.7066 52.6395 53.3177 53.3246 52.6416C55.1426 50.8486 55.8367 49.8672 55.12 50.1318C54.8554 50.2268 54.9752 49.9871 55.4297 49.5077C56.3884 48.5739 56.9379 47.163 58.0865 42.738C58.9955 39.2445 58.9955 39.1948 59.6648 39.1948C59.9791 39.1948 60.8677 39.2491 60.8677 39.2491V34.8896H58.8282H56.7954ZM65.4758 42.0461C65.3311 42.0461 65.0915 42.2631 64.949 42.5028C64.6867 42.9324 64.9965 43.1947 68.9444 45.6593C71.2892 47.1449 73.1795 48.4111 73.132 48.5083C73.0845 48.5784 71.1693 49.8243 68.8743 51.2601C64.7093 53.8423 64.6867 53.8672 65.0688 54.394C65.5482 55.0158 65.0688 55.2306 70.4752 51.857L74.4005 49.3449V47.4546L70.0207 44.7504C67.6533 43.2671 65.5957 42.0709 65.4758 42.0461ZM29.1059 42.3106C28.986 42.3106 26.9284 43.5316 24.561 44.99L20.1338 47.6943V49.5846L24.5362 52.3364C26.9782 53.8423 29.0358 55.0882 29.1308 55.0882C29.2257 55.0882 29.4179 54.8711 29.6101 54.6088C29.8973 54.1543 29.6553 53.9621 25.6125 51.4025C21.7618 48.9854 21.3548 48.6508 21.7392 48.3885C21.9789 48.2212 23.7968 47.0951 25.7594 45.8764C30.2342 43.1246 29.9945 43.3145 29.635 42.7402C29.4925 42.5028 29.2506 42.288 29.1081 42.3106H29.1059ZM48.7414 42.3626C48.0811 42.3581 46.6611 43.3643 42.4103 46.8351C42.2271 47.2715 42.2113 47.5722 42.2949 47.7667C42.3492 47.9001 42.4487 47.9928 42.5866 48.0606C42.7223 48.1285 42.8987 48.1692 43.0931 48.185C43.4798 48.2189 43.9365 48.1578 44.3051 48.0855L44.5538 48.029C44.6389 47.9148 44.7507 47.8232 44.8794 47.7622C45.1417 47.6174 46.2428 46.6135 47.344 45.5372C49.2818 43.5746 49.7363 42.6882 48.9471 42.4011C48.8824 42.3753 48.8133 42.3623 48.7436 42.3626H48.7414ZM53.7068 43.7261C53.1257 43.7419 52.0788 44.4157 50.2857 45.847C49.3858 46.5773 48.816 46.9708 48.5107 47.0522L47.3259 47.9883C46.8805 48.8023 46.8149 49.3065 46.9325 49.5846C46.9619 49.6532 47.0046 49.7153 47.0582 49.7673C47.1117 49.8193 47.1751 49.8602 47.2445 49.8876C47.4173 49.9558 47.6015 49.9903 47.7872 49.9893C48.231 49.9846 48.6721 49.92 49.0986 49.7972C49.3209 49.7375 49.5404 49.6681 49.7566 49.5891L49.8222 49.562L49.942 49.4987C50.1681 49.207 50.6882 48.6576 51.3394 48.0244C53.397 46.0392 54.4484 44.6283 54.2336 44.1014C54.1364 43.8459 53.9691 43.717 53.7068 43.7261V43.7261ZM48.2258 46.1681C48.0585 46.1862 47.6832 46.4756 47.0071 47.068C46.0303 47.9317 44.9653 48.4292 44.5967 48.2076C44.5111 48.2269 44.4252 48.245 44.339 48.2619C43.9636 48.3365 43.4956 48.3975 43.0773 48.3636C42.8802 48.3517 42.687 48.3034 42.5075 48.2212C42.3382 48.1437 42.203 48.007 42.1276 47.8368C42.044 47.6333 42.044 47.38 42.1389 47.0567L40.6692 48.2641L37.3431 51.0159V55.4771L48.2417 46.8916C48.2395 46.7976 48.2517 46.7038 48.2778 46.6135C48.3615 46.3105 48.357 46.1568 48.2258 46.1703V46.1681ZM52.9154 47.6129C52.7503 47.6129 52.4745 47.8458 52.0335 48.3139C51.4343 48.9538 50.4915 49.5733 49.9918 49.6999L49.9149 49.7406C49.8328 49.7745 49.7499 49.8062 49.6662 49.8356C49.5305 49.8808 49.3541 49.9351 49.1506 49.9893C48.7436 50.1001 48.2371 50.2019 47.7849 50.1906C47.5717 50.1903 47.3606 50.1489 47.1631 50.0685C46.977 49.9918 46.8279 49.8459 46.7471 49.6615C46.6159 49.3472 46.6679 48.9063 46.9551 48.2799L37.3408 55.8524V58.577H41.5646L50.5231 51.5405C50.756 51.2827 51.1065 50.93 51.5791 50.4891C52.8453 49.3155 53.1324 48.9108 53.1324 48.3116C53.1324 47.8458 53.0804 47.6107 52.9154 47.6107V47.6129ZM55.0476 52.0221L54.2811 52.7863C53.8515 53.1933 53.085 53.6953 52.5604 53.9101L52.4564 53.9553L52.4496 53.9666L52.427 53.9893C52.4066 54.0051 52.3976 54.0073 52.3818 54.0141C52.1723 54.0934 51.9596 54.1635 51.7441 54.2244C51.265 54.3639 50.7723 54.451 50.2744 54.4844C50.039 54.4995 49.8027 54.4789 49.5735 54.4234C49.3745 54.3796 49.1989 54.2636 49.0805 54.0978C48.972 53.9305 48.9403 53.7066 49.0014 53.4308C49.05 53.2344 49.1221 53.0446 49.2162 52.8655L41.9874 58.577H51.6017L52.7503 57.2611C54.3286 55.4205 55.0476 54.1046 55.0476 52.9785V52.0221Z" fill="#B8B8B8"/>
<path d="M56.7954 34.8896L56.6259 35.7737C56.3636 37.4492 56.4585 37.9286 57.1776 38.5504L57.8717 39.1247L57.1527 42.331C56.7231 44.2439 56.1962 45.847 55.8616 46.3738C55.5744 46.8283 55.2398 47.4976 55.1674 47.8571C55.0476 48.2867 54.6406 48.7186 54.0188 49.1007C53.4693 49.4128 52.3908 50.2494 51.6265 50.9209C51.016 51.4704 50.5955 51.8073 50.3671 51.952L49.6209 52.5421C49.3813 52.9265 49.2456 53.2363 49.1936 53.4715C49.1416 53.7134 49.171 53.8739 49.2479 53.9915C49.3225 54.1046 49.4514 54.1837 49.6277 54.2335C49.8365 54.2824 50.0514 54.2999 50.2654 54.2855C50.7494 54.2524 51.2285 54.1675 51.6944 54.0322C51.8527 53.9893 51.977 53.9486 52.0855 53.9124C52.2529 53.7066 52.6395 53.3177 53.3246 52.6416C55.1426 50.8486 55.8367 49.8672 55.12 50.1318C54.8554 50.2268 54.9752 49.9871 55.4297 49.5077C56.3884 48.5739 56.9379 47.163 58.0865 42.738C58.9955 39.2445 58.9955 39.1948 59.6648 39.1948C59.9791 39.1948 60.8677 39.2491 60.8677 39.2491V34.8896H58.8282H56.7954ZM65.4758 42.0461C65.3311 42.0461 65.0915 42.2631 64.949 42.5028C64.6867 42.9324 64.9965 43.1947 68.9444 45.6593C71.2892 47.1449 73.1795 48.4111 73.132 48.5083C73.0845 48.5784 71.1693 49.8243 68.8743 51.2601C64.7093 53.8423 64.6867 53.8672 65.0688 54.394C65.5482 55.0158 65.0688 55.2306 70.4752 51.857L74.4005 49.3449V47.4546L70.0207 44.7504C67.6533 43.2671 65.5957 42.0709 65.4758 42.0461ZM29.1059 42.3106C28.986 42.3106 26.9284 43.5316 24.561 44.99L20.1338 47.6943V49.5846L24.5362 52.3364C26.9782 53.8423 29.0358 55.0882 29.1308 55.0882C29.2257 55.0882 29.4179 54.8711 29.6101 54.6088C29.8973 54.1543 29.6553 53.9621 25.6125 51.4025C21.7618 48.9854 21.3548 48.6508 21.7392 48.3885C21.9789 48.2212 23.7968 47.0951 25.7594 45.8764C30.2342 43.1246 29.9945 43.3145 29.635 42.7402C29.4925 42.5028 29.2506 42.288 29.1081 42.3106H29.1059ZM48.7414 42.3626C48.0811 42.3581 46.6611 43.3643 42.4103 46.8351C42.2271 47.2715 42.2113 47.5722 42.2949 47.7667C42.3492 47.9001 42.4487 47.9928 42.5866 48.0606C42.7223 48.1285 42.8987 48.1692 43.0931 48.185C43.4798 48.2189 43.9365 48.1578 44.3051 48.0855L44.5538 48.029C44.6389 47.9148 44.7507 47.8232 44.8794 47.7622C45.1417 47.6174 46.2428 46.6135 47.344 45.5372C49.2818 43.5746 49.7363 42.6882 48.9471 42.4011C48.8824 42.3753 48.8133 42.3623 48.7436 42.3626H48.7414ZM53.7068 43.7261C53.1257 43.7419 52.0788 44.4157 50.2857 45.847C49.3858 46.5773 48.816 46.9708 48.5107 47.0522L47.3259 47.9883C46.8805 48.8023 46.8149 49.3065 46.9325 49.5846C46.9619 49.6532 47.0046 49.7153 47.0582 49.7673C47.1117 49.8193 47.1751 49.8602 47.2445 49.8876C47.4173 49.9558 47.6015 49.9903 47.7872 49.9893C48.231 49.9846 48.6721 49.92 49.0986 49.7972C49.3209 49.7375 49.5404 49.6681 49.7566 49.5891L49.8222 49.562L49.942 49.4987C50.1681 49.207 50.6882 48.6576 51.3394 48.0244C53.397 46.0392 54.4484 44.6283 54.2336 44.1014C54.1364 43.8459 53.9691 43.717 53.7068 43.7261V43.7261ZM48.2258 46.1681C48.0585 46.1862 47.6832 46.4756 47.0071 47.068C46.0303 47.9317 44.9653 48.4292 44.5967 48.2076C44.5111 48.2269 44.4252 48.245 44.339 48.2619C43.9636 48.3365 43.4956 48.3975 43.0773 48.3636C42.8802 48.3517 42.687 48.3034 42.5075 48.2212C42.3382 48.1437 42.203 48.007 42.1276 47.8368C42.044 47.6333 42.044 47.38 42.1389 47.0567L40.6692 48.2641L37.3431 51.0159V55.4771L48.2417 46.8916C48.2395 46.7976 48.2517 46.7038 48.2778 46.6135C48.3615 46.3105 48.357 46.1568 48.2258 46.1703V46.1681ZM52.9154 47.6129C52.7503 47.6129 52.4745 47.8458 52.0335 48.3139C51.4343 48.9538 50.4915 49.5733 49.9918 49.6999L49.9149 49.7406C49.8328 49.7745 49.7499 49.8062 49.6662 49.8356C49.5305 49.8808 49.3541 49.9351 49.1506 49.9893C48.7436 50.1001 48.2371 50.2019 47.7849 50.1906C47.5717 50.1903 47.3606 50.1489 47.1631 50.0685C46.977 49.9918 46.8279 49.8459 46.7471 49.6615C46.6159 49.3472 46.6679 48.9063 46.9551 48.2799L37.3408 55.8524V58.577H41.5646L50.5231 51.5405C50.756 51.2827 51.1065 50.93 51.5791 50.4891C52.8453 49.3155 53.1324 48.9108 53.1324 48.3116C53.1324 47.8458 53.0804 47.6107 52.9154 47.6107V47.6129ZM55.0476 52.0221L54.2811 52.7863C53.8515 53.1933 53.085 53.6953 52.5604 53.9101L52.4564 53.9553L52.4496 53.9666L52.427 53.9893C52.4066 54.0051 52.3976 54.0073 52.3818 54.0141C52.1723 54.0934 51.9596 54.1635 51.7441 54.2244C51.265 54.3639 50.7723 54.451 50.2744 54.4844C50.039 54.4995 49.8027 54.4789 49.5735 54.4234C49.3745 54.3796 49.1989 54.2636 49.0805 54.0978C48.972 53.9305 48.9403 53.7066 49.0014 53.4308C49.05 53.2344 49.1221 53.0446 49.2162 52.8655L41.9874 58.577H51.6017L52.7503 57.2611C54.3286 55.4205 55.0476 54.1046 55.0476 52.9785V52.0221Z" fill="#E0E0E0"/>
<path d="M56.7954 34.8896L56.6259 35.7737C56.3636 37.4492 56.4585 37.9286 57.1776 38.5504L57.8717 39.1247L57.1527 42.331C56.7231 44.2439 56.1962 45.847 55.8616 46.3738C55.5744 46.8283 55.2398 47.4976 55.1674 47.8571C55.0476 48.2867 54.6406 48.7186 54.0188 49.1007C53.4693 49.4128 52.3908 50.2494 51.6265 50.9209C51.016 51.4704 50.5955 51.8073 50.3671 51.952L49.6209 52.5421C49.3813 52.9265 49.2456 53.2363 49.1936 53.4715C49.1416 53.7134 49.171 53.8739 49.2479 53.9915C49.3225 54.1046 49.4514 54.1837 49.6277 54.2335C49.8365 54.2824 50.0514 54.2999 50.2654 54.2855C50.7494 54.2524 51.2285 54.1675 51.6944 54.0322C51.8527 53.9893 51.977 53.9486 52.0855 53.9124C52.2529 53.7066 52.6395 53.3177 53.3246 52.6416C55.1426 50.8486 55.8367 49.8672 55.12 50.1318C54.8554 50.2268 54.9752 49.9871 55.4297 49.5077C56.3884 48.5739 56.9379 47.163 58.0865 42.738C58.9955 39.2445 58.9955 39.1948 59.6648 39.1948C59.9791 39.1948 60.8677 39.2491 60.8677 39.2491V34.8896H58.8282H56.7954ZM65.4758 42.0461C65.3311 42.0461 65.0915 42.2631 64.949 42.5028C64.6867 42.9324 64.9965 43.1947 68.9444 45.6593C71.2892 47.1449 73.1795 48.4111 73.132 48.5083C73.0845 48.5784 71.1693 49.8243 68.8743 51.2601C64.7093 53.8423 64.6867 53.8672 65.0688 54.394C65.5482 55.0158 65.0688 55.2306 70.4752 51.857L74.4005 49.3449V47.4546L70.0207 44.7504C67.6533 43.2671 65.5957 42.0709 65.4758 42.0461ZM29.1059 42.3106C28.986 42.3106 26.9284 43.5316 24.561 44.99L20.1338 47.6943V49.5846L24.5362 52.3364C26.9782 53.8423 29.0358 55.0882 29.1308 55.0882C29.2257 55.0882 29.4179 54.8711 29.6101 54.6088C29.8973 54.1543 29.6553 53.9621 25.6125 51.4025C21.7618 48.9854 21.3548 48.6508 21.7392 48.3885C21.9789 48.2212 23.7968 47.0951 25.7594 45.8764C30.2342 43.1246 29.9945 43.3145 29.635 42.7402C29.4925 42.5028 29.2506 42.288 29.1081 42.3106H29.1059ZM48.7414 42.3626C48.0811 42.3581 46.6611 43.3643 42.4103 46.8351C42.2271 47.2715 42.2113 47.5722 42.2949 47.7667C42.3492 47.9001 42.4487 47.9928 42.5866 48.0606C42.7223 48.1285 42.8987 48.1692 43.0931 48.185C43.4798 48.2189 43.9365 48.1578 44.3051 48.0855L44.5538 48.029C44.6389 47.9148 44.7507 47.8232 44.8794 47.7622C45.1417 47.6174 46.2428 46.6135 47.344 45.5372C49.2818 43.5746 49.7363 42.6882 48.9471 42.4011C48.8824 42.3753 48.8133 42.3623 48.7436 42.3626H48.7414ZM53.7068 43.7261C53.1257 43.7419 52.0788 44.4157 50.2857 45.847C49.3858 46.5773 48.816 46.9708 48.5107 47.0522L47.3259 47.9883C46.8805 48.8023 46.8149 49.3065 46.9325 49.5846C46.9619 49.6532 47.0046 49.7153 47.0582 49.7673C47.1117 49.8193 47.1751 49.8602 47.2445 49.8876C47.4173 49.9558 47.6015 49.9903 47.7872 49.9893C48.231 49.9846 48.6721 49.92 49.0986 49.7972C49.3209 49.7375 49.5404 49.6681 49.7566 49.5891L49.8222 49.562L49.942 49.4987C50.1681 49.207 50.6882 48.6576 51.3394 48.0244C53.397 46.0392 54.4484 44.6283 54.2336 44.1014C54.1364 43.8459 53.9691 43.717 53.7068 43.7261V43.7261ZM48.2258 46.1681C48.0585 46.1862 47.6832 46.4756 47.0071 47.068C46.0303 47.9317 44.9653 48.4292 44.5967 48.2076C44.5111 48.2269 44.4252 48.245 44.339 48.2619C43.9636 48.3365 43.4956 48.3975 43.0773 48.3636C42.8802 48.3517 42.687 48.3034 42.5075 48.2212C42.3382 48.1437 42.203 48.007 42.1276 47.8368C42.044 47.6333 42.044 47.38 42.1389 47.0567L40.6692 48.2641L37.3431 51.0159V55.4771L48.2417 46.8916C48.2395 46.7976 48.2517 46.7038 48.2778 46.6135C48.3615 46.3105 48.357 46.1568 48.2258 46.1703V46.1681ZM52.9154 47.6129C52.7503 47.6129 52.4745 47.8458 52.0335 48.3139C51.4343 48.9538 50.4915 49.5733 49.9918 49.6999L49.9149 49.7406C49.8328 49.7745 49.7499 49.8062 49.6662 49.8356C49.5305 49.8808 49.3541 49.9351 49.1506 49.9893C48.7436 50.1001 48.2371 50.2019 47.7849 50.1906C47.5717 50.1903 47.3606 50.1489 47.1631 50.0685C46.977 49.9918 46.8279 49.8459 46.7471 49.6615C46.6159 49.3472 46.6679 48.9063 46.9551 48.2799L37.3408 55.8524V58.577H41.5646L50.5231 51.5405C50.756 51.2827 51.1065 50.93 51.5791 50.4891C52.8453 49.3155 53.1324 48.9108 53.1324 48.3116C53.1324 47.8458 53.0804 47.6107 52.9154 47.6107V47.6129ZM55.0476 52.0221L54.2811 52.7863C53.8515 53.1933 53.085 53.6953 52.5604 53.9101L52.4564 53.9553L52.4496 53.9666L52.427 53.9893C52.4066 54.0051 52.3976 54.0073 52.3818 54.0141C52.1723 54.0934 51.9596 54.1635 51.7441 54.2244C51.265 54.3639 50.7723 54.451 50.2744 54.4844C50.039 54.4995 49.8027 54.4789 49.5735 54.4234C49.3745 54.3796 49.1989 54.2636 49.0805 54.0978C48.972 53.9305 48.9403 53.7066 49.0014 53.4308C49.05 53.2344 49.1221 53.0446 49.2162 52.8655L41.9874 58.577H51.6017L52.7503 57.2611C54.3286 55.4205 55.0476 54.1046 55.0476 52.9785V52.0221Z" fill="#E0E0E0"/>
</g>
<defs>
<filter id="filter0_d_59_139" x="0" y="0" width="96" height="96" filterUnits="userSpaceOnUse" color-interpolation-filters="sRGB">
<feFlood flood-opacity="0" result="BackgroundImageFix"/>
<feColorMatrix in="SourceAlpha" type="matrix" values="0 0 0 0 0 0 0 0 0 0 0 0 0 0 0 0 0 0 127 0" result="hardAlpha"/>
<feOffset dy="2"/>
<feGaussianBlur stdDeviation="2"/>
<feComposite in2="hardAlpha" operator="out"/>
<feColorMatrix type="matrix" values="0 0 0 0 0 0 0 0 0 0 0 0 0 0 0 0 0 0 0.53 0"/>
<feBlend mode="normal" in2="BackgroundImageFix" result="effect1_dropShadow_59_139"/>
<feBlend mode="normal" in="SourceGraphic" in2="effect1_dropShadow_59_139" result="shape"/>
</filter>
<linearGradient id="paint0_linear_59_139" x1="48" y1="2" x2="48" y2="90" gradientUnits="userSpaceOnUse">
<stop stop-color="#B9B9B9"/>
<stop offset="1" stop-opacity="0"/>
<stop offset="1"/>
</linearGradient>
<clipPath id="clip0_59_139">
<rect width="54.2667" height="54.2667" fill="white" transform="translate(20.1338 19.6)"/>
</clipPath>
</defs>
</svg>
