<svg width="96" height="96" viewBox="0 0 96 96" fill="none" xmlns="http://www.w3.org/2000/svg">
<g filter="url(#filter0_d_59_119)">
<rect x="4.5" y="2.5" width="87" height="87" rx="4.5" stroke="url(#paint0_linear_59_119)" shape-rendering="crispEdges"/>
</g>
<path d="M27.4668 35.5054V37.8669H34.8326V59.3089H40.0595V37.8669H47.4254V35.5489C47.4254 34.245 47.4254 33.1874 47.3687 33.1584C47.3687 33.1149 42.8784 33.1005 37.4248 33.1005L27.5093 33.1439V35.5199L27.4668 35.5054V35.5054ZM60.5705 33.086C62.0154 33.4337 63.1203 34.1001 64.1118 35.1577C64.6359 35.7372 65.415 36.7514 65.4717 37.0122C65.4717 37.0991 63.0211 38.7942 61.5338 39.7359C61.4771 39.7793 61.2505 39.533 61.0238 39.1564C60.2872 38.0843 59.5365 37.6207 58.3608 37.5337C56.661 37.4178 55.5278 38.3306 55.5278 39.8518C55.5278 40.3154 55.6128 40.5762 55.7828 40.9528C56.1652 41.7497 56.8735 42.2278 59.0691 43.2129C63.1203 44.9949 64.8767 46.1685 65.9391 47.849C67.1431 49.7325 67.4123 52.688 66.6049 54.9046C65.6983 57.3241 63.4886 58.9612 60.3297 59.4972C59.3382 59.6711 57.0718 59.6421 56.0094 59.4538C53.743 59.0191 51.5757 57.8601 50.2442 56.3679C49.7201 55.7884 48.7144 54.2382 48.7711 54.1368L49.3093 53.789L51.4341 52.5286L53.0347 51.5724L53.403 52.0795C53.8705 52.8329 54.9187 53.847 55.5278 54.1947C57.3692 55.1654 59.834 55.035 61.0522 53.905C61.5763 53.4124 61.8029 52.8908 61.8029 52.1664C61.8029 51.5 61.7038 51.1957 61.378 50.6887C60.9247 50.0512 60.0181 49.5296 57.4684 48.3706C54.5362 47.0957 53.2897 46.2844 52.1282 45.0384C51.4624 44.285 50.8533 43.1115 50.57 42.1408C50.3575 41.3006 50.2867 39.2433 50.485 38.4175C51.0941 35.5199 53.233 33.4916 56.2927 32.9121C57.2843 32.7093 59.6215 32.7962 60.5989 33.057L60.5705 33.086V33.086Z" fill="#B8B8B8"/>
<path d="M27.4668 35.5054V37.8669H34.8326V59.3089H40.0595V37.8669H47.4254V35.5489C47.4254 34.245 47.4254 33.1874 47.3687 33.1584C47.3687 33.1149 42.8784 33.1005 37.4248 33.1005L27.5093 33.1439V35.5199L27.4668 35.5054V35.5054ZM60.5705 33.086C62.0154 33.4337 63.1203 34.1001 64.1118 35.1577C64.6359 35.7372 65.415 36.7514 65.4717 37.0122C65.4717 37.0991 63.0211 38.7942 61.5338 39.7359C61.4771 39.7793 61.2505 39.533 61.0238 39.1564C60.2872 38.0843 59.5365 37.6207 58.3608 37.5337C56.661 37.4178 55.5278 38.3306 55.5278 39.8518C55.5278 40.3154 55.6128 40.5762 55.7828 40.9528C56.1652 41.7497 56.8735 42.2278 59.0691 43.2129C63.1203 44.9949 64.8767 46.1685 65.9391 47.849C67.1431 49.7325 67.4123 52.688 66.6049 54.9046C65.6983 57.3241 63.4886 58.9612 60.3297 59.4972C59.3382 59.6711 57.0718 59.6421 56.0094 59.4538C53.743 59.0191 51.5757 57.8601 50.2442 56.3679C49.7201 55.7884 48.7144 54.2382 48.7711 54.1368L49.3093 53.789L51.4341 52.5286L53.0347 51.5724L53.403 52.0795C53.8705 52.8329 54.9187 53.847 55.5278 54.1947C57.3692 55.1654 59.834 55.035 61.0522 53.905C61.5763 53.4124 61.8029 52.8908 61.8029 52.1664C61.8029 51.5 61.7038 51.1957 61.378 50.6887C60.9247 50.0512 60.0181 49.5296 57.4684 48.3706C54.5362 47.0957 53.2897 46.2844 52.1282 45.0384C51.4624 44.285 50.8533 43.1115 50.57 42.1408C50.3575 41.3006 50.2867 39.2433 50.485 38.4175C51.0941 35.5199 53.233 33.4916 56.2927 32.9121C57.2843 32.7093 59.6215 32.7962 60.5989 33.057L60.5705 33.086V33.086Z" fill="#B8B8B8"/>
<path d="M27.4668 35.5054V37.8669H34.8326V59.3089H40.0595V37.8669H47.4254V35.5489C47.4254 34.245 47.4254 33.1874 47.3687 33.1584C47.3687 33.1149 42.8784 33.1005 37.4248 33.1005L27.5093 33.1439V35.5199L27.4668 35.5054V35.5054ZM60.5705 33.086C62.0154 33.4337 63.1203 34.1001 64.1118 35.1577C64.6359 35.7372 65.415 36.7514 65.4717 37.0122C65.4717 37.0991 63.0211 38.7942 61.5338 39.7359C61.4771 39.7793 61.2505 39.533 61.0238 39.1564C60.2872 38.0843 59.5365 37.6207 58.3608 37.5337C56.661 37.4178 55.5278 38.3306 55.5278 39.8518C55.5278 40.3154 55.6128 40.5762 55.7828 40.9528C56.1652 41.7497 56.8735 42.2278 59.0691 43.2129C63.1203 44.9949 64.8767 46.1685 65.9391 47.849C67.1431 49.7325 67.4123 52.688 66.6049 54.9046C65.6983 57.3241 63.4886 58.9612 60.3297 59.4972C59.3382 59.6711 57.0718 59.6421 56.0094 59.4538C53.743 59.0191 51.5757 57.8601 50.2442 56.3679C49.7201 55.7884 48.7144 54.2382 48.7711 54.1368L49.3093 53.789L51.4341 52.5286L53.0347 51.5724L53.403 52.0795C53.8705 52.8329 54.9187 53.847 55.5278 54.1947C57.3692 55.1654 59.834 55.035 61.0522 53.905C61.5763 53.4124 61.8029 52.8908 61.8029 52.1664C61.8029 51.5 61.7038 51.1957 61.378 50.6887C60.9247 50.0512 60.0181 49.5296 57.4684 48.3706C54.5362 47.0957 53.2897 46.2844 52.1282 45.0384C51.4624 44.285 50.8533 43.1115 50.57 42.1408C50.3575 41.3006 50.2867 39.2433 50.485 38.4175C51.0941 35.5199 53.233 33.4916 56.2927 32.9121C57.2843 32.7093 59.6215 32.7962 60.5989 33.057L60.5705 33.086V33.086Z" fill="#E0E0E0"/>
<path d="M27.4668 35.5054V37.8669H34.8326V59.3089H40.0595V37.8669H47.4254V35.5489C47.4254 34.245 47.4254 33.1874 47.3687 33.1584C47.3687 33.1149 42.8784 33.1005 37.4248 33.1005L27.5093 33.1439V35.5199L27.4668 35.5054V35.5054ZM60.5705 33.086C62.0154 33.4337 63.1203 34.1001 64.1118 35.1577C64.6359 35.7372 65.415 36.7514 65.4717 37.0122C65.4717 37.0991 63.0211 38.7942 61.5338 39.7359C61.4771 39.7793 61.2505 39.533 61.0238 39.1564C60.2872 38.0843 59.5365 37.6207 58.3608 37.5337C56.661 37.4178 55.5278 38.3306 55.5278 39.8518C55.5278 40.3154 55.6128 40.5762 55.7828 40.9528C56.1652 41.7497 56.8735 42.2278 59.0691 43.2129C63.1203 44.9949 64.8767 46.1685 65.9391 47.849C67.1431 49.7325 67.4123 52.688 66.6049 54.9046C65.6983 57.3241 63.4886 58.9612 60.3297 59.4972C59.3382 59.6711 57.0718 59.6421 56.0094 59.4538C53.743 59.0191 51.5757 57.8601 50.2442 56.3679C49.7201 55.7884 48.7144 54.2382 48.7711 54.1368L49.3093 53.789L51.4341 52.5286L53.0347 51.5724L53.403 52.0795C53.8705 52.8329 54.9187 53.847 55.5278 54.1947C57.3692 55.1654 59.834 55.035 61.0522 53.905C61.5763 53.4124 61.8029 52.8908 61.8029 52.1664C61.8029 51.5 61.7038 51.1957 61.378 50.6887C60.9247 50.0512 60.0181 49.5296 57.4684 48.3706C54.5362 47.0957 53.2897 46.2844 52.1282 45.0384C51.4624 44.285 50.8533 43.1115 50.57 42.1408C50.3575 41.3006 50.2867 39.2433 50.485 38.4175C51.0941 35.5199 53.233 33.4916 56.2927 32.9121C57.2843 32.7093 59.6215 32.7962 60.5989 33.057L60.5705 33.086V33.086Z" fill="#E0E0E0"/>
<defs>
<filter id="filter0_d_59_119" x="0" y="0" width="96" height="96" filterUnits="userSpaceOnUse" color-interpolation-filters="sRGB">
<feFlood flood-opacity="0" result="BackgroundImageFix"/>
<feColorMatrix in="SourceAlpha" type="matrix" values="0 0 0 0 0 0 0 0 0 0 0 0 0 0 0 0 0 0 127 0" result="hardAlpha"/>
<feOffset dy="2"/>
<feGaussianBlur stdDeviation="2"/>
<feComposite in2="hardAlpha" operator="out"/>
<feColorMatrix type="matrix" values="0 0 0 0 0 0 0 0 0 0 0 0 0 0 0 0 0 0 0.53 0"/>
<feBlend mode="normal" in2="BackgroundImageFix" result="effect1_dropShadow_59_119"/>
<feBlend mode="normal" in="SourceGraphic" in2="effect1_dropShadow_59_119" result="shape"/>
</filter>
<linearGradient id="paint0_linear_59_119" x1="48" y1="2" x2="48" y2="90" gradientUnits="userSpaceOnUse">
<stop stop-color="#B9B9B9"/>
<stop offset="1" stop-opacity="0"/>
<stop offset="1"/>
</linearGradient>
</defs>
</svg>
